SplineFontDB: 3.0
FontName: Nosifer-Caps
FullName: Nosifer-Caps
FamilyName: Nosifer-Caps
Weight: Book
Copyright: Copyright (c) 2011 by Typomondo. All rights reserved.
Version: 1.000
ItalicAngle: 0
UnderlinePosition: -103
UnderlineWidth: 102
Ascent: 1638
Descent: 410
sfntRevision: 0x00010000
LayerCount: 2
Layer: 0 1 "Back"  1
Layer: 1 1 "Fore"  0
NeedsXUIDChange: 1
XUID: [1021 14 500265001 12889511]
FSType: 0
OS2Version: 3
OS2_WeightWidthSlopeOnly: 0
OS2_UseTypoMetrics: 1
CreationTime: 1319191616
ModificationTime: 1319272419
PfmFamily: 17
TTFWeight: 400
TTFWidth: 5
LineGap: 0
VLineGap: 0
Panose: 2 0 0 0 0 0 0 0 0 0
OS2TypoAscent: 598
OS2TypoAOffset: 1
OS2TypoDescent: -725
OS2TypoDOffset: 1
OS2TypoLinegap: 0
OS2WinAscent: 0
OS2WinAOffset: 1
OS2WinDescent: 0
OS2WinDOffset: 1
HheadAscent: 0
HheadAOffset: 1
HheadDescent: 0
HheadDOffset: 1
OS2SubXSize: 1331
OS2SubYSize: 1228
OS2SubXOff: 0
OS2SubYOff: 153
OS2SupXSize: 1331
OS2SupYSize: 1228
OS2SupXOff: 0
OS2SupYOff: 716
OS2StrikeYSize: 102
OS2StrikeYPos: 1047
OS2Vendor: 'typm'
OS2CodePages: 00000001.00000000
OS2UnicodeRanges: 00000003.00000000.00000000.00000000
Lookup: 4 0 1 "'liga' Standard Ligatures in Latin lookup 0"  {"'liga' Standard Ligatures in Latin lookup 0 subtable"  } ['liga' ('DFLT' <'dflt' > 'latn' <'dflt' > ) ]
Lookup: 258 0 0 "'kern' Horizontal Kerning in Latin lookup 0"  {"'kern' Horizontal Kerning in Latin lookup 0 subtable"  } ['kern' ('DFLT' <'dflt' > 'latn' <'dflt' > ) ]
MarkAttachClasses: 1
DEI: 91125
KernClass2: 3 6 "'kern' Horizontal Kerning in Latin lookup 0 subtable" 
 3 T t
 3 A a
 11 C G O c g o
 3 Q q
 7 V W v w
 3 T t
 3 A a
 0 {} 0 {} 0 {} 0 {} 0 {} 0 {} 0 {} -52 {} 0 {} 0 {} 0 {} -205 {} 0 {} 0 {} 0 {} -191 {} -183 {} 0 {}
MacFeat: 0 0 0
MacName: 0 0 24 "All Typographic Features"
MacName: 0 1 24 "Fonctions typographiques"
MacName: 0 2 32 "Alle typografischen Mglichkeiten"
MacName: 0 3 21 "Funzioni Tipografiche"
MacName: 0 4 28 "Alle typografische kenmerken"
MacSetting: 0

StartChar: exclam
Encoding: 33 33 5
Width: 711
GlyphClass: 2
Flags: W
LayerCount: 2
Fore
SplineSet
429 0 m 2,0,-1
 286 0 l 2,1,2
 198 0 198 0 181 7 c 128,-1,3
 164 14 164 14 164 58 c 2,4,-1
 164 292 l 2,5,6
 164 336 164 336 180.5 342.5 c 128,-1,7
 197 349 197 349 286 349 c 2,8,-1
 429 349 l 2,9,10
 518 349 518 349 535 342.5 c 128,-1,11
 552 336 552 336 552 292 c 2,12,-1
 552 58 l 2,13,14
 552 15 552 15 534 7.5 c 128,-1,15
 516 0 516 0 429 0 c 2,0,-1
381 500 m 2,16,-1
 341 500 l 2,17,18
 281 500 281 500 242 461 c 1,19,-1
 221 482 l 1,20,21
 270 531 270 531 260 580 c 2,22,-1
 131 1252 l 2,23,24
 131 1255 131 1255 129 1265 c 128,-1,25
 127 1275 127 1275 126.5 1277.5 c 128,-1,26
 126 1280 126 1280 124.5 1289 c 128,-1,27
 123 1298 123 1298 121.5 1301 c 128,-1,28
 120 1304 120 1304 118 1311 c 128,-1,29
 116 1318 116 1318 113.5 1322 c 128,-1,30
 111 1326 111 1326 108 1332 c 128,-1,31
 105 1338 105 1338 101 1342.5 c 128,-1,32
 97 1347 97 1347 92 1352 c 1,33,-1
 113 1372 l 1,34,35
 152 1333 152 1333 212 1333 c 2,36,-1
 503 1333 l 2,37,38
 563 1333 563 1333 602 1372 c 1,39,-1
 623 1352 l 1,40,41
 618 1347 618 1347 614 1342.5 c 128,-1,42
 610 1338 610 1338 607 1332 c 128,-1,43
 604 1326 604 1326 601.5 1322 c 128,-1,44
 599 1318 599 1318 597 1311 c 128,-1,45
 595 1304 595 1304 593.5 1301 c 128,-1,46
 592 1298 592 1298 590.5 1289 c 128,-1,47
 589 1280 589 1280 588.5 1277.5 c 128,-1,48
 588 1275 588 1275 586 1265 c 128,-1,49
 584 1255 584 1255 584 1252 c 2,50,-1
 462 580 l 2,51,52
 453 530 453 530 501 482 c 1,53,-1
 481 461 l 1,54,55
 442 500 442 500 381 500 c 2,16,-1
EndSplineSet
EndChar

StartChar: quotedbl
Encoding: 34 34 6
Width: 925
GlyphClass: 2
Flags: W
LayerCount: 2
Fore
SplineSet
667 1403 m 0,0,1
 800 1403 800 1403 800 1346 c 1,2,-1
 765 866 l 2,3,4
 763 840 763 840 735 825.5 c 128,-1,5
 707 811 707 811 670 811 c 0,6,7
 632 811 632 811 603.5 826 c 128,-1,8
 575 841 575 841 573 867 c 2,9,-1
 539 1346 l 1,10,11
 539 1362 539 1362 545 1372.5 c 128,-1,12
 551 1383 551 1383 581 1393 c 128,-1,13
 611 1403 611 1403 667 1403 c 0,0,1
263 1403 m 0,14,15
 395 1403 395 1403 395 1346 c 1,16,-1
 361 866 l 2,17,18
 359 840 359 840 331 825.5 c 128,-1,19
 303 811 303 811 266 811 c 0,20,21
 228 811 228 811 199.5 826 c 128,-1,22
 171 841 171 841 169 867 c 2,23,-1
 135 1346 l 1,24,25
 135 1362 135 1362 141 1372.5 c 128,-1,26
 147 1383 147 1383 177 1393 c 128,-1,27
 207 1403 207 1403 263 1403 c 0,14,15
EndSplineSet
EndChar

StartChar: numbersign
Encoding: 35 35 7
Width: 1768
GlyphClass: 2
Flags: W
LayerCount: 2
Fore
SplineSet
707 827 m 1,0,-1
 638 558 l 1,1,-1
 1029 558 l 1,2,-1
 1099 827 l 1,3,-1
 707 827 l 1,0,-1
1389 247 m 2,4,-1
 1262 247 l 1,5,-1
 1222 89 l 2,6,7
 1197 -7 1197 -7 1191 -82 c 1,8,-1
 836 -82 l 1,9,10
 871 -24 871 -24 909 89 c 1,11,-1
 949 247 l 1,12,-1
 558 247 l 1,13,-1
 516 89 l 2,14,15
 492 -2 492 -2 486 -82 c 1,16,-1
 130 -82 l 1,17,18
 165 -24 165 -24 203 89 c 1,19,-1
 244 247 l 1,20,-1
 219 247 l 2,21,22
 161 247 161 247 91 239 c 1,23,-1
 91 571 l 1,24,25
 143 558 143 558 262 558 c 2,26,-1
 324 558 l 1,27,-1
 394 827 l 1,28,-1
 380 827 l 2,29,30
 304 827 304 827 252 821 c 1,31,-1
 252 1152 l 1,32,33
 308 1138 308 1138 423 1138 c 2,34,-1
 474 1138 l 1,35,-1
 502 1247 l 1,36,37
 531 1379 531 1379 532 1413 c 1,38,-1
 887 1413 l 1,39,40
 853 1356 853 1356 816 1247 c 1,41,-1
 787 1138 l 1,42,-1
 1180 1138 l 1,43,-1
 1207 1247 l 1,44,45
 1236 1379 1236 1379 1237 1413 c 1,46,-1
 1593 1413 l 1,47,48
 1557 1352 1557 1352 1521 1247 c 1,49,-1
 1493 1138 l 1,50,-1
 1508 1138 l 2,51,52
 1619 1138 1619 1138 1675 1152 c 1,53,-1
 1675 821 l 1,54,55
 1623 827 1623 827 1550 827 c 2,56,-1
 1413 827 l 1,57,-1
 1343 558 l 1,58,-1
 1347 558 l 2,59,60
 1461 558 1461 558 1513 571 c 1,61,-1
 1513 239 l 1,62,63
 1443 247 1443 247 1389 247 c 2,4,-1
EndSplineSet
EndChar

StartChar: dollar
Encoding: 36 36 8
Width: 1816
GlyphClass: 2
Flags: W
LayerCount: 2
Fore
SplineSet
791 1017 m 1,0,1
 770 1017 770 1017 747.5 1013 c 128,-1,2
 725 1009 725 1009 700 999.5 c 128,-1,3
 675 990 675 990 659.5 969.5 c 128,-1,4
 644 949 644 949 644 921 c 128,-1,5
 644 893 644 893 660.5 875.5 c 128,-1,6
 677 858 677 858 696 852 c 128,-1,7
 715 846 715 846 746 838.5 c 128,-1,8
 777 831 777 831 791 825 c 1,9,-1
 791 1017 l 1,0,1
1186 417 m 0,10,11
 1186 515 1186 515 1022 532 c 1,12,-1
 1022 361 l 2,13,14
 1022 312 1022 312 1021 291 c 1,15,16
 1037 290 1037 290 1049 291.5 c 128,-1,17
 1061 293 1061 293 1078.5 298 c 128,-1,18
 1096 303 1096 303 1102 304 c 1,19,20
 1186 333 1186 333 1186 417 c 0,10,11
844 1418 m 2,21,-1
 975 1418 l 2,22,23
 1012 1418 1012 1418 1048 1454 c 1,24,-1
 1060 1440 l 1,25,26
 1025 1405 1025 1405 1025 1367 c 2,27,-1
 1025 1310 l 1,28,-1
 1077 1310 l 1,29,30
 1142 1304 1142 1304 1195 1295.5 c 128,-1,31
 1248 1287 1248 1287 1313 1271.5 c 128,-1,32
 1378 1256 1378 1256 1429.5 1232.5 c 128,-1,33
 1481 1209 1481 1209 1529 1176 c 128,-1,34
 1577 1143 1577 1143 1609.5 1095 c 128,-1,35
 1642 1047 1642 1047 1657 987 c 0,36,37
 1672 928 1672 928 1718 893 c 1,38,-1
 1702 872 l 1,39,40
 1657 907 1657 907 1595 907 c 2,41,-1
 1259 907 l 2,42,43
 1227 907 1227 907 1209.5 898 c 128,-1,44
 1192 889 1192 889 1181 862 c 1,45,-1
 1147 878 l 1,46,47
 1172 939 1172 939 1133 986 c 128,-1,48
 1094 1033 1094 1033 1031 1033 c 1,49,-1
 1031 819 l 1,50,51
 1194 816 1194 816 1320.5 789 c 128,-1,52
 1447 762 1447 762 1524 721.5 c 128,-1,53
 1601 681 1601 681 1650.5 625.5 c 128,-1,54
 1700 570 1700 570 1719 515.5 c 128,-1,55
 1738 461 1738 461 1738 400 c 0,56,57
 1738 328 1738 328 1712 268 c 128,-1,58
 1686 208 1686 208 1642.5 166.5 c 128,-1,59
 1599 125 1599 125 1538.5 92.5 c 128,-1,60
 1478 60 1478 60 1413.5 41 c 128,-1,61
 1349 22 1349 22 1277 10.5 c 128,-1,62
 1205 -1 1205 -1 1142 -4.5 c 128,-1,63
 1079 -8 1079 -8 1018 -6 c 1,64,65
 1022 -84 1022 -84 1022 -93 c 2,66,-1
 1022 -94 l 2,67,68
 1022 -153 1022 -153 1060 -191 c 1,69,-1
 1041 -212 l 1,70,71
 1002 -173 1002 -173 943 -173 c 2,72,-1
 867 -173 l 2,73,74
 807 -173 807 -173 768 -212 c 1,75,-1
 748 -191 l 1,76,77
 787 -152 787 -152 787 -94 c 2,78,-1
 787 -93 l 2,79,80
 787 -84 787 -84 786 -69 c 128,-1,81
 785 -54 785 -54 785 -39 c 128,-1,82
 785 -24 785 -24 787 -6 c 1,83,84
 500 4 500 4 319 97 c 128,-1,85
 138 190 138 190 102 339 c 0,86,87
 86 402 86 402 44 435 c 1,88,-1
 59 454 l 1,89,90
 104 419 104 419 166 419 c 2,91,-1
 489 419 l 2,92,93
 528 419 528 419 550 429 c 128,-1,94
 572 439 572 439 584 466 c 1,95,-1
 625 448 l 1,96,97
 601 393 601 393 657 344 c 0,98,99
 673 331 673 331 706 317 c 128,-1,100
 739 303 739 303 764 296 c 2,101,-1
 790 288 l 1,102,103
 789 338 789 338 789 367 c 2,104,-1
 789 554 l 1,105,106
 762 558 762 558 710 564.5 c 128,-1,107
 658 571 658 571 622.5 575.5 c 128,-1,108
 587 580 587 580 534.5 589 c 128,-1,109
 482 598 482 598 444.5 607 c 128,-1,110
 407 616 407 616 360.5 631.5 c 128,-1,111
 314 647 314 647 282 664.5 c 128,-1,112
 250 682 250 682 217 707.5 c 128,-1,113
 184 733 184 733 164 763 c 128,-1,114
 144 793 144 793 131.5 832.5 c 128,-1,115
 119 872 119 872 119 918 c 0,116,117
 119 985 119 985 140.5 1041 c 128,-1,118
 162 1097 162 1097 196.5 1136 c 128,-1,119
 231 1175 231 1175 283 1205.5 c 128,-1,120
 335 1236 335 1236 388 1254.5 c 128,-1,121
 441 1273 441 1273 506.5 1286 c 128,-1,122
 572 1299 572 1299 626.5 1305 c 128,-1,123
 681 1311 681 1311 744 1315 c 1,124,125
 777 1315 777 1315 793 1314 c 1,126,-1
 793 1369 l 2,127,128
 793 1406 793 1406 758 1441 c 1,129,-1
 771 1454 l 1,130,131
 807 1418 807 1418 844 1418 c 2,21,-1
EndSplineSet
EndChar

StartChar: percent
Encoding: 37 37 9
Width: 2562
GlyphClass: 2
Flags: W
LayerCount: 2
Fore
SplineSet
1857 360 m 0,0,1
 1857 152 1857 152 2027 152 c 128,-1,2
 2197 152 2197 152 2197 360 c 0,3,4
 2197 455 2197 455 2153.5 505.5 c 128,-1,5
 2110 556 2110 556 2027 556 c 128,-1,6
 1944 556 1944 556 1900.5 505.5 c 128,-1,7
 1857 455 1857 455 1857 360 c 0,0,1
1541 360 m 0,8,9
 1541 470 1541 470 1581 550 c 128,-1,10
 1621 630 1621 630 1691.5 674 c 128,-1,11
 1762 718 1762 718 1844.5 737.5 c 128,-1,12
 1927 757 1927 757 2027 757 c 0,13,14
 2106 757 2106 757 2174 745.5 c 128,-1,15
 2242 734 2242 734 2305.5 705.5 c 128,-1,16
 2369 677 2369 677 2414 632.5 c 128,-1,17
 2459 588 2459 588 2485.5 518.5 c 128,-1,18
 2512 449 2512 449 2512 360 c 0,19,20
 2512 -44 2512 -44 2018 -44 c 0,21,22
 1804 -44 1804 -44 1672.5 59.5 c 128,-1,23
 1541 163 1541 163 1541 360 c 0,8,9
395 978 m 0,24,25
 395 771 395 771 566 771 c 0,26,27
 736 771 736 771 736 978 c 0,28,29
 736 1073 736 1073 692 1124 c 128,-1,30
 648 1175 648 1175 566 1175 c 0,31,32
 483 1175 483 1175 439 1124 c 128,-1,33
 395 1073 395 1073 395 978 c 0,24,25
1174 -1 m 1,34,-1
 819 -1 l 1,35,36
 871 70 871 70 914 170 c 2,37,-1
 1346 1166 l 2,38,39
 1389 1266 1389 1266 1397 1332 c 1,40,-1
 1753 1332 l 1,41,42
 1698 1257 1698 1257 1659 1166 c 2,43,-1
 1228 170 l 2,44,45
 1184 67 1184 67 1174 -1 c 1,34,-1
80 979 m 0,46,47
 80 1089 80 1089 120 1169 c 128,-1,48
 160 1249 160 1249 230.5 1292.5 c 128,-1,49
 301 1336 301 1336 383.5 1355.5 c 128,-1,50
 466 1375 466 1375 566 1375 c 0,51,52
 645 1375 645 1375 713 1363.5 c 128,-1,53
 781 1352 781 1352 844.5 1323.5 c 128,-1,54
 908 1295 908 1295 953 1251 c 128,-1,55
 998 1207 998 1207 1024.5 1137.5 c 128,-1,56
 1051 1068 1051 1068 1051 979 c 0,57,58
 1051 575 1051 575 557 575 c 0,59,60
 343 575 343 575 211.5 678.5 c 128,-1,61
 80 782 80 782 80 979 c 0,46,47
EndSplineSet
EndChar

StartChar: ampersand
Encoding: 38 38 10
Width: 1862
GlyphClass: 2
Flags: W
LayerCount: 2
Fore
SplineSet
1026 1082 m 0,0,1
 978 1082 978 1082 943.5 1056.5 c 128,-1,2
 909 1031 909 1031 909 987 c 0,3,4
 909 972 909 972 937 926 c 0,5,6
 971 871 971 871 956 821 c 1,7,-1
 987 812 l 1,8,9
 1003 865 1003 865 1059 891 c 1,10,11
 1098 908 1098 908 1124 932 c 128,-1,12
 1150 956 1150 956 1150 984 c 0,13,14
 1150 1029 1150 1029 1112.5 1055.5 c 128,-1,15
 1075 1082 1075 1082 1026 1082 c 0,0,1
794 254 m 0,16,17
 817 254 817 254 888.5 270 c 128,-1,18
 960 286 960 286 1003 273 c 1,19,-1
 1008 295 l 1,20,21
 951 313 951 313 911 358 c 2,22,-1
 735 556 l 2,23,24
 696 599 696 599 704 652 c 1,25,-1
 673 657 l 1,26,27
 666 605 666 605 616 574 c 1,28,29
 543 532 543 532 543 451 c 0,30,31
 543 384 543 384 581.5 337.5 c 128,-1,32
 620 291 620 291 674.5 272.5 c 128,-1,33
 729 254 729 254 794 254 c 0,16,17
561 805 m 1,34,35
 499 828 499 828 465 884 c 128,-1,36
 431 940 431 940 431 1022 c 0,37,38
 431 1076 431 1076 451 1121.5 c 128,-1,39
 471 1167 471 1167 504 1198 c 128,-1,40
 537 1229 537 1229 583.5 1253.5 c 128,-1,41
 630 1278 630 1278 679 1292 c 128,-1,42
 728 1306 728 1306 784 1315 c 128,-1,43
 840 1324 840 1324 887.5 1327 c 128,-1,44
 935 1330 935 1330 984 1330 c 0,45,46
 1063 1330 1063 1330 1136.5 1318.5 c 128,-1,47
 1210 1307 1210 1307 1278 1281 c 128,-1,48
 1346 1255 1346 1255 1395.5 1217 c 128,-1,49
 1445 1179 1445 1179 1475 1121.5 c 128,-1,50
 1505 1064 1505 1064 1505 994 c 0,51,52
 1505 893 1505 893 1432 825.5 c 128,-1,53
 1359 758 1359 758 1232 710 c 0,54,55
 1178 689 1178 689 1123 703 c 1,56,-1
 1117 682 l 1,57,58
 1174 668 1174 668 1213 626 c 0,59,60
 1223 615 1223 615 1242 593.5 c 128,-1,61
 1261 572 1261 572 1269 563 c 0,62,63
 1311 520 1311 520 1305 465 c 1,64,-1
 1336 462 l 1,65,66
 1341 516 1341 516 1391 551 c 0,67,68
 1483 615 1483 615 1549 672 c 1,69,70
 1595 710 1595 710 1600 765 c 1,71,-1
 1628 763 l 1,72,73
 1623 710 1623 710 1663 662 c 1,74,-1
 1728 587 l 2,75,76
 1768 541 1768 541 1822 536 c 1,77,-1
 1820 507 l 1,78,79
 1765 512 1765 512 1719 472 c 1,80,81
 1658 421 1658 421 1563 349 c 1,82,83
 1514 314 1514 314 1459 319 c 1,84,-1
 1457 292 l 1,85,86
 1511 287 1511 287 1555 243 c 1,87,-1
 1730 58 l 1,88,89
 1775 13 1775 13 1826 -9 c 1,90,-1
 1820 -23 l 1,91,92
 1767 0 1767 0 1705 0 c 2,93,-1
 1305 0 l 2,94,95
 1276 0 1276 0 1260 -9 c 128,-1,96
 1244 -18 1244 -18 1232 -44 c 1,97,-1
 1203 -30 l 1,98,99
 1214 -2 1214 -2 1211 14 c 128,-1,100
 1208 30 1208 30 1191 51 c 0,101,102
 1158 90 1158 90 1167 141 c 1,103,-1
 1140 147 l 1,104,105
 1130 96 1130 96 1081 72 c 0,106,107
 876 -29 876 -29 594 -29 c 0,108,109
 525 -29 525 -29 453.5 -14 c 128,-1,110
 382 1 382 1 311 33.5 c 128,-1,111
 240 66 240 66 185 113 c 128,-1,112
 130 160 130 160 96 229.5 c 128,-1,113
 62 299 62 299 62 382 c 0,114,115
 62 532 62 532 170 635.5 c 128,-1,116
 278 739 278 739 447 787 c 0,117,118
 500 803 500 803 554 783 c 1,119,-1
 561 805 l 1,34,35
EndSplineSet
EndChar

StartChar: quotesingle
Encoding: 39 39 11
Width: 520
GlyphClass: 2
Flags: W
LayerCount: 2
Fore
SplineSet
263 1403 m 0,0,1
 395 1403 395 1403 395 1346 c 1,2,-1
 361 866 l 2,3,4
 359 840 359 840 331 825.5 c 128,-1,5
 303 811 303 811 266 811 c 0,6,7
 228 811 228 811 199.5 826 c 128,-1,8
 171 841 171 841 169 867 c 2,9,-1
 135 1346 l 1,10,11
 135 1362 135 1362 141 1372.5 c 128,-1,12
 147 1383 147 1383 177 1393 c 128,-1,13
 207 1403 207 1403 263 1403 c 0,0,1
EndSplineSet
EndChar

StartChar: parenleft
Encoding: 40 40 12
Width: 1219
GlyphClass: 2
Flags: W
LayerCount: 2
Fore
SplineSet
653 693 m 0,0,1
 653 601 653 601 662 531.5 c 128,-1,2
 671 462 671 462 687.5 409.5 c 128,-1,3
 704 357 704 357 734.5 321 c 128,-1,4
 765 285 765 285 801 262 c 128,-1,5
 837 239 837 239 892 226.5 c 128,-1,6
 947 214 947 214 1005.5 209 c 128,-1,7
 1064 204 1064 204 1147 204 c 1,8,-1
 1149 -138 l 1,9,10
 984 -138 984 -138 887 -134 c 128,-1,11
 790 -130 790 -130 665.5 -113.5 c 128,-1,12
 541 -97 541 -97 471 -64 c 128,-1,13
 401 -31 401 -31 323.5 29 c 128,-1,14
 246 89 246 89 207.5 177 c 128,-1,15
 169 265 169 265 143.5 394 c 128,-1,16
 118 523 118 523 118 693 c 0,17,18
 118 826 118 826 133.5 933 c 128,-1,19
 149 1040 149 1040 173 1121.5 c 128,-1,20
 197 1203 197 1203 243.5 1265.5 c 128,-1,21
 290 1328 290 1328 335 1370.5 c 128,-1,22
 380 1413 380 1413 455.5 1442 c 128,-1,23
 531 1471 531 1471 594.5 1487.5 c 128,-1,24
 658 1504 658 1504 761 1512.5 c 128,-1,25
 864 1521 864 1521 943.5 1523 c 128,-1,26
 1023 1525 1023 1525 1149 1525 c 1,27,-1
 1147 1183 l 1,28,29
 1050 1183 1050 1183 984.5 1176.5 c 128,-1,30
 919 1170 919 1170 859.5 1151 c 128,-1,31
 800 1132 800 1132 764.5 1098.5 c 128,-1,32
 729 1065 729 1065 702 1010 c 128,-1,33
 675 955 675 955 664 877.5 c 128,-1,34
 653 800 653 800 653 693 c 0,0,1
EndSplineSet
EndChar

StartChar: parenright
Encoding: 41 41 13
Width: 1230
GlyphClass: 2
Flags: W
LayerCount: 2
Fore
SplineSet
577 693 m 0,0,1
 577 800 577 800 566 877.5 c 128,-1,2
 555 955 555 955 528 1010 c 128,-1,3
 501 1065 501 1065 465.5 1098.5 c 128,-1,4
 430 1132 430 1132 370.5 1151 c 128,-1,5
 311 1170 311 1170 245.5 1176.5 c 128,-1,6
 180 1183 180 1183 83 1183 c 1,7,-1
 82 1525 l 1,8,9
 246 1525 246 1525 343.5 1521 c 128,-1,10
 441 1517 441 1517 565.5 1500.5 c 128,-1,11
 690 1484 690 1484 760.5 1450.5 c 128,-1,12
 831 1417 831 1417 908 1357.5 c 128,-1,13
 985 1298 985 1298 1024 1209.5 c 128,-1,14
 1063 1121 1063 1121 1088.5 992 c 128,-1,15
 1114 863 1114 863 1114 693 c 128,-1,16
 1114 523 1114 523 1088.5 394 c 128,-1,17
 1063 265 1063 265 1024 177 c 128,-1,18
 985 89 985 89 908 29 c 128,-1,19
 831 -31 831 -31 760.5 -64 c 128,-1,20
 690 -97 690 -97 565.5 -113.5 c 128,-1,21
 441 -130 441 -130 344 -134 c 128,-1,22
 247 -138 247 -138 82 -138 c 1,23,-1
 83 204 l 1,24,25
 166 204 166 204 224.5 209 c 128,-1,26
 283 214 283 214 338 226.5 c 128,-1,27
 393 239 393 239 429 262 c 128,-1,28
 465 285 465 285 495.5 321 c 128,-1,29
 526 357 526 357 542.5 409.5 c 128,-1,30
 559 462 559 462 568 531.5 c 128,-1,31
 577 601 577 601 577 693 c 0,0,1
EndSplineSet
EndChar

StartChar: asterisk
Encoding: 42 42 14
Width: 1165
GlyphClass: 2
Flags: W
LayerCount: 2
Fore
SplineSet
495 672 m 1,0,-1
 318 547 l 1,1,2
 235 482 235 482 209 453 c 1,3,-1
 92 615 l 1,4,5
 155 651 155 651 213 691 c 2,6,-1
 399 823 l 1,7,-1
 213 955 l 2,8,9
 193 969 193 969 154.5 990 c 128,-1,10
 116 1011 116 1011 91 1028 c 1,11,-1
 209 1193 l 1,12,13
 243 1154 243 1154 318 1098 c 1,14,15
 470 989 470 989 495 972 c 1,16,-1
 495 1190 l 2,17,18
 495 1270 495 1270 480 1333 c 1,19,-1
 682 1333 l 1,20,21
 672 1226 672 1226 672 1191 c 2,22,-1
 672 970 l 1,23,24
 701 991 701 991 760.5 1034 c 128,-1,25
 820 1077 820 1077 849 1098 c 0,26,27
 920 1150 920 1150 957 1192 c 1,28,-1
 1073 1029 l 1,29,30
 1005 990 1005 990 953 953 c 2,31,-1
 767 822 l 1,32,-1
 953 689 l 2,33,34
 985 666 985 666 1075 615 c 1,35,-1
 957 450 l 1,36,37
 934 474 934 474 909 496.5 c 128,-1,38
 884 519 884 519 846.5 547 c 128,-1,39
 809 575 809 575 794.5 586 c 128,-1,40
 780 597 780 597 728 632.5 c 128,-1,41
 676 668 676 668 672 671 c 1,42,-1
 672 452 l 2,43,44
 672 420 672 420 682 310 c 1,45,-1
 480 310 l 1,46,47
 495 373 495 373 495 453 c 2,48,-1
 495 672 l 1,0,-1
EndSplineSet
EndChar

StartChar: plus
Encoding: 43 43 15
Width: 1066
GlyphClass: 2
Flags: W
LayerCount: 2
Fore
SplineSet
697 1029 m 2,0,-1
 697 871 l 1,1,-1
 807 871 l 2,2,3
 922 871 922 871 974 884 c 1,4,-1
 974 553 l 1,5,6
 921 559 921 559 849 559 c 2,7,-1
 697 559 l 1,8,-1
 697 412 l 2,9,10
 697 345 697 345 704 284 c 1,11,-1
 372 284 l 1,12,13
 386 340 386 340 386 454 c 2,14,-1
 386 559 l 1,15,-1
 233 559 l 2,16,17
 156 559 156 559 104 553 c 1,18,-1
 104 884 l 1,19,20
 156 871 156 871 275 871 c 2,21,-1
 386 871 l 1,22,-1
 386 986 l 2,23,24
 386 1097 386 1097 372 1153 c 1,25,-1
 704 1153 l 1,26,27
 697 1092 697 1092 697 1029 c 2,0,-1
EndSplineSet
EndChar

StartChar: comma
Encoding: 44 44 16
Width: 725
GlyphClass: 2
Flags: W
LayerCount: 2
Fore
SplineSet
380 0 m 1,0,-1
 219 0 l 2,1,2
 158 0 158 0 148 10 c 128,-1,3
 138 20 138 20 138 81 c 2,4,-1
 138 203 l 2,5,6
 138 208 138 208 138 218 c 0,7,8
 138 293 138 293 145.5 309 c 128,-1,9
 153 325 153 325 193 325 c 2,10,-1
 469 325 l 2,11,12
 476 325 476 325 489 325 c 0,13,14
 560 325 560 325 575.5 317.5 c 128,-1,15
 591 310 591 310 591 271 c 0,16,17
 591 267 591 267 591 246.5 c 128,-1,18
 591 226 591 226 590.5 183 c 128,-1,19
 590 140 590 140 590 81 c 0,20,21
 590 27 590 27 575 -32.5 c 128,-1,22
 560 -92 560 -92 535 -143.5 c 128,-1,23
 510 -195 510 -195 488.5 -232.5 c 128,-1,24
 467 -270 467 -270 444 -302 c 1,25,-1
 293 -290 l 1,26,27
 322 -230 322 -230 344 -157.5 c 128,-1,28
 366 -85 366 -85 373 -43 c 2,29,-1
 380 0 l 1,0,-1
EndSplineSet
EndChar

StartChar: hyphen
Encoding: 45 45 17
Width: 1127
GlyphClass: 2
Flags: W
LayerCount: 2
Fore
SplineSet
858 559 m 2,0,-1
 290 559 l 2,1,2
 214 559 214 559 161 553 c 1,3,-1
 161 884 l 1,4,5
 213 871 213 871 332 871 c 2,6,-1
 815 871 l 2,7,8
 929 871 929 871 981 884 c 1,9,-1
 981 553 l 1,10,11
 929 559 929 559 858 559 c 2,0,-1
EndSplineSet
EndChar

StartChar: period
Encoding: 46 46 18
Width: 665
GlyphClass: 2
Flags: W
LayerCount: 2
Fore
SplineSet
409 0 m 2,0,-1
 265 0 l 2,1,2
 177 0 177 0 160 7 c 128,-1,3
 143 14 143 14 143 58 c 2,4,-1
 143 292 l 2,5,6
 143 336 143 336 159.5 342.5 c 128,-1,7
 176 349 176 349 265 349 c 2,8,-1
 409 349 l 2,9,10
 498 349 498 349 514.5 342.5 c 128,-1,11
 531 336 531 336 531 292 c 2,12,-1
 531 58 l 2,13,14
 531 14 531 14 514 7 c 128,-1,15
 497 0 497 0 409 0 c 2,0,-1
EndSplineSet
EndChar

StartChar: slash
Encoding: 47 47 19
Width: 801
GlyphClass: 2
Flags: W
LayerCount: 2
Fore
SplineSet
373 -1 m 1,0,-1
 18 -1 l 1,1,2
 50 53 50 53 90 170 c 1,3,-1
 389 1166 l 1,4,5
 417 1293 417 1293 418 1332 c 1,6,-1
 774 1332 l 1,7,8
 738 1271 738 1271 702 1166 c 1,9,-1
 404 170 l 1,10,11
 376 58 376 58 373 -1 c 1,0,-1
EndSplineSet
EndChar

StartChar: zero
Encoding: 48 48 20
Width: 1893
GlyphClass: 2
Flags: W
LayerCount: 2
Fore
SplineSet
649 676 m 0,0,1
 649 310 649 310 948 310 c 0,2,3
 1248 310 1248 310 1248 676 c 0,4,5
 1248 844 1248 844 1171 933 c 128,-1,6
 1094 1022 1094 1022 948 1022 c 0,7,8
 803 1022 803 1022 726 933 c 128,-1,9
 649 844 649 844 649 676 c 0,0,1
92 677 m 0,10,11
 92 834 92 834 139.5 956.5 c 128,-1,12
 187 1079 187 1079 266 1156.5 c 128,-1,13
 345 1234 345 1234 457 1284.5 c 128,-1,14
 569 1335 569 1335 689 1355 c 128,-1,15
 809 1375 809 1375 948 1375 c 128,-1,16
 1087 1375 1087 1375 1207 1355 c 128,-1,17
 1327 1335 1327 1335 1439 1285 c 128,-1,18
 1551 1235 1551 1235 1630 1157 c 128,-1,19
 1709 1079 1709 1079 1756 956.5 c 128,-1,20
 1803 834 1803 834 1803 677 c 0,21,22
 1803 357 1803 357 1636 181.5 c 128,-1,23
 1469 6 1469 6 1166 -34 c 1,24,25
 1163 -39 1163 -39 1163 -56 c 0,26,27
 1163 -66 1163 -66 1165 -85.5 c 128,-1,28
 1167 -105 1167 -105 1167 -111 c 0,29,30
 1167 -128 1167 -128 1160 -145 c 128,-1,31
 1153 -162 1153 -162 1138 -162 c 0,32,33
 1111 -162 1111 -162 1111 -113 c 0,34,35
 1111 -101 1111 -101 1113 -81.5 c 128,-1,36
 1115 -62 1115 -62 1115 -57 c 0,37,38
 1115 -42 1115 -42 1101 -34.5 c 128,-1,39
 1087 -27 1087 -27 1071 -27 c 1,40,41
 1067 -36 1067 -36 1067 -61 c 0,42,43
 1067 -78 1067 -78 1070 -113 c 128,-1,44
 1073 -148 1073 -148 1073 -158 c 0,45,46
 1073 -188 1073 -188 1062 -216 c 128,-1,47
 1051 -244 1051 -244 1025 -244 c 0,48,49
 979 -244 979 -244 979 -162 c 0,50,51
 979 -141 979 -141 982 -107 c 128,-1,52
 985 -73 985 -73 985 -66 c 0,53,54
 985 -41 985 -41 961.5 -27.5 c 128,-1,55
 938 -14 938 -14 911 -14 c 0,56,57
 882 -14 882 -14 859.5 -29 c 128,-1,58
 837 -44 837 -44 837 -72 c 2,59,-1
 837 -302 l 2,60,61
 837 -352 837 -352 858 -449 c 128,-1,62
 879 -546 879 -546 879 -596 c 0,63,64
 879 -629 879 -629 861 -656 c 128,-1,65
 843 -683 843 -683 812 -683 c 0,66,67
 780 -683 780 -683 764.5 -655 c 128,-1,68
 749 -627 749 -627 749 -592 c 0,69,70
 749 -537 749 -537 771.5 -426 c 128,-1,71
 794 -315 794 -315 794 -254 c 0,72,73
 794 -7 794 -7 703 -7 c 0,74,75
 520 -7 520 -7 380 82.5 c 128,-1,76
 240 172 240 172 166 326.5 c 128,-1,77
 92 481 92 481 92 677 c 0,10,11
EndSplineSet
EndChar

StartChar: one
Encoding: 49 49 21
Width: 1009
GlyphClass: 2
Flags: W
LayerCount: 2
Fore
SplineSet
191 1096 m 0,0,1
 326 1152 326 1152 424 1225 c 0,2,3
 452 1245 452 1245 461 1263 c 128,-1,4
 470 1281 470 1281 461 1309 c 1,5,-1
 500 1320 l 1,6,7
 509 1293 509 1293 526.5 1284.5 c 128,-1,8
 544 1276 544 1276 579 1276 c 2,9,-1
 743 1276 l 2,10,11
 804 1276 804 1276 843 1315 c 1,12,-1
 864 1294 l 1,13,14
 824 1254 824 1254 824 1195 c 2,15,-1
 824 81 l 2,16,17
 824 21 824 21 864 -19 c 1,18,-1
 843 -39 l 1,19,20
 804 0 804 0 743 0 c 2,21,-1
 426 0 l 2,22,23
 365 0 365 0 326 -39 c 1,24,-1
 306 -19 l 1,25,26
 345 20 345 20 345 81 c 2,27,-1
 345 765 l 2,28,29
 345 773 345 773 344 795 c 0,30,31
 344 816 344 816 344 828 c 0,32,33
 344 835 344 835 345 845 c 1,34,35
 337 841 337 841 330 838 c 0,36,37
 318 834 318 834 298 828.5 c 128,-1,38
 278 823 278 823 269 820 c 0,39,40
 261 818 261 818 237 811.5 c 128,-1,41
 213 805 213 805 204 802.5 c 128,-1,42
 195 800 195 800 176 793 c 128,-1,43
 157 786 157 786 146.5 780 c 128,-1,44
 136 774 136 774 123 764 c 128,-1,45
 110 754 110 754 101 742 c 1,46,-1
 80 759 l 1,47,48
 116 803 116 803 116 864 c 2,49,-1
 116 983 l 2,50,51
 116 1044 116 1044 73 1073 c 1,52,-1
 91 1101 l 1,53,54
 134 1073 134 1073 191 1096 c 0,0,1
EndSplineSet
EndChar

StartChar: two
Encoding: 50 50 22
Width: 1914
GlyphClass: 2
Flags: W
LayerCount: 2
Fore
SplineSet
1758 253 m 2,0,-1
 1758 81 l 2,1,2
 1758 19 1758 19 1796 -19 c 1,3,-1
 1777 -39 l 1,4,5
 1738 0 1738 0 1677 0 c 2,6,-1
 200 0 l 2,7,8
 137 0 137 0 99 -37 c 1,9,-1
 80 -17 l 1,10,11
 120 20 120 20 126 81 c 1,12,13
 134 183 134 183 165 269.5 c 128,-1,14
 196 356 196 356 238.5 418 c 128,-1,15
 281 480 281 480 344.5 532.5 c 128,-1,16
 408 585 408 585 469 618.5 c 128,-1,17
 530 652 530 652 611.5 681 c 128,-1,18
 693 710 693 710 757 726.5 c 128,-1,19
 821 743 821 743 904 760 c 0,20,21
 915 762 915 762 955.5 768.5 c 128,-1,22
 996 775 996 775 1025 780.5 c 128,-1,23
 1054 786 1054 786 1095 797.5 c 128,-1,24
 1136 809 1136 809 1162.5 822 c 128,-1,25
 1189 835 1189 835 1208 855.5 c 128,-1,26
 1227 876 1227 876 1227 901 c 128,-1,27
 1227 926 1227 926 1203.5 944 c 128,-1,28
 1180 962 1180 962 1144.5 971 c 128,-1,29
 1109 980 1109 980 1077.5 983.5 c 128,-1,30
 1046 987 1046 987 1018 987 c 0,31,32
 914 987 914 987 838.5 958 c 128,-1,33
 763 929 763 929 737 872 c 0,34,35
 718 831 718 831 745 790 c 1,36,-1
 723 775 l 1,37,38
 707 799 707 799 691.5 807.5 c 128,-1,39
 676 816 676 816 651 816 c 2,40,-1
 225 816 l 2,41,42
 164 816 164 816 119 781 c 1,43,-1
 103 801 l 1,44,45
 149 837 149 837 162 896 c 0,46,47
 181 977 181 977 225 1042 c 128,-1,48
 269 1107 269 1107 332 1150.5 c 128,-1,49
 395 1194 395 1194 468.5 1225.5 c 128,-1,50
 542 1257 542 1257 629.5 1274 c 128,-1,51
 717 1291 717 1291 799.5 1298.5 c 128,-1,52
 882 1306 882 1306 973 1306 c 0,53,54
 1048 1306 1048 1306 1113 1303 c 128,-1,55
 1178 1300 1178 1300 1262.5 1288.5 c 128,-1,56
 1347 1277 1347 1277 1415 1258.5 c 128,-1,57
 1483 1240 1483 1240 1552.5 1205.5 c 128,-1,58
 1622 1171 1622 1171 1668.5 1125 c 128,-1,59
 1715 1079 1715 1079 1744.5 1010 c 128,-1,60
 1774 941 1774 941 1774 855 c 0,61,62
 1774 789 1774 789 1748.5 733.5 c 128,-1,63
 1723 678 1723 678 1688.5 640.5 c 128,-1,64
 1654 603 1654 603 1590.5 571 c 128,-1,65
 1527 539 1527 539 1480 521 c 128,-1,66
 1433 503 1433 503 1350.5 485.5 c 128,-1,67
 1268 468 1268 468 1227 462 c 128,-1,68
 1186 456 1186 456 1107 445 c 0,69,70
 1073 440 1073 440 1057 438 c 0,71,72
 821 405 821 405 717 367 c 0,73,74
 632 337 632 337 580 329 c 1,75,-1
 582 320 l 1,76,77
 651 332 651 332 724 332 c 0,78,79
 1267 332 1267 332 1677 334 c 0,80,81
 1738 334 1738 334 1777 373 c 1,82,-1
 1796 353 l 1,83,84
 1758 315 1758 315 1758 253 c 2,0,-1
EndSplineSet
EndChar

StartChar: three
Encoding: 51 51 23
Width: 1855
GlyphClass: 2
Flags: W
LayerCount: 2
Fore
SplineSet
929 984 m 0,0,1
 881 984 881 984 829.5 973.5 c 128,-1,2
 778 963 778 963 739.5 937 c 128,-1,3
 701 911 701 911 709 876 c 1,4,-1
 650 862 l 1,5,6
 644 890 644 890 622 899.5 c 128,-1,7
 600 909 600 909 551 909 c 2,8,-1
 232 909 l 2,9,10
 170 909 170 909 125 874 c 1,11,-1
 109 894 l 1,12,13
 153 928 153 928 168 989 c 0,14,15
 181 1045 181 1045 214 1090.5 c 128,-1,16
 247 1136 247 1136 291.5 1167.5 c 128,-1,17
 336 1199 336 1199 397 1222 c 128,-1,18
 458 1245 458 1245 519 1258.5 c 128,-1,19
 580 1272 580 1272 656 1280 c 128,-1,20
 732 1288 732 1288 796.5 1290.5 c 128,-1,21
 861 1293 861 1293 937 1293 c 0,22,23
 994 1293 994 1293 1054 1289.5 c 128,-1,24
 1114 1286 1114 1286 1192.5 1276 c 128,-1,25
 1271 1266 1271 1266 1341 1250 c 128,-1,26
 1411 1234 1411 1234 1480.5 1206.5 c 128,-1,27
 1550 1179 1550 1179 1600.5 1142.5 c 128,-1,28
 1651 1106 1651 1106 1682 1053 c 128,-1,29
 1713 1000 1713 1000 1713 936 c 0,30,31
 1713 797 1713 797 1602 719 c 0,32,33
 1563 691 1563 691 1508 690 c 1,34,-1
 1508 672 l 1,35,36
 1562 675 1562 675 1603 649 c 1,37,38
 1747 562 1747 562 1747 382 c 0,39,40
 1747 306 1747 306 1719 243.5 c 128,-1,41
 1691 181 1691 181 1645 138.5 c 128,-1,42
 1599 96 1599 96 1533 64 c 128,-1,43
 1467 32 1467 32 1399 13.5 c 128,-1,44
 1331 -5 1331 -5 1250 -16.5 c 128,-1,45
 1169 -28 1169 -28 1103 -31.5 c 128,-1,46
 1037 -35 1037 -35 965 -35 c 0,47,48
 880 -35 880 -35 822 -33.5 c 128,-1,49
 764 -32 764 -32 673.5 -24 c 128,-1,50
 583 -16 583 -16 519 -1 c 128,-1,51
 455 14 455 14 379.5 43 c 128,-1,52
 304 72 304 72 254.5 112.5 c 128,-1,53
 205 153 205 153 165.5 216 c 128,-1,54
 126 279 126 279 112 358 c 0,55,56
 102 417 102 417 57 456 c 1,57,-1
 74 476 l 1,58,59
 118 440 118 440 180 440 c 2,60,-1
 553 440 l 2,61,62
 591 440 591 440 613 449.5 c 128,-1,63
 635 459 635 459 647 486 c 1,64,-1
 685 467 l 1,65,66
 674 438 674 438 681 417 c 128,-1,67
 688 396 688 396 713 368 c 0,68,69
 782 290 782 290 948 290 c 0,70,71
 979 290 979 290 1014 295 c 128,-1,72
 1049 300 1049 300 1089.5 311 c 128,-1,73
 1130 322 1130 322 1156 346 c 128,-1,74
 1182 370 1182 370 1182 403 c 0,75,76
 1182 515 1182 515 940 515 c 2,77,-1
 607 515 l 2,78,79
 547 515 547 515 507 475 c 1,80,-1
 487 496 l 1,81,82
 526 535 526 535 526 596 c 2,83,-1
 526 754 l 2,84,85
 526 808 526 808 487 847 c 1,86,-1
 506 866 l 1,87,88
 544 828 544 828 599 828 c 2,89,-1
 933 828 l 2,90,91
 935 828 935 828 941 828 c 0,92,93
 962 828 962 828 975.5 828.5 c 128,-1,94
 989 829 989 829 1017 830.5 c 128,-1,95
 1045 832 1045 832 1064.5 836 c 128,-1,96
 1084 840 1084 840 1104.5 847.5 c 128,-1,97
 1125 855 1125 855 1135.5 867.5 c 128,-1,98
 1146 880 1146 880 1146 896 c 0,99,100
 1146 923 1146 923 1121.5 942 c 128,-1,101
 1097 961 1097 961 1059 969.5 c 128,-1,102
 1021 978 1021 978 989.5 981 c 128,-1,103
 958 984 958 984 929 984 c 0,0,1
EndSplineSet
EndChar

StartChar: four
Encoding: 52 52 24
Width: 1848
GlyphClass: 2
Flags: W
LayerCount: 2
Fore
SplineSet
974 905 m 2,0,-1
 686 609 l 2,1,2
 641 564 641 564 589 543 c 1,3,-1
 595 528 l 1,4,5
 652 551 652 551 710 551 c 2,6,-1
 950 551 l 2,7,8
 1011 551 1011 551 1050 512 c 1,9,-1
 1070 532 l 1,10,11
 1031 571 1031 571 1031 632 c 2,12,-1
 1031 883 l 2,13,14
 1031 941 1031 941 1054 999 c 1,15,-1
 1039 1004 l 1,16,17
 1016 947 1016 947 974 905 c 2,0,-1
1656 189 m 2,18,-1
 1580 189 l 2,19,20
 1520 189 1520 189 1481 228 c 1,21,-1
 1460 207 l 1,22,23
 1499 168 1499 168 1499 108 c 2,24,-1
 1499 58 l 2,25,26
 1499 -3 1499 -3 1538 -42 c 1,27,-1
 1518 -62 l 1,28,29
 1479 -23 1479 -23 1418 -23 c 2,30,-1
 1112 -23 l 2,31,32
 1052 -23 1052 -23 1013 -62 c 1,33,-1
 992 -42 l 1,34,35
 1031 -3 1031 -3 1031 58 c 2,36,-1
 1031 108 l 2,37,38
 1031 168 1031 168 1070 207 c 1,39,-1
 1050 228 l 1,40,41
 1011 189 1011 189 950 189 c 2,42,-1
 183 191 l 2,43,44
 122 191 122 191 83 152 c 1,45,-1
 63 173 l 1,46,47
 102 212 102 212 102 272 c 2,48,-1
 104 450 l 2,49,50
 104 482 104 482 94.5 500 c 128,-1,51
 85 518 85 518 59 529 c 1,52,-1
 73 563 l 1,53,54
 103 553 103 553 119.5 558.5 c 128,-1,55
 136 564 136 564 160 588 c 2,56,-1
 770 1202 l 2,57,58
 793 1225 793 1225 799 1243.5 c 128,-1,59
 805 1262 805 1262 794 1291 c 1,60,-1
 828 1305 l 1,61,62
 839 1279 839 1279 857.5 1269.5 c 128,-1,63
 876 1260 876 1260 908 1260 c 2,64,-1
 1427 1260 l 2,65,66
 1486 1260 1486 1260 1526 1300 c 1,67,-1
 1546 1279 l 1,68,69
 1508 1241 1508 1241 1508 1179 c 2,70,-1
 1508 632 l 2,71,72
 1508 572 1508 572 1468 532 c 1,73,-1
 1489 512 l 1,74,75
 1528 551 1528 551 1589 551 c 2,76,-1
 1656 551 l 2,77,78
 1717 551 1717 551 1756 590 c 1,79,-1
 1776 570 l 1,80,81
 1737 531 1737 531 1737 470 c 2,82,-1
 1737 270 l 2,83,84
 1737 209 1737 209 1776 170 c 1,85,-1
 1756 149 l 1,86,87
 1716 189 1716 189 1656 189 c 2,18,-1
EndSplineSet
EndChar

StartChar: five
Encoding: 53 53 25
Width: 1871
GlyphClass: 2
Flags: W
LayerCount: 2
Fore
SplineSet
603 952 m 1,0,1
 665 875 665 875 583 793 c 1,2,-1
 595 781 l 1,3,4
 634 820 634 820 672 827 c 0,5,6
 796 851 796 851 997 851 c 0,7,8
 1059 851 1059 851 1117 848 c 128,-1,9
 1175 845 1175 845 1253 834 c 128,-1,10
 1331 823 1331 823 1397 804.5 c 128,-1,11
 1463 786 1463 786 1530 752.5 c 128,-1,12
 1597 719 1597 719 1643.5 674 c 128,-1,13
 1690 629 1690 629 1719.5 561.5 c 128,-1,14
 1749 494 1749 494 1749 411 c 0,15,16
 1749 327 1749 327 1722.5 257.5 c 128,-1,17
 1696 188 1696 188 1652 140.5 c 128,-1,18
 1608 93 1608 93 1545 56.5 c 128,-1,19
 1482 20 1482 20 1416 -1 c 128,-1,20
 1350 -22 1350 -22 1271.5 -35.5 c 128,-1,21
 1193 -49 1193 -49 1126 -53.5 c 128,-1,22
 1059 -58 1059 -58 987 -58 c 0,23,24
 912 -58 912 -58 851.5 -56 c 128,-1,25
 791 -54 791 -54 702 -45 c 128,-1,26
 613 -36 613 -36 543.5 -20 c 128,-1,27
 474 -4 474 -4 396 26.5 c 128,-1,28
 318 57 318 57 262.5 98.5 c 128,-1,29
 207 140 207 140 164 203.5 c 128,-1,30
 121 267 121 267 105 347 c 0,31,32
 93 409 93 409 51 445 c 1,33,-1
 68 464 l 1,34,35
 111 426 111 426 172 425 c 1,36,-1
 487 413 l 2,37,38
 528 411 528 411 550.5 420 c 128,-1,39
 573 429 573 429 584 456 c 1,40,-1
 630 438 l 1,41,42
 620 411 620 411 630 389.5 c 128,-1,43
 640 368 640 368 672 341 c 0,44,45
 719 301 719 301 794.5 283.5 c 128,-1,46
 870 266 870 266 942 269 c 0,47,48
 981 271 981 271 1019 278.5 c 128,-1,49
 1057 286 1057 286 1097 302 c 128,-1,50
 1137 318 1137 318 1162 348 c 128,-1,51
 1187 378 1187 378 1187 418 c 0,52,53
 1187 557 1187 557 874 557 c 0,54,55
 791 557 791 557 726 540 c 0,56,57
 684 528 684 528 668.5 516 c 128,-1,58
 653 504 653 504 656 476 c 1,59,-1
 605 471 l 1,60,61
 602 499 602 499 584 507.5 c 128,-1,62
 566 516 566 516 523 518 c 2,63,-1
 268 527 l 2,64,65
 209 530 209 530 165 494 c 1,66,-1
 148 515 l 1,67,68
 190 551 190 551 198 611 c 2,69,-1
 277 1164 l 2,70,71
 285 1225 285 1225 250 1264 c 1,72,-1
 274 1284 l 1,73,74
 308 1244 308 1244 369 1244 c 2,75,-1
 1583 1243 l 2,76,77
 1643 1243 1643 1243 1682 1282 c 1,78,-1
 1703 1261 l 1,79,80
 1664 1222 1664 1222 1664 1162 c 2,81,-1
 1664 1008 l 2,82,83
 1664 948 1664 948 1703 909 c 1,84,-1
 1682 888 l 1,85,86
 1643 927 1643 927 1583 927 c 2,87,-1
 693 927 l 2,88,89
 652 927 652 927 619 966 c 1,90,-1
 603 952 l 1,0,1
EndSplineSet
EndChar

StartChar: six
Encoding: 54 54 26
Width: 1950
GlyphClass: 2
Flags: W
LayerCount: 2
Fore
SplineSet
991 311 m 0,0,1
 1276 311 1276 311 1276 421 c 0,2,3
 1276 547 1276 547 1063 547 c 0,4,5
 1038 547 1038 547 657 530 c 1,6,7
 718 311 718 311 991 311 c 0,0,1
794 -25 m 1,8,9
 675 -11 675 -11 574 19 c 128,-1,10
 473 49 473 49 382 103.5 c 128,-1,11
 291 158 291 158 228 233.5 c 128,-1,12
 165 309 165 309 128 418 c 128,-1,13
 91 527 91 527 91 661 c 0,14,15
 91 783 91 783 117 883 c 128,-1,16
 143 983 143 983 188.5 1055 c 128,-1,17
 234 1127 234 1127 302.5 1182 c 128,-1,18
 371 1237 371 1237 448.5 1271.5 c 128,-1,19
 526 1306 526 1306 623.5 1327 c 128,-1,20
 721 1348 721 1348 817.5 1356.5 c 128,-1,21
 914 1365 914 1365 1027 1365 c 0,22,23
 1104 1365 1104 1365 1180 1358.5 c 128,-1,24
 1256 1352 1256 1352 1341 1337 c 128,-1,25
 1426 1322 1426 1322 1501.5 1293.5 c 128,-1,26
 1577 1265 1577 1265 1643.5 1226 c 128,-1,27
 1710 1187 1710 1187 1758.5 1128.5 c 128,-1,28
 1807 1070 1807 1070 1829 997 c 1,29,30
 1844 934 1844 934 1883 903 c 1,31,-1
 1867 881 l 1,32,33
 1827 912 1827 912 1765 912 c 0,34,35
 1706 912 1706 912 1639.5 908 c 128,-1,36
 1573 904 1573 904 1488.5 896.5 c 128,-1,37
 1404 889 1404 889 1363 886 c 0,38,39
 1330 883 1330 883 1309.5 872.5 c 128,-1,40
 1289 862 1289 862 1276 836 c 1,41,-1
 1243 853 l 1,42,43
 1254 873 1254 873 1254 893 c 0,44,45
 1254 955 1254 955 1173.5 996 c 128,-1,46
 1093 1037 1093 1037 964 1037 c 0,47,48
 832 1037 832 1037 751 962.5 c 128,-1,49
 670 888 670 888 648 757 c 1,50,51
 752 764 752 764 836 770 c 128,-1,52
 920 776 920 776 945.5 778.5 c 128,-1,53
 971 781 971 781 1006 783 c 128,-1,54
 1041 785 1041 785 1064.5 785 c 128,-1,55
 1088 785 1088 785 1151 785 c 0,56,57
 1256 785 1256 785 1348.5 775 c 128,-1,58
 1441 765 1441 765 1534 738.5 c 128,-1,59
 1627 712 1627 712 1693 670.5 c 128,-1,60
 1759 629 1759 629 1800.5 560 c 128,-1,61
 1842 491 1842 491 1842 402 c 0,62,63
 1842 317 1842 317 1808 248 c 128,-1,64
 1774 179 1774 179 1718.5 133.5 c 128,-1,65
 1663 88 1663 88 1584 55 c 128,-1,66
 1505 22 1505 22 1425 4 c 128,-1,67
 1345 -14 1345 -14 1251 -24 c 1,68,69
 1251 -116 1251 -116 1275 -298 c 128,-1,70
 1299 -480 1299 -480 1299 -571 c 0,71,72
 1299 -600 1299 -600 1284.5 -623 c 128,-1,73
 1270 -646 1270 -646 1242 -646 c 128,-1,74
 1214 -646 1214 -646 1199 -623 c 128,-1,75
 1184 -600 1184 -600 1184 -571 c 0,76,77
 1184 -496 1184 -496 1200.5 -344 c 128,-1,78
 1217 -192 1217 -192 1217 -117 c 0,79,80
 1217 -101 1217 -101 1215 -88.5 c 128,-1,81
 1213 -76 1213 -76 1211.5 -66.5 c 128,-1,82
 1210 -57 1210 -57 1203 -50 c 128,-1,83
 1196 -43 1196 -43 1193.5 -38.5 c 128,-1,84
 1191 -34 1191 -34 1179 -31 c 128,-1,85
 1167 -28 1167 -28 1163.5 -26.5 c 128,-1,86
 1160 -25 1160 -25 1142.5 -24.5 c 128,-1,87
 1125 -24 1125 -24 1121 -24 c 128,-1,88
 1117 -24 1117 -24 1095 -24 c 0,89,90
 1077 -24 1077 -24 1052.5 -26 c 128,-1,91
 1028 -28 1028 -28 1000 -37.5 c 128,-1,92
 972 -47 972 -47 972 -61 c 0,93,94
 972 -107 972 -107 984.5 -197.5 c 128,-1,95
 997 -288 997 -288 997 -333 c 0,96,97
 997 -357 997 -357 988 -378 c 128,-1,98
 979 -399 979 -399 958 -399 c 0,99,100
 938 -399 938 -399 929 -379 c 128,-1,101
 920 -359 920 -359 920 -337 c 0,102,103
 920 -290 920 -290 934 -198.5 c 128,-1,104
 948 -107 948 -107 948 -60 c 0,105,106
 948 -47 948 -47 941.5 -37.5 c 128,-1,107
 935 -28 935 -28 922 -28 c 0,108,109
 897 -28 897 -28 866 -35 c 128,-1,110
 835 -42 835 -42 835 -59 c 0,111,112
 835 -131 835 -131 841 -275 c 128,-1,113
 847 -419 847 -419 847 -491 c 0,114,115
 847 -508 847 -508 836 -522 c 128,-1,116
 825 -536 825 -536 809 -536 c 128,-1,117
 793 -536 793 -536 783 -524 c 128,-1,118
 773 -512 773 -512 773 -496 c 0,119,120
 773 -412 773 -412 782.5 -258.5 c 128,-1,121
 792 -105 792 -105 794 -25 c 1,8,9
EndSplineSet
EndChar

StartChar: seven
Encoding: 55 55 27
Width: 1315
GlyphClass: 2
Flags: W
LayerCount: 2
Fore
SplineSet
615 -728 m 1,0,1
 619 -736 619 -736 617 -735 c 0,2,3
 610 -733 610 -733 597 -708 c 1,4,-1
 591 -692 l 1,5,6
 591 -664 591 -664 600 -599 c 128,-1,7
 609 -534 609 -534 616 -502 c 1,8,9
 623 -534 623 -534 631.5 -599 c 128,-1,10
 640 -664 640 -664 640 -693 c 0,11,12
 640 -728 640 -728 615 -728 c 1,0,1
160 1334 m 2,13,-1
 1149 1334 l 2,14,15
 1210 1334 1210 1334 1249 1373 c 1,16,-1
 1268 1353 l 1,17,18
 1230 1315 1230 1315 1230 1253 c 0,19,20
 1230 1236 1230 1236 1227.5 1192.5 c 128,-1,21
 1225 1149 1225 1149 1225 1125 c 0,22,23
 1225 1112 1225 1112 1229 1076 c 128,-1,24
 1233 1040 1233 1040 1231 1011 c 128,-1,25
 1229 982 1229 982 1216 953 c 1,26,-1
 763 81 l 1,27,28
 759 -33 759 -33 772 -242 c 128,-1,29
 785 -451 785 -451 785 -540 c 0,30,31
 785 -564 785 -564 775.5 -589 c 128,-1,32
 766 -614 766 -614 745 -614 c 0,33,34
 722 -614 722 -614 712.5 -583 c 128,-1,35
 703 -552 703 -552 703 -522 c 0,36,37
 703 -452 703 -452 717 -313.5 c 128,-1,38
 731 -175 731 -175 731 -105 c 0,39,40
 731 -92 731 -92 729.5 -77 c 128,-1,41
 728 -62 728 -62 724 -42 c 128,-1,42
 720 -22 720 -22 710.5 -9 c 128,-1,43
 701 4 701 4 687 4 c 0,44,45
 666 4 666 4 654 -21 c 128,-1,46
 642 -46 642 -46 642 -70 c 0,47,48
 642 -105 642 -105 653.5 -174.5 c 128,-1,49
 665 -244 665 -244 665 -279 c 0,50,51
 665 -304 665 -304 655.5 -327.5 c 128,-1,52
 646 -351 646 -351 624 -351 c 0,53,54
 603 -351 603 -351 593.5 -330 c 128,-1,55
 584 -309 584 -309 584 -286 c 0,56,57
 584 -253 584 -253 602 -189.5 c 128,-1,58
 620 -126 620 -126 620 -92 c 0,59,60
 620 -46 620 -46 585 -25 c 128,-1,61
 550 -4 550 -4 500 -4 c 0,62,63
 418 -4 418 -4 340.5 -56 c 128,-1,64
 263 -108 263 -108 263 -191 c 0,65,66
 263 -222 263 -222 276 -284 c 128,-1,67
 289 -346 289 -346 289 -378 c 0,68,69
 289 -429 289 -429 252 -429 c 0,70,71
 210 -429 210 -429 210 -375 c 0,72,73
 210 -340 210 -340 226 -272 c 128,-1,74
 242 -204 242 -204 242 -170 c 1,75,-1
 261 90 l 1,76,77
 321 210 321 210 461 486.5 c 128,-1,78
 601 763 601 763 675 911 c 1,79,80
 708 973 708 973 765 1011 c 1,81,-1
 756 1031 l 1,82,83
 690 986 690 986 587 986 c 0,84,85
 518 986 518 986 398 992.5 c 128,-1,86
 278 999 278 999 209 999 c 0,87,88
 106 999 106 999 60 953 c 1,89,-1
 40 974 l 1,90,91
 79 1013 79 1013 79 1073 c 0,92,93
 79 1088 79 1088 81.5 1132 c 128,-1,94
 84 1176 84 1176 84 1201 c 0,95,96
 84 1310 84 1310 40 1353 c 1,97,-1
 60 1373 l 1,98,99
 100 1334 100 1334 160 1334 c 2,13,-1
EndSplineSet
EndChar

StartChar: eight
Encoding: 56 56 28
Width: 1826
GlyphClass: 2
Flags: W
LayerCount: 2
Fore
SplineSet
644 -730 m 0,0,1
 620 -730 620 -730 620 -693 c 0,2,3
 620 -626 620 -626 645 -504 c 1,4,5
 669 -624 669 -624 669 -695 c 0,6,7
 669 -730 669 -730 644 -730 c 0,0,1
925 1028 m 0,8,9
 640 1028 640 1028 640 918 c 0,10,11
 640 899 640 899 645 883.5 c 128,-1,12
 650 868 650 868 657 856.5 c 128,-1,13
 664 845 664 845 677.5 835 c 128,-1,14
 691 825 691 825 702 819 c 128,-1,15
 713 813 713 813 731.5 808 c 128,-1,16
 750 803 750 803 762 800 c 128,-1,17
 774 797 774 797 795 795 c 128,-1,18
 816 793 816 793 826 792 c 128,-1,19
 836 791 836 791 857 790 c 128,-1,20
 878 789 878 789 883 789 c 0,21,22
 914 787 914 787 988.5 783 c 128,-1,23
 1063 779 1063 779 1119.5 774.5 c 128,-1,24
 1176 770 1176 770 1227 761 c 1,25,26
 1229 775 1229 775 1229 803 c 0,27,28
 1229 864 1229 864 1204 909 c 128,-1,29
 1179 954 1179 954 1135.5 979 c 128,-1,30
 1092 1004 1092 1004 1039.5 1016 c 128,-1,31
 987 1028 987 1028 925 1028 c 0,8,9
899 306 m 0,32,33
 1233 306 1233 306 1233 417 c 0,34,35
 1233 479 1233 479 1165.5 511 c 128,-1,36
 1098 543 1098 543 972 543 c 0,37,38
 745 543 745 543 573 581 c 1,39,40
 570 565 570 565 570 535 c 0,41,42
 570 306 570 306 899 306 c 0,32,33
1175 -22 m 1,43,44
 1175 -105 1175 -105 1188.5 -271.5 c 128,-1,45
 1202 -438 1202 -438 1202 -522 c 0,46,47
 1202 -546 1202 -546 1192.5 -571 c 128,-1,48
 1183 -596 1183 -596 1162 -596 c 0,49,50
 1139 -596 1139 -596 1129.5 -565 c 128,-1,51
 1120 -534 1120 -534 1120 -504 c 0,52,53
 1120 -434 1120 -434 1130 -295 c 128,-1,54
 1140 -156 1140 -156 1140 -86 c 0,55,56
 1140 22 1140 22 1097 22 c 0,57,58
 1075 22 1075 22 1063 -3 c 128,-1,59
 1051 -28 1051 -28 1051 -52 c 0,60,61
 1051 -87 1051 -87 1063 -156.5 c 128,-1,62
 1075 -226 1075 -226 1075 -261 c 0,63,64
 1075 -286 1075 -286 1065 -309 c 128,-1,65
 1055 -332 1055 -332 1033 -332 c 0,66,67
 1012 -332 1012 -332 1002.5 -311 c 128,-1,68
 993 -290 993 -290 993 -267 c 0,69,70
 993 -234 993 -234 1011 -170.5 c 128,-1,71
 1029 -107 1029 -107 1029 -73 c 0,72,73
 1029 -27 1029 -27 994.5 -6 c 128,-1,74
 960 15 960 15 910 15 c 0,75,76
 856 15 856 15 799 -6 c 128,-1,77
 742 -27 742 -27 699 -72 c 128,-1,78
 656 -117 656 -117 656 -173 c 0,79,80
 656 -204 656 -204 669.5 -266 c 128,-1,81
 683 -328 683 -328 683 -360 c 0,82,83
 683 -410 683 -410 645 -410 c 0,84,85
 603 -410 603 -410 603 -356 c 0,86,87
 603 -322 603 -322 619 -254 c 128,-1,88
 635 -186 635 -186 635 -151 c 1,89,-1
 651 -29 l 1,90,91
 510 -11 510 -11 401 31 c 128,-1,92
 292 73 292 73 227.5 131 c 128,-1,93
 163 189 163 189 130.5 254 c 128,-1,94
 98 319 98 319 98 389 c 0,95,96
 98 564 98 564 283 669 c 1,97,98
 130 764 130 764 130 936 c 0,99,100
 130 1015 130 1015 159.5 1080 c 128,-1,101
 189 1145 189 1145 237 1189.5 c 128,-1,102
 285 1234 285 1234 354.5 1268 c 128,-1,103
 424 1302 424 1302 496 1322 c 128,-1,104
 568 1342 568 1342 654.5 1354.5 c 128,-1,105
 741 1367 741 1367 814.5 1371 c 128,-1,106
 888 1375 888 1375 967 1375 c 0,107,108
 1113 1375 1113 1375 1233 1350.5 c 128,-1,109
 1353 1326 1353 1326 1434 1284.5 c 128,-1,110
 1515 1243 1515 1243 1571 1187 c 128,-1,111
 1627 1131 1627 1131 1652 1070.5 c 128,-1,112
 1677 1010 1677 1010 1677 945 c 0,113,114
 1677 789 1677 789 1539 688 c 1,115,116
 1742 591 1742 591 1742 398 c 0,117,118
 1742 318 1742 318 1710 252.5 c 128,-1,119
 1678 187 1678 187 1626 142 c 128,-1,120
 1574 97 1574 97 1498.5 63 c 128,-1,121
 1423 29 1423 29 1345 9.5 c 128,-1,122
 1267 -10 1267 -10 1175 -22 c 1,43,44
EndSplineSet
EndChar

StartChar: nine
Encoding: 57 57 29
Width: 1948
GlyphClass: 2
Flags: W
LayerCount: 2
Fore
SplineSet
961 1028 m 0,0,1
 676 1028 676 1028 676 918 c 0,2,3
 676 856 676 856 730 823.5 c 128,-1,4
 784 791 784 791 888 791 c 0,5,6
 892 791 892 791 1295 809 c 1,7,8
 1234 1028 1234 1028 961 1028 c 0,0,1
110 918 m 0,9,10
 110 921 110 921 109.5 927.5 c 128,-1,11
 109 934 109 934 109 936 c 0,12,13
 109 1015 109 1015 138.5 1080 c 128,-1,14
 168 1145 168 1145 216 1189.5 c 128,-1,15
 264 1234 264 1234 333.5 1268 c 128,-1,16
 403 1302 403 1302 475 1322 c 128,-1,17
 547 1342 547 1342 633.5 1354.5 c 128,-1,18
 720 1367 720 1367 793.5 1371 c 128,-1,19
 867 1375 867 1375 946 1375 c 0,20,21
 1050 1375 1050 1375 1144 1365 c 128,-1,22
 1238 1355 1238 1355 1331 1331.5 c 128,-1,23
 1424 1308 1424 1308 1502 1272 c 128,-1,24
 1580 1236 1580 1236 1647.5 1180.5 c 128,-1,25
 1715 1125 1715 1125 1761.5 1054.5 c 128,-1,26
 1808 984 1808 984 1834.5 888.5 c 128,-1,27
 1861 793 1861 793 1861 679 c 0,28,29
 1861 373 1861 373 1696.5 196 c 128,-1,30
 1532 19 1532 19 1227 -24 c 1,31,32
 1228 -93 1228 -93 1237 -253 c 128,-1,33
 1246 -413 1246 -413 1246 -499 c 0,34,35
 1246 -515 1246 -515 1236.5 -526.5 c 128,-1,36
 1227 -538 1227 -538 1211 -538 c 128,-1,37
 1195 -538 1195 -538 1184 -524.5 c 128,-1,38
 1173 -511 1173 -511 1173 -494 c 0,39,40
 1173 -422 1173 -422 1178.5 -277.5 c 128,-1,41
 1184 -133 1184 -133 1184 -61 c 0,42,43
 1184 -52 1184 -52 1173 -45 c 128,-1,44
 1162 -38 1162 -38 1146.5 -35 c 128,-1,45
 1131 -32 1131 -32 1119 -31 c 128,-1,46
 1107 -30 1107 -30 1098 -30 c 0,47,48
 1085 -30 1085 -30 1078.5 -39.5 c 128,-1,49
 1072 -49 1072 -49 1072 -62 c 0,50,51
 1072 -109 1072 -109 1085.5 -200 c 128,-1,52
 1099 -291 1099 -291 1099 -338 c 0,53,54
 1099 -360 1099 -360 1090 -380.5 c 128,-1,55
 1081 -401 1081 -401 1061 -401 c 0,56,57
 1023 -401 1023 -401 1023 -336 c 0,58,59
 1023 -290 1023 -290 1035 -200 c 128,-1,60
 1047 -110 1047 -110 1047 -64 c 0,61,62
 1047 -43 1047 -43 1003 -35 c 128,-1,63
 959 -27 959 -27 924 -27 c 0,64,65
 921 -27 921 -27 915 -27 c 0,66,67
 886 -27 886 -27 873 -27.5 c 128,-1,68
 860 -28 860 -28 843 -32.5 c 128,-1,69
 826 -37 826 -37 819 -46.5 c 128,-1,70
 812 -56 812 -56 807 -74 c 128,-1,71
 802 -92 802 -92 802 -119 c 0,72,73
 802 -194 802 -194 818.5 -345 c 128,-1,74
 835 -496 835 -496 835 -572 c 0,75,76
 835 -601 835 -601 820 -625 c 128,-1,77
 805 -649 805 -649 777 -649 c 128,-1,78
 749 -649 749 -649 734.5 -625 c 128,-1,79
 720 -601 720 -601 720 -572 c 0,80,81
 720 -481 720 -481 744.5 -300 c 128,-1,82
 769 -119 769 -119 769 -27 c 1,83,84
 701 -19 701 -19 638 -6 c 128,-1,85
 575 7 575 7 505.5 27 c 128,-1,86
 436 47 436 47 376.5 76.5 c 128,-1,87
 317 106 317 106 265.5 143 c 128,-1,88
 214 180 214 180 176.5 231 c 128,-1,89
 139 282 139 282 123 342 c 1,90,91
 109 404 109 404 68 436 c 1,92,-1
 84 457 l 1,93,94
 123 427 123 427 186 427 c 0,95,96
 246 427 246 427 308.5 430.5 c 128,-1,97
 371 434 371 434 466 442.5 c 128,-1,98
 561 451 561 451 588 453 c 0,99,100
 621 456 621 456 642 466 c 128,-1,101
 663 476 663 476 676 503 c 1,102,-1
 708 486 l 1,103,104
 697 466 697 466 697 446 c 0,105,106
 697 384 697 384 778 343 c 128,-1,107
 859 302 859 302 988 302 c 0,108,109
 1120 302 1120 302 1201 376.5 c 128,-1,110
 1282 451 1282 451 1304 582 c 1,111,112
 1200 575 1200 575 1116 569 c 128,-1,113
 1032 563 1032 563 1006.5 560.5 c 128,-1,114
 981 558 981 558 946 556 c 128,-1,115
 911 554 911 554 887.5 554 c 128,-1,116
 864 554 864 554 801 554 c 0,117,118
 717 554 717 554 640 561 c 128,-1,119
 563 568 563 568 484 583.5 c 128,-1,120
 405 599 405 599 340.5 627 c 128,-1,121
 276 655 276 655 224.5 694 c 128,-1,122
 173 733 173 733 143 790 c 128,-1,123
 113 847 113 847 110 918 c 0,9,10
EndSplineSet
EndChar

StartChar: colon
Encoding: 58 58 30
Width: 790
GlyphClass: 2
Flags: W
LayerCount: 2
Fore
SplineSet
502 1 m 2,0,-1
 292 1 l 2,1,2
 203 1 203 1 186.5 7.5 c 128,-1,3
 170 14 170 14 170 58 c 2,4,-1
 170 292 l 2,5,6
 170 336 170 336 187 343 c 128,-1,7
 204 350 204 350 292 350 c 2,8,-1
 502 350 l 2,9,10
 590 350 590 350 607 343 c 128,-1,11
 624 336 624 336 624 292 c 2,12,-1
 624 58 l 2,13,14
 624 14 624 14 607.5 7.5 c 128,-1,15
 591 1 591 1 502 1 c 2,0,-1
502 677 m 2,16,-1
 292 677 l 2,17,18
 203 677 203 677 186.5 683.5 c 128,-1,19
 170 690 170 690 170 734 c 2,20,-1
 170 968 l 2,21,22
 170 1012 170 1012 187 1019 c 128,-1,23
 204 1026 204 1026 292 1026 c 2,24,-1
 502 1026 l 2,25,26
 590 1026 590 1026 607 1019 c 128,-1,27
 624 1012 624 1012 624 968 c 2,28,-1
 624 734 l 2,29,30
 624 690 624 690 607.5 683.5 c 128,-1,31
 591 677 591 677 502 677 c 2,16,-1
EndSplineSet
EndChar

StartChar: semicolon
Encoding: 59 59 31
Width: 779
GlyphClass: 2
Flags: W
LayerCount: 2
Fore
SplineSet
493 677 m 2,0,-1
 284 677 l 2,1,2
 277 677 277 677 265 677 c 0,3,4
 193 677 193 677 177.5 684.5 c 128,-1,5
 162 692 162 692 162 734 c 2,6,-1
 162 968 l 2,7,8
 162 1010 162 1010 178 1018 c 128,-1,9
 194 1026 194 1026 269 1026 c 0,10,11
 279 1026 279 1026 284 1026 c 2,12,-1
 493 1026 l 2,13,14
 498 1026 498 1026 508 1026 c 0,15,16
 584 1026 584 1026 600 1018 c 128,-1,17
 616 1010 616 1010 616 968 c 2,18,-1
 616 734 l 2,19,20
 616 692 616 692 600.5 684.5 c 128,-1,21
 585 677 585 677 512 677 c 0,22,23
 500 677 500 677 493 677 c 2,0,-1
403 0 m 1,24,-1
 242 0 l 2,25,26
 181 0 181 0 171 10 c 128,-1,27
 161 20 161 20 161 81 c 2,28,-1
 161 203 l 2,29,30
 161 208 161 208 161 218 c 0,31,32
 161 293 161 293 168.5 309 c 128,-1,33
 176 325 176 325 216 325 c 2,34,-1
 492 325 l 2,35,36
 499 325 499 325 512 325 c 0,37,38
 584 325 584 325 599.5 317.5 c 128,-1,39
 615 310 615 310 615 271 c 0,40,41
 615 267 615 267 615 246.5 c 128,-1,42
 615 226 615 226 614.5 183 c 128,-1,43
 614 140 614 140 614 81 c 0,44,45
 614 27 614 27 598.5 -32.5 c 128,-1,46
 583 -92 583 -92 558 -144 c 128,-1,47
 533 -196 533 -196 511 -233 c 128,-1,48
 489 -270 489 -270 466 -302 c 1,49,-1
 316 -290 l 1,50,51
 345 -230 345 -230 367 -157.5 c 128,-1,52
 389 -85 389 -85 396 -43 c 2,53,-1
 403 0 l 1,24,-1
EndSplineSet
EndChar

StartChar: less
Encoding: 60 60 32
Width: 968
GlyphClass: 2
Flags: W
LayerCount: 2
Fore
SplineSet
100 491 m 0,0,1
 100 492 100 492 100 511.5 c 128,-1,2
 100 531 100 531 100 562 c 128,-1,3
 100 593 100 593 100 630 c 128,-1,4
 100 667 100 667 100 704 c 128,-1,5
 100 741 100 741 100 771.5 c 128,-1,6
 100 802 100 802 100 822 c 2,7,-1
 100 843 l 2,8,9
 100 863 100 863 130 882 c 2,10,-1
 734 1252 l 1,11,12
 772 1274 772 1274 793 1312 c 1,13,-1
 805 1305 l 1,14,15
 785 1271 785 1271 785 1223 c 2,16,-1
 786 929 l 2,17,18
 786 885 786 885 818 867 c 1,19,-1
 805 844 l 1,20,21
 783 853 783 853 774 853 c 0,22,23
 751 853 751 853 714 833.5 c 128,-1,24
 677 814 677 814 637.5 786.5 c 128,-1,25
 598 759 598 759 556.5 731.5 c 128,-1,26
 515 704 515 704 471 684.5 c 128,-1,27
 427 665 427 665 392 665 c 1,28,-1
 392 650 l 1,29,-1
 397 650 l 2,30,31
 434 650 434 650 491.5 620.5 c 128,-1,32
 549 591 549 591 598.5 555 c 128,-1,33
 648 519 648 519 698.5 489.5 c 128,-1,34
 749 460 749 460 774 460 c 0,35,36
 785 460 785 460 805 470 c 1,37,-1
 818 447 l 1,38,39
 786 429 786 429 786 384 c 2,40,-1
 785 108 l 2,41,42
 785 62 785 62 805 26 c 1,43,-1
 793 19 l 1,44,45
 772 57 772 57 734 79 c 1,46,-1
 130 454 l 2,47,48
 118 462 118 462 113 465.5 c 128,-1,49
 108 469 108 469 104 475.5 c 128,-1,50
 100 482 100 482 100 491 c 0,0,1
EndSplineSet
EndChar

StartChar: equal
Encoding: 61 61 33
Width: 1147
GlyphClass: 2
Flags: W
LayerCount: 2
Fore
SplineSet
860 370 m 2,0,-1
 292 370 l 2,1,2
 199 370 199 370 164 364 c 1,3,-1
 164 598 l 1,4,5
 216 585 216 585 335 585 c 2,6,-1
 818 585 l 2,7,8
 933 585 933 585 985 598 c 1,9,-1
 985 364 l 1,10,11
 932 370 932 370 860 370 c 2,0,-1
860 774 m 2,12,-1
 292 774 l 2,13,14
 199 774 199 774 164 768 c 1,15,-1
 164 1002 l 1,16,17
 216 989 216 989 335 989 c 2,18,-1
 818 989 l 2,19,20
 933 989 933 989 985 1002 c 1,21,-1
 985 768 l 1,22,23
 932 774 932 774 860 774 c 2,12,-1
EndSplineSet
EndChar

StartChar: greater
Encoding: 62 62 34
Width: 953
GlyphClass: 2
Flags: W
LayerCount: 2
Fore
SplineSet
867 491 m 2,0,1
 867 482 867 482 862.5 475.5 c 128,-1,2
 858 469 858 469 854 466 c 128,-1,3
 850 463 850 463 836 454 c 2,4,-1
 233 79 l 1,5,6
 197 58 197 58 175 19 c 1,7,-1
 162 26 l 1,8,9
 183 64 183 64 183 108 c 2,10,-1
 181 384 l 2,11,12
 181 429 181 429 149 447 c 1,13,-1
 162 470 l 1,14,15
 182 460 182 460 193 460 c 0,16,17
 224 460 224 460 295.5 507.5 c 128,-1,18
 367 555 367 555 445 602.5 c 128,-1,19
 523 650 523 650 569 650 c 2,20,-1
 574 650 l 1,21,-1
 574 665 l 1,22,23
 532 665 532 665 474 694.5 c 128,-1,24
 416 724 416 724 369 759 c 128,-1,25
 322 794 322 794 272 823.5 c 128,-1,26
 222 853 222 853 193 853 c 0,27,28
 184 853 184 853 162 844 c 1,29,-1
 149 867 l 1,30,31
 181 885 181 885 181 929 c 2,32,-1
 183 1223 l 2,33,34
 183 1269 183 1269 162 1305 c 1,35,-1
 175 1312 l 1,36,37
 197 1273 197 1273 233 1252 c 2,38,-1
 836 882 l 2,39,40
 867 862 867 862 867 843 c 2,41,-1
 867 491 l 2,0,1
EndSplineSet
EndChar

StartChar: question
Encoding: 63 63 35
Width: 1559
GlyphClass: 2
Flags: W
LayerCount: 2
Fore
SplineSet
583 -181 m 2,0,-1
 440 -181 l 2,1,2
 352 -181 352 -181 334.5 -174 c 128,-1,3
 317 -167 317 -167 317 -123 c 2,4,-1
 317 111 l 2,5,6
 317 155 317 155 334 161.5 c 128,-1,7
 351 168 351 168 440 168 c 2,8,-1
 583 168 l 2,9,10
 672 168 672 168 688.5 161.5 c 128,-1,11
 705 155 705 155 705 111 c 2,12,-1
 705 -123 l 2,13,14
 705 -167 705 -167 688 -174 c 128,-1,15
 671 -181 671 -181 583 -181 c 2,0,-1
740 434 m 0,16,17
 741 392 741 392 778 354 c 1,18,-1
 757 334 l 1,19,20
 718 373 718 373 659 373 c 2,21,-1
 361 373 l 2,22,23
 299 373 299 373 261 336 c 1,24,-1
 242 356 l 1,25,26
 284 392 284 392 287 454 c 1,27,28
 294 550 294 550 327.5 625 c 128,-1,29
 361 700 361 700 407 746 c 128,-1,30
 453 792 453 792 520 826 c 128,-1,31
 587 860 587 860 647 876.5 c 128,-1,32
 707 893 707 893 783 905 c 1,33,34
 870 925 870 925 902.5 956 c 128,-1,35
 935 987 935 987 935 1030 c 128,-1,36
 935 1073 935 1073 893.5 1103 c 128,-1,37
 852 1133 852 1133 775 1133 c 0,38,39
 664 1133 664 1133 631 1050 c 0,40,41
 623 1029 623 1029 623 1016 c 0,42,43
 623 993 623 993 640 968 c 1,44,-1
 618 953 l 1,45,46
 602 977 602 977 586 985.5 c 128,-1,47
 570 994 570 994 545 994 c 2,48,-1
 119 994 l 2,49,50
 58 994 58 994 13 959 c 1,51,-1
 -2 979 l 1,52,53
 40 1012 40 1012 56 1075 c 1,54,55
 75 1164 75 1164 124 1232 c 128,-1,56
 173 1300 173 1300 238 1341 c 128,-1,57
 303 1382 303 1382 388.5 1407.5 c 128,-1,58
 474 1433 474 1433 556 1442.5 c 128,-1,59
 638 1452 638 1452 730 1452 c 0,60,61
 801 1452 801 1452 862.5 1449 c 128,-1,62
 924 1446 924 1446 1004.5 1434.5 c 128,-1,63
 1085 1423 1085 1423 1149.5 1404.5 c 128,-1,64
 1214 1386 1214 1386 1279.5 1351.5 c 128,-1,65
 1345 1317 1345 1317 1389.5 1271 c 128,-1,66
 1434 1225 1434 1225 1462 1156 c 128,-1,67
 1490 1087 1490 1087 1490 1001 c 0,68,69
 1490 939 1490 939 1473 887.5 c 128,-1,70
 1456 836 1456 836 1431 799.5 c 128,-1,71
 1406 763 1406 763 1364 732 c 128,-1,72
 1322 701 1322 701 1285.5 683 c 128,-1,73
 1249 665 1249 665 1194 647.5 c 128,-1,74
 1139 630 1139 630 1103.5 621.5 c 128,-1,75
 1068 613 1068 613 1013 601.5 c 128,-1,76
 958 590 958 590 935 584 c 0,77,78
 934 584 934 584 910 579 c 128,-1,79
 886 574 886 574 869.5 570 c 128,-1,80
 853 566 853 566 826 554 c 128,-1,81
 799 542 799 542 782.5 528 c 128,-1,82
 766 514 766 514 753 489 c 128,-1,83
 740 464 740 464 740 434 c 0,16,17
EndSplineSet
EndChar

StartChar: at
Encoding: 64 64 36
Width: 2148
GlyphClass: 2
Flags: W
LayerCount: 2
Fore
SplineSet
2061 570 m 0,0,1
 2061 460 2061 460 2028 372.5 c 128,-1,2
 1995 285 1995 285 1939.5 232.5 c 128,-1,3
 1884 180 1884 180 1817 153 c 128,-1,4
 1750 126 1750 126 1676 126 c 0,5,6
 1548 126 1548 126 1442 177 c 128,-1,7
 1336 228 1336 228 1287 321 c 1,8,-1
 1271 323 l 1,9,10
 1258 231 1258 231 1149.5 178.5 c 128,-1,11
 1041 126 1041 126 853 126 c 0,12,13
 793 126 793 126 737 133.5 c 128,-1,14
 681 141 681 141 622 162 c 128,-1,15
 563 183 563 183 520 215 c 128,-1,16
 477 247 477 247 449.5 301 c 128,-1,17
 422 355 422 355 422 425 c 0,18,19
 422 696 422 696 1071 696 c 0,20,21
 1144 696 1144 696 1174.5 695 c 128,-1,22
 1205 694 1205 694 1243.5 685 c 128,-1,23
 1282 676 1282 676 1308 657 c 1,24,-1
 1320 672 l 1,25,26
 1280 701 1280 701 1260 755 c 0,27,28
 1246 791 1246 791 1204.5 803 c 128,-1,29
 1163 815 1163 815 1070 815 c 0,30,31
 888 815 888 815 730 774 c 0,32,33
 705 767 705 767 690 755 c 128,-1,34
 675 743 675 743 665 719 c 1,35,-1
 642 729 l 1,36,37
 648 748 648 748 648 764 c 0,38,39
 648 788 648 788 632 814 c 0,40,41
 627 823 627 823 611.5 849.5 c 128,-1,42
 596 876 596 876 588.5 887.5 c 128,-1,43
 581 899 581 899 566.5 917.5 c 128,-1,44
 552 936 552 936 537.5 946.5 c 128,-1,45
 523 957 523 957 506 964 c 1,46,-1
 514 985 l 1,47,48
 545 974 545 974 566 974 c 0,49,50
 586 974 586 974 609 980 c 0,51,52
 705 1008 705 1008 840 1024 c 128,-1,53
 975 1040 975 1040 1081 1040 c 0,54,55
 1270 1040 1270 1040 1365 1023 c 1,56,57
 1670 965 1670 965 1671 715 c 1,58,-1
 1671 530 l 2,59,60
 1671 461 1671 461 1677.5 413 c 128,-1,61
 1684 365 1684 365 1694.5 342.5 c 128,-1,62
 1705 320 1705 320 1718 320 c 0,63,64
 1782 320 1782 320 1829 387 c 128,-1,65
 1876 454 1876 454 1876 570 c 0,66,67
 1876 731 1876 731 1832.5 866 c 128,-1,68
 1789 1001 1789 1001 1715 1093 c 128,-1,69
 1641 1185 1641 1185 1541.5 1249.5 c 128,-1,70
 1442 1314 1442 1314 1330.5 1343.5 c 128,-1,71
 1219 1373 1219 1373 1100 1373 c 0,72,73
 977 1373 977 1373 859 1339.5 c 128,-1,74
 741 1306 741 1306 636 1237.5 c 128,-1,75
 531 1169 531 1169 451.5 1073.5 c 128,-1,76
 372 978 372 978 326 843.5 c 128,-1,77
 280 709 280 709 280 554 c 0,78,79
 280 419 280 419 323.5 299.5 c 128,-1,80
 367 180 367 180 443.5 90.5 c 128,-1,81
 520 1 520 1 621.5 -64 c 128,-1,82
 723 -129 723 -129 842.5 -162.5 c 128,-1,83
 962 -196 962 -196 1087 -196 c 0,84,85
 1396 -196 1396 -196 1644 -6 c 1,86,-1
 1757 -153 l 1,87,88
 1454 -374 1454 -374 1086 -374 c 0,89,90
 931 -374 931 -374 784.5 -333 c 128,-1,91
 638 -292 638 -292 513.5 -211 c 128,-1,92
 389 -130 389 -130 295 -19.5 c 128,-1,93
 201 91 201 91 148 239 c 128,-1,94
 95 387 95 387 95 554 c 0,95,96
 95 713 95 713 134.5 854 c 128,-1,97
 174 995 174 995 244.5 1103 c 128,-1,98
 315 1211 315 1211 410.5 1297.5 c 128,-1,99
 506 1384 506 1384 618 1439 c 128,-1,100
 730 1494 730 1494 852 1523 c 128,-1,101
 974 1552 974 1552 1100 1552 c 0,102,103
 1247 1552 1247 1552 1385 1515.5 c 128,-1,104
 1523 1479 1523 1479 1646.5 1400.5 c 128,-1,105
 1770 1322 1770 1322 1861.5 1209 c 128,-1,106
 1953 1096 1953 1096 2007 931.5 c 128,-1,107
 2061 767 2061 767 2061 570 c 0,0,1
1134 537 m 0,108,109
 853 537 853 537 853 423 c 0,110,111
 853 330 853 330 1014 330 c 0,112,113
 1097 330 1097 330 1165 357.5 c 128,-1,114
 1233 385 1233 385 1260 450 c 0,115,116
 1285 509 1285 509 1329 538 c 1,117,-1
 1317 561 l 1,118,119
 1277 535 1277 535 1218 535 c 0,120,121
 1207 535 1207 535 1179 536 c 128,-1,122
 1151 537 1151 537 1134 537 c 0,108,109
EndSplineSet
EndChar

StartChar: A
Encoding: 65 65 37
Width: 1768
GlyphClass: 2
Flags: W
LayerCount: 2
Fore
SplineSet
1462 -334 m 0,0,1
 1462 -350 1462 -350 1453.5 -358.5 c 128,-1,2
 1445 -367 1445 -367 1434 -367 c 128,-1,3
 1423 -367 1423 -367 1415 -357.5 c 128,-1,4
 1407 -348 1407 -348 1407 -331 c 0,5,6
 1407 -262 1407 -262 1433 -158 c 1,7,8
 1462 -278 1462 -278 1462 -334 c 0,0,1
758 429 m 2,9,-1
 949 429 l 2,10,11
 1009 429 1009 429 1057 397 c 1,12,-1
 1070 416 l 1,13,14
 1023 448 1023 448 1002 505 c 1,15,-1
 875 830 l 2,16,17
 853 887 853 887 852 946 c 1,18,-1
 839 946 l 1,19,20
 837 880 837 880 819 830 c 2,21,-1
 704 506 l 2,22,23
 683 448 683 448 637 416 c 1,24,-1
 650 396 l 1,25,26
 697 429 697 429 758 429 c 2,9,-1
1460 -31 m 0,27,28
 1460 -47 1460 -47 1452 -55.5 c 128,-1,29
 1444 -64 1444 -64 1433 -64 c 0,30,31
 1421 -64 1421 -64 1411.5 -54.5 c 128,-1,32
 1402 -45 1402 -45 1402 -29 c 0,33,34
 1402 -10 1402 -10 1404 0 c 1,35,-1
 1283 0 l 2,36,37
 1270 0 1270 0 1263 -1.5 c 128,-1,38
 1256 -3 1256 -3 1244 -14.5 c 128,-1,39
 1232 -26 1232 -26 1226 -48 c 128,-1,40
 1220 -70 1220 -70 1215 -114.5 c 128,-1,41
 1210 -159 1210 -159 1210 -223 c 0,42,43
 1210 -260 1210 -260 1220 -323 c 128,-1,44
 1230 -386 1230 -386 1230 -406 c 0,45,46
 1230 -433 1230 -433 1218.5 -447.5 c 128,-1,47
 1207 -462 1207 -462 1190 -462 c 128,-1,48
 1173 -462 1173 -462 1161 -448 c 128,-1,49
 1149 -434 1149 -434 1149 -410 c 0,50,51
 1149 -384 1149 -384 1161.5 -312 c 128,-1,52
 1174 -240 1174 -240 1174 -204 c 2,53,-1
 1174 77 l 1,54,55
 1164 104 1164 104 1164 122 c 0,56,57
 1164 150 1164 150 1182 176 c 1,58,-1
 1156 195 l 1,59,60
 1126 152 1126 152 1066 152 c 2,61,-1
 655 152 l 2,62,63
 595 152 595 152 565 194 c 1,64,-1
 539 176 l 1,65,66
 558 149 558 149 558 119 c 0,67,68
 558 103 558 103 551 77 c 1,69,-1
 551 76 l 1,70,71
 542 42 542 42 542 33 c 0,72,73
 542 6 542 6 562 -23 c 1,74,-1
 536 -42 l 1,75,76
 506 0 506 0 446 0 c 2,77,-1
 84 0 l 1,78,79
 81 -19 81 -19 81 -64 c 0,80,81
 81 -90 81 -90 82.5 -144 c 128,-1,82
 84 -198 84 -198 84 -223 c 0,83,84
 84 -271 84 -271 69 -295.5 c 128,-1,85
 54 -320 54 -320 33 -320 c 0,86,87
 -9 -320 -9 -320 -9 -230 c 0,88,89
 -9 -158 -9 -158 11 -59.5 c 128,-1,90
 31 39 31 39 46 76 c 2,91,-1
 526 1257 l 2,92,93
 536 1283 536 1283 536 1306 c 0,94,95
 536 1333 536 1333 519 1357 c 1,96,-1
 547 1375 l 1,97,98
 576 1332 576 1332 637 1332 c 2,99,-1
 1097 1332 l 2,100,101
 1157 1332 1157 1332 1186 1375 c 1,102,-1
 1215 1357 l 1,103,104
 1198 1333 1198 1333 1198 1307 c 0,105,106
 1198 1289 1198 1289 1210 1258 c 2,107,-1
 1704 75 l 2,108,109
 1727 19 1727 19 1775 -13 c 1,110,-1
 1763 -32 l 1,111,112
 1714 0 1714 0 1654 0 c 2,113,-1
 1458 0 l 1,114,115
 1460 -22 1460 -22 1460 -31 c 0,27,28
EndSplineSet
EndChar

StartChar: B
Encoding: 66 66 38
Width: 1979
GlyphClass: 2
Flags: W
LayerCount: 2
Fore
SplineSet
327 -844 m 0,0,1
 294 -844 294 -844 294 -795 c 0,2,3
 294 -774 294 -774 297.5 -748.5 c 128,-1,4
 301 -723 301 -723 305 -706 c 128,-1,5
 309 -689 309 -689 317 -659 c 128,-1,6
 325 -629 325 -629 328 -616 c 1,7,8
 331 -631 331 -631 341.5 -671.5 c 128,-1,9
 352 -712 352 -712 357 -740.5 c 128,-1,10
 362 -769 362 -769 362 -797 c 0,11,12
 362 -816 362 -816 353.5 -830 c 128,-1,13
 345 -844 345 -844 327 -844 c 0,0,1
1133 995 m 2,14,-1
 772 994 l 2,15,16
 717 994 717 994 677 1032 c 1,17,-1
 658 1012 l 1,18,19
 697 973 697 973 697 918 c 0,20,21
 697 861 697 861 658 820 c 1,22,-1
 677 801 l 1,23,24
 721 844 721 844 849 844 c 0,25,26
 888 844 888 844 966.5 839 c 128,-1,27
 1045 834 1045 834 1083 834 c 0,28,29
 1115 834 1115 834 1139 836.5 c 128,-1,30
 1163 839 1163 839 1191.5 847.5 c 128,-1,31
 1220 856 1220 856 1236 877 c 128,-1,32
 1252 898 1252 898 1252 929 c 0,33,34
 1252 953 1252 953 1229.5 969 c 128,-1,35
 1207 985 1207 985 1182 990 c 128,-1,36
 1157 995 1157 995 1133 995 c 2,14,-1
691 419 m 0,37,38
 691 356 691 356 652 317 c 1,39,-1
 672 296 l 1,40,41
 712 336 712 336 772 336 c 2,42,-1
 1165 336 l 2,43,44
 1172 336 1172 336 1195 335.5 c 128,-1,45
 1218 335 1218 335 1227.5 335.5 c 128,-1,46
 1237 336 1237 336 1256.5 338 c 128,-1,47
 1276 340 1276 340 1285.5 345.5 c 128,-1,48
 1295 351 1295 351 1306.5 359.5 c 128,-1,49
 1318 368 1318 368 1322.5 383.5 c 128,-1,50
 1327 399 1327 399 1327 419 c 0,51,52
 1327 461 1327 461 1292 482 c 128,-1,53
 1257 503 1257 503 1212 503 c 2,54,-1
 772 500 l 2,55,56
 711 500 711 500 672 539 c 1,57,-1
 652 519 l 1,58,59
 691 480 691 480 691 419 c 0,37,38
144 -402 m 0,60,61
 144 -351 144 -351 160 -249.5 c 128,-1,62
 176 -148 176 -148 176 -97 c 2,63,-1
 177 1251 l 2,64,65
 177 1313 177 1313 138 1351 c 1,66,-1
 158 1372 l 1,67,68
 200 1332 200 1332 258 1332 c 2,69,-1
 1104 1332 l 2,70,71
 1119 1332 1119 1332 1150 1332 c 1,72,73
 1195 1334 1195 1334 1247 1332 c 128,-1,74
 1299 1330 1299 1330 1353.5 1328.5 c 128,-1,75
 1408 1327 1408 1327 1462.5 1318 c 128,-1,76
 1517 1309 1517 1309 1567 1296.5 c 128,-1,77
 1617 1284 1617 1284 1660 1260 c 128,-1,78
 1703 1236 1703 1236 1735 1205.5 c 128,-1,79
 1767 1175 1767 1175 1785.5 1129 c 128,-1,80
 1804 1083 1804 1083 1804 1027 c 0,81,82
 1804 936 1804 936 1757 860.5 c 128,-1,83
 1710 785 1710 785 1625 778 c 1,84,-1
 1627 758 l 1,85,86
 1686 763 1686 763 1737 730.5 c 128,-1,87
 1788 698 1788 698 1819.5 644.5 c 128,-1,88
 1851 591 1851 591 1869 531 c 128,-1,89
 1887 471 1887 471 1887 417 c 0,90,91
 1887 334 1887 334 1858.5 267 c 128,-1,92
 1830 200 1830 200 1779 156 c 128,-1,93
 1728 112 1728 112 1666 80 c 128,-1,94
 1604 48 1604 48 1528 31.5 c 128,-1,95
 1452 15 1452 15 1383 7.5 c 128,-1,96
 1314 0 1314 0 1240 0 c 2,97,-1
 305 0 l 1,98,99
 305 -31 305 -31 316 -92 c 128,-1,100
 327 -153 327 -153 327 -183 c 0,101,102
 327 -244 327 -244 284 -244 c 0,103,104
 242 -244 242 -244 242 -184 c 0,105,106
 242 -156 242 -156 254 -101 c 128,-1,107
 266 -46 266 -46 266 -19 c 0,108,109
 266 38 266 38 242 38 c 0,110,111
 223 38 223 38 214 8.5 c 128,-1,112
 205 -21 205 -21 205 -46 c 0,113,114
 205 -106 205 -106 219.5 -226.5 c 128,-1,115
 234 -347 234 -347 234 -408 c 0,116,117
 234 -466 234 -466 191 -466 c 0,118,119
 144 -466 144 -466 144 -402 c 0,60,61
EndSplineSet
EndChar

StartChar: C
Encoding: 67 67 39
Width: 1951
GlyphClass: 2
Flags: W
LayerCount: 2
Fore
SplineSet
712 -24 m 1,0,1
 407 19 407 19 242.5 196 c 128,-1,2
 78 373 78 373 78 679 c 0,3,4
 78 793 78 793 104.5 888.5 c 128,-1,5
 131 984 131 984 177.5 1054.5 c 128,-1,6
 224 1125 224 1125 291.5 1180.5 c 128,-1,7
 359 1236 359 1236 437 1272 c 128,-1,8
 515 1308 515 1308 608 1331.5 c 128,-1,9
 701 1355 701 1355 795 1365 c 128,-1,10
 889 1375 889 1375 993 1375 c 0,11,12
 1738 1375 1738 1375 1826 947 c 0,13,14
 1838 885 1838 885 1879 852 c 1,15,-1
 1862 830 l 1,16,17
 1814 866 1814 866 1758 861 c 1,18,-1
 1373 837 l 2,19,20
 1306 832 1306 832 1286 788 c 1,21,-1
 1253 804 l 1,22,23
 1263 826 1263 826 1263 842 c 0,24,25
 1263 894 1263 894 1228.5 932.5 c 128,-1,26
 1194 971 1194 971 1141 990 c 128,-1,27
 1088 1009 1088 1009 1037.5 1018 c 128,-1,28
 987 1027 987 1027 941 1027 c 0,29,30
 793 1027 793 1027 710.5 926.5 c 128,-1,31
 628 826 628 826 628 676 c 0,32,33
 628 505 628 505 721.5 403.5 c 128,-1,34
 815 302 815 302 984 302 c 0,35,36
 1038 302 1038 302 1104.5 328.5 c 128,-1,37
 1171 355 1171 355 1222.5 405 c 128,-1,38
 1274 455 1274 455 1274 511 c 0,39,40
 1274 527 1274 527 1263 551 c 1,41,-1
 1296 568 l 1,42,43
 1320 523 1320 523 1383 518 c 0,44,45
 1427 515 1427 515 1512 507.5 c 128,-1,46
 1597 500 1597 500 1666 495.5 c 128,-1,47
 1735 491 1735 491 1795 491 c 0,48,49
 1845 491 1845 491 1887 522 c 1,50,-1
 1903 501 l 1,51,52
 1866 473 1866 473 1849 407 c 1,53,54
 1829 322 1829 322 1776 252.5 c 128,-1,55
 1723 183 1723 183 1656.5 137.5 c 128,-1,56
 1590 92 1590 92 1502.5 57.5 c 128,-1,57
 1415 23 1415 23 1336.5 4 c 128,-1,58
 1258 -15 1258 -15 1171 -27 c 1,59,60
 1171 -119 1171 -119 1195 -300 c 128,-1,61
 1219 -481 1219 -481 1219 -572 c 0,62,63
 1219 -601 1219 -601 1204.5 -625 c 128,-1,64
 1190 -649 1190 -649 1162 -649 c 128,-1,65
 1134 -649 1134 -649 1119 -625 c 128,-1,66
 1104 -601 1104 -601 1104 -572 c 0,67,68
 1104 -496 1104 -496 1120.5 -345 c 128,-1,69
 1137 -194 1137 -194 1137 -119 c 0,70,71
 1137 -92 1137 -92 1132 -74 c 128,-1,72
 1127 -56 1127 -56 1120 -46.5 c 128,-1,73
 1113 -37 1113 -37 1096 -32.5 c 128,-1,74
 1079 -28 1079 -28 1066 -27.5 c 128,-1,75
 1053 -27 1053 -27 1024 -27 c 0,76,77
 1018 -27 1018 -27 1015 -27 c 0,78,79
 997 -27 997 -27 972.5 -29 c 128,-1,80
 948 -31 948 -31 920 -40.5 c 128,-1,81
 892 -50 892 -50 892 -64 c 0,82,83
 892 -110 892 -110 904 -200 c 128,-1,84
 916 -290 916 -290 916 -336 c 0,85,86
 916 -401 916 -401 878 -401 c 0,87,88
 858 -401 858 -401 849 -380.5 c 128,-1,89
 840 -360 840 -360 840 -338 c 0,90,91
 840 -291 840 -291 853.5 -200 c 128,-1,92
 867 -109 867 -109 867 -62 c 0,93,94
 867 -49 867 -49 860.5 -39.5 c 128,-1,95
 854 -30 854 -30 841 -30 c 0,96,97
 832 -30 832 -30 820 -31 c 128,-1,98
 808 -32 808 -32 792.5 -35 c 128,-1,99
 777 -38 777 -38 766 -45 c 128,-1,100
 755 -52 755 -52 755 -61 c 0,101,102
 755 -133 755 -133 760.5 -277.5 c 128,-1,103
 766 -422 766 -422 766 -494 c 0,104,105
 766 -511 766 -511 755 -524.5 c 128,-1,106
 744 -538 744 -538 728 -538 c 128,-1,107
 712 -538 712 -538 702.5 -526.5 c 128,-1,108
 693 -515 693 -515 693 -499 c 0,109,110
 693 -413 693 -413 702 -253 c 128,-1,111
 711 -93 711 -93 712 -24 c 1,0,1
EndSplineSet
EndChar

StartChar: D
Encoding: 68 68 40
Width: 1968
GlyphClass: 2
Flags: W
LayerCount: 2
Fore
SplineSet
719 -647 m 0,0,1
 685 -647 685 -647 685 -600 c 0,2,3
 685 -572 685 -572 689.5 -544 c 128,-1,4
 694 -516 694 -516 705 -472.5 c 128,-1,5
 716 -429 716 -429 718 -418 c 1,6,7
 721 -431 721 -431 729 -461.5 c 128,-1,8
 737 -492 737 -492 741 -509 c 128,-1,9
 745 -526 745 -526 748.5 -551.5 c 128,-1,10
 752 -577 752 -577 752 -598 c 0,11,12
 752 -647 752 -647 719 -647 c 0,0,1
1326 698 m 0,13,14
 1326 787 1326 787 1296 847 c 128,-1,15
 1266 907 1266 907 1216 935 c 128,-1,16
 1166 963 1166 963 1105 976.5 c 128,-1,17
 1044 990 1044 990 977 991.5 c 128,-1,18
 910 993 910 993 851.5 994 c 128,-1,19
 793 995 793 995 743 1004 c 128,-1,20
 693 1013 693 1013 670 1036 c 1,21,-1
 650 1016 l 1,22,23
 688 979 688 979 688 916 c 2,24,-1
 688 686 l 2,25,26
 688 456 688 456 690 342 c 1,27,-1
 917 342 l 2,28,29
 1005 342 1005 342 1065.5 350 c 128,-1,30
 1126 358 1126 358 1178.5 380 c 128,-1,31
 1231 402 1231 402 1261.5 441.5 c 128,-1,32
 1292 481 1292 481 1309 544.5 c 128,-1,33
 1326 608 1326 608 1326 698 c 0,13,14
709 -105 m 0,34,35
 709 42 709 42 395 42 c 0,36,37
 341 42 341 42 320 17 c 128,-1,38
 299 -8 299 -8 299 -76 c 0,39,40
 299 -128 299 -128 317 -234.5 c 128,-1,41
 335 -341 335 -341 335 -392 c 0,42,43
 335 -454 335 -454 288 -454 c 0,44,45
 245 -454 245 -454 245 -396 c 0,46,47
 245 -335 245 -335 259 -215 c 128,-1,48
 273 -95 273 -95 273 -35 c 0,49,50
 273 -10 273 -10 264 20 c 128,-1,51
 255 50 255 50 236 50 c 0,52,53
 212 50 212 50 212 -7 c 0,54,55
 212 -34 212 -34 224 -89.5 c 128,-1,56
 236 -145 236 -145 236 -173 c 0,57,58
 236 -232 236 -232 194 -232 c 0,59,60
 151 -232 151 -232 151 -172 c 0,61,62
 151 -142 151 -142 162.5 -80.5 c 128,-1,63
 174 -19 174 -19 174 12 c 0,64,65
 174 24 174 24 173.5 90 c 128,-1,66
 173 156 173 156 173 178 c 2,67,-1
 173 1251 l 2,68,69
 173 1313 173 1313 134 1351 c 1,70,-1
 154 1372 l 1,71,72
 195 1332 195 1332 254 1332 c 2,73,-1
 1080 1332 l 2,74,75
 1213 1332 1213 1332 1326 1312 c 128,-1,76
 1439 1292 1439 1292 1539.5 1244.5 c 128,-1,77
 1640 1197 1640 1197 1710.5 1125 c 128,-1,78
 1781 1053 1781 1053 1821.5 943 c 128,-1,79
 1862 833 1862 833 1862 693 c 0,80,81
 1862 584 1862 584 1846.5 494.5 c 128,-1,82
 1831 405 1831 405 1807 337.5 c 128,-1,83
 1783 270 1783 270 1739.5 218 c 128,-1,84
 1696 166 1696 166 1652.5 130.5 c 128,-1,85
 1609 95 1609 95 1542 70 c 128,-1,86
 1475 45 1475 45 1418 31.5 c 128,-1,87
 1361 18 1361 18 1275 11 c 128,-1,88
 1189 4 1189 4 1123 2 c 128,-1,89
 1057 0 1057 0 958 0 c 2,90,-1
 813 0 l 2,91,92
 784 0 784 0 765 -15 c 128,-1,93
 746 -30 746 -30 739 -55 c 128,-1,94
 732 -80 732 -80 730.5 -93 c 128,-1,95
 729 -106 729 -106 729 -120 c 0,96,97
 729 -142 729 -142 737 -184 c 128,-1,98
 745 -226 745 -226 745 -248 c 0,99,100
 745 -286 745 -286 719 -286 c 0,101,102
 688 -286 688 -286 688 -247 c 0,103,104
 688 -223 688 -223 698.5 -176 c 128,-1,105
 709 -129 709 -129 709 -105 c 0,34,35
EndSplineSet
EndChar

StartChar: E
Encoding: 69 69 41
Width: 1792
GlyphClass: 2
Flags: W
LayerCount: 2
Fore
SplineSet
762 338 m 2,0,-1
 1578 337 l 2,1,2
 1639 337 1639 337 1677 376 c 1,3,-1
 1697 356 l 1,4,5
 1641 253 1641 253 1641 -17 c 0,6,7
 1641 -59 1641 -59 1659.5 -179.5 c 128,-1,8
 1678 -300 1678 -300 1678 -347 c 0,9,10
 1678 -379 1678 -379 1665 -398 c 128,-1,11
 1652 -417 1652 -417 1634 -417 c 128,-1,12
 1616 -417 1616 -417 1602.5 -396 c 128,-1,13
 1589 -375 1589 -375 1589 -338 c 0,14,15
 1589 -306 1589 -306 1597 -229.5 c 128,-1,16
 1605 -153 1605 -153 1605 -117 c 0,17,18
 1605 -29 1605 -29 1574 15.5 c 128,-1,19
 1543 60 1543 60 1490 60 c 0,20,21
 1371 60 1371 60 1371 -119 c 0,22,23
 1371 -188 1371 -188 1391.5 -319 c 128,-1,24
 1412 -450 1412 -450 1412 -486 c 0,25,26
 1412 -516 1412 -516 1397 -533.5 c 128,-1,27
 1382 -551 1382 -551 1362 -551 c 0,28,29
 1343 -551 1343 -551 1328.5 -534.5 c 128,-1,30
 1314 -518 1314 -518 1314 -490 c 0,31,32
 1314 -449 1314 -449 1323 -337 c 128,-1,33
 1332 -225 1332 -225 1332 -171 c 0,34,35
 1332 4 1332 4 1257 4 c 0,36,37
 1247 4 1247 4 1222 3 c 128,-1,38
 1197 2 1197 2 1181 2 c 2,39,-1
 395 2 l 2,40,41
 347 2 347 2 316 -6.5 c 128,-1,42
 285 -15 285 -15 264.5 -32 c 128,-1,43
 244 -49 244 -49 233.5 -82 c 128,-1,44
 223 -115 223 -115 219.5 -154.5 c 128,-1,45
 216 -194 216 -194 216 -258 c 0,46,47
 216 -333 216 -333 239 -479.5 c 128,-1,48
 262 -626 262 -626 262 -700 c 0,49,50
 262 -807 262 -807 186 -807 c 0,51,52
 104 -807 104 -807 104 -697 c 0,53,54
 104 -622 104 -622 137 -475 c 128,-1,55
 170 -328 170 -328 170 -252 c 0,56,57
 170 -196 170 -196 167.5 -84.5 c 128,-1,58
 165 27 165 27 165 83 c 2,59,-1
 165 1249 l 2,60,61
 165 1311 165 1311 127 1348 c 1,62,-1
 147 1369 l 1,63,64
 188 1330 188 1330 247 1330 c 2,65,-1
 1531 1330 l 2,66,67
 1592 1330 1592 1330 1631 1369 c 1,68,-1
 1651 1348 l 1,69,70
 1644 1341 1644 1341 1638 1331.5 c 128,-1,71
 1632 1322 1632 1322 1628 1314 c 128,-1,72
 1624 1306 1624 1306 1620.5 1292.5 c 128,-1,73
 1617 1279 1617 1279 1615 1271 c 128,-1,74
 1613 1263 1613 1263 1611 1246.5 c 128,-1,75
 1609 1230 1609 1230 1608.5 1223.5 c 128,-1,76
 1608 1217 1608 1217 1607.5 1198.5 c 128,-1,77
 1607 1180 1607 1180 1607 1175.5 c 128,-1,78
 1607 1171 1607 1171 1607 1152 c 128,-1,79
 1607 1133 1607 1133 1607 1131 c 0,80,81
 1607 1018 1607 1018 1651 976 c 1,82,-1
 1631 957 l 1,83,84
 1581 1008 1581 1008 1396 1008 c 0,85,86
 1313 1008 1313 1008 1147.5 996.5 c 128,-1,87
 982 985 982 985 899 985 c 0,88,89
 715 985 715 985 665 1036 c 1,90,-1
 644 1016 l 1,91,92
 683 978 683 978 683 917 c 0,93,94
 683 853 683 853 644 815 c 1,95,-1
 665 796 l 1,96,97
 713 846 713 846 867 846 c 0,98,99
 937 846 937 846 1076.5 834.5 c 128,-1,100
 1216 823 1216 823 1286 823 c 0,101,102
 1441 823 1441 823 1491 873 c 1,103,-1
 1512 853 l 1,104,105
 1468 809 1468 809 1468 669 c 0,106,107
 1468 667 1468 667 1468 650.5 c 128,-1,108
 1468 634 1468 634 1468 630.5 c 128,-1,109
 1468 627 1468 627 1468.5 611 c 128,-1,110
 1469 595 1469 595 1469.5 589.5 c 128,-1,111
 1470 584 1470 584 1472 570 c 128,-1,112
 1474 556 1474 556 1476 549.5 c 128,-1,113
 1478 543 1478 543 1481.5 531 c 128,-1,114
 1485 519 1485 519 1489 511.5 c 128,-1,115
 1493 504 1493 504 1499 495 c 128,-1,116
 1505 486 1505 486 1512 479 c 1,117,-1
 1491 458 l 1,118,119
 1443 508 1443 508 1288 508 c 0,120,121
 1218 508 1218 508 1078.5 497 c 128,-1,122
 939 486 939 486 869 486 c 0,123,124
 715 486 715 486 665 536 c 1,125,-1
 645 516 l 1,126,127
 687 473 687 473 687 366 c 0,128,129
 687 351 687 351 686 325 c 128,-1,130
 685 299 685 299 685 288 c 0,131,132
 685 268 685 268 676.5 228 c 128,-1,133
 668 188 668 188 668 168 c 0,134,135
 668 132 668 132 695 132 c 0,136,137
 721 132 721 132 721 166 c 0,138,139
 721 186 721 186 713 228 c 128,-1,140
 705 270 705 270 705 290 c 2,141,-1
 705 301 l 1,142,143
 726 338 726 338 762 338 c 2,0,-1
EndSplineSet
EndChar

StartChar: F
Encoding: 70 70 42
Width: 1765
GlyphClass: 2
Flags: W
LayerCount: 2
Fore
SplineSet
716 -120 m 0,0,1
 716 -75 716 -75 684 -37.5 c 128,-1,2
 652 0 652 0 608 0 c 0,3,4
 508 0 508 0 508 -243 c 0,5,6
 508 -300 508 -300 523 -414 c 128,-1,7
 538 -528 538 -528 538 -586 c 0,8,9
 538 -612 538 -612 525.5 -632 c 128,-1,10
 513 -652 513 -652 489 -652 c 0,11,12
 464 -652 464 -652 450.5 -630.5 c 128,-1,13
 437 -609 437 -609 437 -583 c 0,14,15
 437 -529 437 -529 454.5 -423 c 128,-1,16
 472 -317 472 -317 472 -263 c 0,17,18
 472 -221 472 -221 466.5 -178.5 c 128,-1,19
 461 -136 461 -136 446.5 -87.5 c 128,-1,20
 432 -39 432 -39 400.5 -9 c 128,-1,21
 369 21 369 21 324 21 c 0,22,23
 270 21 270 21 230.5 -22 c 128,-1,24
 191 -65 191 -65 191 -119 c 0,25,26
 191 -142 191 -142 205 -184 c 128,-1,27
 219 -226 219 -226 219 -249 c 0,28,29
 219 -293 219 -293 187 -293 c 0,30,31
 154 -293 154 -293 154 -249 c 0,32,33
 154 -222 154 -222 166 -169 c 128,-1,34
 178 -116 178 -116 178 -89 c 2,35,-1
 177 1184 l 2,36,37
 177 1302 177 1302 105 1381 c 1,38,-1
 125 1401 l 1,39,40
 205 1330 205 1330 322 1330 c 2,41,-1
 1476 1330 l 2,42,43
 1593 1330 1593 1330 1673 1401 c 1,44,-1
 1693 1381 l 1,45,46
 1622 1301 1622 1301 1622 1184 c 0,47,48
 1622 1101 1622 1101 1635 1046 c 128,-1,49
 1648 991 1648 991 1693 940 c 1,50,-1
 1673 920 l 1,51,52
 1649 952 1649 952 1614 971.5 c 128,-1,53
 1579 991 1579 991 1541 991 c 2,54,-1
 782 991 l 2,55,56
 726 991 726 991 686 1029 c 1,57,-1
 667 1010 l 1,58,59
 705 970 705 970 705 914 c 0,60,61
 705 856 705 856 667 816 c 1,62,-1
 686 797 l 1,63,64
 719 829 719 829 765.5 838 c 128,-1,65
 812 847 812 847 876 847 c 128,-1,66
 940 847 940 847 1066 836.5 c 128,-1,67
 1192 826 1192 826 1256 826 c 0,68,69
 1349 826 1349 826 1420.5 842 c 128,-1,70
 1492 858 1492 858 1543 907 c 1,71,-1
 1563 887 l 1,72,73
 1488 805 1488 805 1488 640 c 0,74,75
 1488 515 1488 515 1557 443 c 1,76,-1
 1536 423 l 1,77,78
 1445 504 1445 504 1242 504 c 0,79,80
 1180 504 1180 504 1055 493.5 c 128,-1,81
 930 483 930 483 868 483 c 0,82,83
 827 483 827 483 800.5 485 c 128,-1,84
 774 487 774 487 738.5 499 c 128,-1,85
 703 511 703 511 681 533 c 1,86,-1
 662 513 l 1,87,88
 699 475 699 475 699 413 c 0,89,90
 699 379 699 379 695 311 c 128,-1,91
 691 243 691 243 691 209 c 0,92,93
 691 154 691 154 717.5 46.5 c 128,-1,94
 744 -61 744 -61 744 -116 c 0,95,96
 744 -164 744 -164 761 -257 c 128,-1,97
 778 -350 778 -350 778 -398 c 0,98,99
 778 -463 778 -463 730 -463 c 0,100,101
 681 -463 681 -463 681 -399 c 0,102,103
 681 -352 681 -352 698.5 -259.5 c 128,-1,104
 716 -167 716 -167 716 -120 c 0,0,1
EndSplineSet
EndChar

StartChar: G
Encoding: 71 71 43
Width: 1991
GlyphClass: 2
Flags: W
LayerCount: 2
Fore
SplineSet
1132 -44 m 1,0,-1
 1132 -140 l 2,1,2
 1132 -160 1132 -160 1140 -196 c 128,-1,3
 1148 -232 1148 -232 1148 -251 c 0,4,5
 1148 -275 1148 -275 1138 -288 c 128,-1,6
 1128 -301 1128 -301 1115 -301 c 0,7,8
 1103 -301 1103 -301 1093 -289 c 128,-1,9
 1083 -277 1083 -277 1083 -255 c 0,10,11
 1083 -254 1083 -254 1087 -233.5 c 128,-1,12
 1091 -213 1091 -213 1095 -186 c 128,-1,13
 1099 -159 1099 -159 1099 -142 c 0,14,15
 1099 -44 1099 -44 1090 -44 c 0,16,17
 894 -44 894 -44 678 -17 c 0,18,19
 675 -16 675 -16 673 -33.5 c 128,-1,20
 671 -51 671 -51 670 -88 c 128,-1,21
 669 -125 669 -125 669 -175 c 0,22,23
 669 -234 669 -234 687.5 -351 c 128,-1,24
 706 -468 706 -468 706 -527 c 0,25,26
 706 -559 706 -559 692 -583 c 128,-1,27
 678 -607 678 -607 649 -607 c 0,28,29
 622 -607 622 -607 602.5 -586 c 128,-1,30
 583 -565 583 -565 583 -538 c 0,31,32
 583 -472 583 -472 616 -352.5 c 128,-1,33
 649 -233 649 -233 649 -166 c 2,34,-1
 649 -10 l 1,35,36
 360 55 360 55 219 230.5 c 128,-1,37
 78 406 78 406 78 679 c 0,38,39
 78 828 78 828 122.5 947 c 128,-1,40
 167 1066 167 1066 244 1145 c 128,-1,41
 321 1224 321 1224 429.5 1276.5 c 128,-1,42
 538 1329 538 1329 661 1352 c 128,-1,43
 784 1375 784 1375 926 1375 c 0,44,45
 1095 1375 1095 1375 1238 1350 c 128,-1,46
 1381 1325 1381 1325 1479.5 1284.5 c 128,-1,47
 1578 1244 1578 1244 1652.5 1189.5 c 128,-1,48
 1727 1135 1727 1135 1768 1078.5 c 128,-1,49
 1809 1022 1809 1022 1827 962 c 128,-1,50
 1845 902 1845 902 1891 870 c 1,51,-1
 1876 850 l 1,52,53
 1835 880 1835 880 1768 880 c 1,54,-1
 1346 866 l 2,55,56
 1313 864 1313 864 1293.5 854 c 128,-1,57
 1274 844 1274 844 1261 818 c 1,58,-1
 1228 834 l 1,59,60
 1236 851 1236 851 1236 870 c 0,61,62
 1236 895 1236 895 1210 931 c 1,63,64
 1168 986 1168 986 1108.5 1009.5 c 128,-1,65
 1049 1033 1049 1033 934 1033 c 0,66,67
 854 1033 854 1033 793 1005 c 128,-1,68
 732 977 732 977 696.5 927.5 c 128,-1,69
 661 878 661 878 643.5 817.5 c 128,-1,70
 626 757 626 757 626 685 c 0,71,72
 626 503 626 503 730.5 397.5 c 128,-1,73
 835 292 835 292 1019 292 c 0,74,75
 1173 292 1173 292 1261 314 c 0,76,77
 1277 318 1277 318 1284 318 c 0,78,79
 1307 318 1307 318 1338 294 c 1,80,-1
 1350 310 l 1,81,82
 1327 328 1327 328 1319.5 343 c 128,-1,83
 1312 358 1312 358 1312 380 c 2,84,-1
 1312 388 l 2,85,86
 1312 428 1312 428 1348 464 c 1,87,-1
 1334 477 l 1,88,89
 1298 441 1298 441 1259 441 c 2,90,-1
 1162 441 l 2,91,92
 1101 441 1101 441 1062 402 c 1,93,-1
 1041 423 l 1,94,95
 1081 463 1081 463 1081 522 c 2,96,-1
 1081 670 l 2,97,98
 1081 730 1081 730 1041 770 c 1,99,-1
 1062 790 l 1,100,101
 1100 752 1100 752 1162 752 c 2,102,-1
 1776 752 l 2,103,104
 1838 752 1838 752 1876 790 c 1,105,-1
 1895 770 l 1,106,107
 1857 732 1857 732 1857 670 c 2,108,-1
 1857 251 l 2,109,110
 1857 220 1857 220 1865.5 201.5 c 128,-1,111
 1874 183 1874 183 1900 169 c 1,112,-1
 1884 140 l 1,113,114
 1866 149 1866 149 1845 149 c 0,115,116
 1821 149 1821 149 1792 130 c 0,117,118
 1560 -25 1560 -25 1132 -44 c 1,0,-1
EndSplineSet
EndChar

StartChar: H
Encoding: 72 72 44
Width: 1960
GlyphClass: 2
Flags: W
LayerCount: 2
Fore
SplineSet
1699 0 m 2,0,-1
 1346 0 l 2,1,2
 1285 0 1285 0 1246 -39 c 1,3,-1
 1226 -19 l 1,4,5
 1264 19 1264 19 1264 81 c 2,6,-1
 1262 417 l 2,7,8
 1262 477 1262 477 1300 516 c 1,9,-1
 1280 536 l 1,10,11
 1242 498 1242 498 1180 498 c 2,12,-1
 770 498 l 2,13,14
 709 498 709 498 670 536 c 1,15,-1
 650 516 l 1,16,17
 652 493 652 493 652 274 c 2,18,-1
 652 -177 l 2,19,20
 652 -268 652 -268 675 -435 c 128,-1,21
 698 -602 698 -602 698 -693 c 0,22,23
 698 -740 698 -740 681.5 -765 c 128,-1,24
 665 -790 665 -790 642 -790 c 128,-1,25
 619 -790 619 -790 602.5 -765.5 c 128,-1,26
 586 -741 586 -741 586 -697 c 0,27,28
 586 -690 586 -690 596 -597.5 c 128,-1,29
 606 -505 606 -505 616 -382.5 c 128,-1,30
 626 -260 626 -260 626 -180 c 0,31,32
 626 -111 626 -111 583.5 -59.5 c 128,-1,33
 541 -8 541 -8 481.5 15.5 c 128,-1,34
 422 39 422 39 359 39 c 0,35,36
 286 39 286 39 236.5 5 c 128,-1,37
 187 -29 187 -29 187 -91 c 0,38,39
 187 -150 187 -150 206.5 -267 c 128,-1,40
 226 -384 226 -384 226 -443 c 0,41,42
 226 -474 226 -474 212 -498 c 128,-1,43
 198 -522 198 -522 168 -522 c 0,44,45
 141 -522 141 -522 122 -501.5 c 128,-1,46
 103 -481 103 -481 103 -454 c 0,47,48
 103 -388 103 -388 135.5 -268 c 128,-1,49
 168 -148 168 -148 168 -81 c 2,50,-1
 168 1251 l 2,51,52
 168 1314 168 1314 130 1351 c 1,53,-1
 149 1372 l 1,54,55
 190 1332 190 1332 249 1332 c 2,56,-1
 608 1332 l 2,57,58
 667 1332 667 1332 707 1372 c 1,59,-1
 728 1351 l 1,60,61
 682 1305 682 1305 682 1201 c 0,62,63
 682 1164 682 1164 689.5 1085.5 c 128,-1,64
 697 1007 697 1007 697 971 c 0,65,66
 697 868 697 868 650 821 c 1,67,-1
 670 800 l 1,68,69
 709 839 709 839 770 839 c 2,70,-1
 1184 839 l 2,71,72
 1245 839 1245 839 1283 800 c 1,73,-1
 1304 821 l 1,74,75
 1257 869 1257 869 1257 974 c 0,76,77
 1257 1011 1257 1011 1265 1088.5 c 128,-1,78
 1273 1166 1273 1166 1273 1202 c 0,79,80
 1273 1304 1273 1304 1226 1351 c 1,81,-1
 1246 1372 l 1,82,83
 1287 1332 1287 1332 1346 1332 c 2,84,-1
 1699 1332 l 2,85,86
 1759 1332 1759 1332 1799 1372 c 1,87,-1
 1819 1351 l 1,88,89
 1780 1312 1780 1312 1780 1251 c 2,90,-1
 1780 81 l 2,91,92
 1780 21 1780 21 1819 -19 c 1,93,-1
 1799 -39 l 1,94,95
 1760 0 1760 0 1699 0 c 2,0,-1
EndSplineSet
EndChar

StartChar: I
Encoding: 73 73 45
Width: 882
GlyphClass: 2
Flags: W
LayerCount: 2
Fore
SplineSet
649 -273 m 0,0,1
 649 -235 649 -235 648.5 -211 c 128,-1,2
 648 -187 648 -187 645 -153 c 128,-1,3
 642 -119 642 -119 636 -97.5 c 128,-1,4
 630 -76 630 -76 620 -50 c 128,-1,5
 610 -24 610 -24 594 -8 c 128,-1,6
 578 8 578 8 556 22.5 c 128,-1,7
 534 37 534 37 503 43.5 c 128,-1,8
 472 50 472 50 434 50 c 0,9,10
 334 50 334 50 272.5 -23 c 128,-1,11
 211 -96 211 -96 211 -198 c 0,12,13
 211 -236 211 -236 226 -311.5 c 128,-1,14
 241 -387 241 -387 241 -425 c 0,15,16
 241 -497 241 -497 191 -497 c 0,17,18
 139 -497 139 -497 139 -427 c 0,19,20
 139 -388 139 -388 154.5 -310 c 128,-1,21
 170 -232 170 -232 170 -192 c 0,22,23
 170 -148 170 -148 173.5 -58.5 c 128,-1,24
 177 31 177 31 177 76 c 2,25,-1
 177 1251 l 2,26,27
 177 1313 177 1313 138 1351 c 1,28,-1
 158 1372 l 1,29,30
 200 1332 200 1332 258 1332 c 2,31,-1
 620 1332 l 2,32,33
 680 1332 680 1332 720 1372 c 1,34,-1
 740 1351 l 1,35,36
 701 1312 701 1312 701 1251 c 2,37,-1
 701 81 l 2,38,39
 701 29 701 29 690 -98.5 c 128,-1,40
 679 -226 679 -226 683 -295 c 1,41,-1
 682 -295 l 1,42,43
 719 -461 719 -461 719 -556 c 0,44,45
 719 -635 719 -635 686 -635 c 0,46,47
 669 -635 669 -635 658.5 -626 c 128,-1,48
 648 -617 648 -617 644 -599 c 128,-1,49
 640 -581 640 -581 639 -569.5 c 128,-1,50
 638 -558 638 -558 638 -539 c 0,51,52
 638 -494 638 -494 643.5 -406 c 128,-1,53
 649 -318 649 -318 649 -273 c 0,0,1
EndSplineSet
EndChar

StartChar: J
Encoding: 74 74 46
Width: 1650
GlyphClass: 2
Flags: W
LayerCount: 2
Fore
SplineSet
1192 -814 m 128,-1,1
 1167 -814 1167 -814 1167 -778 c 0,2,3
 1167 -694 1167 -694 1192 -587 c 1,4,5
 1217 -692 1217 -692 1217 -777 c 0,6,0
 1217 -814 1217 -814 1192 -814 c 128,-1,1
1196 22 m 1,7,-1
 1195 22 l 1,8,-1
 1195 -195 l 2,9,10
 1195 -230 1195 -230 1211.5 -298 c 128,-1,11
 1228 -366 1228 -366 1228 -400 c 0,12,13
 1228 -454 1228 -454 1185 -454 c 0,14,15
 1148 -454 1148 -454 1148 -403 c 0,16,17
 1148 -371 1148 -371 1161 -309 c 128,-1,18
 1174 -247 1174 -247 1174 -216 c 0,19,20
 1174 -159 1174 -159 1132 -114.5 c 128,-1,21
 1090 -70 1090 -70 1033.5 -49.5 c 128,-1,22
 977 -29 977 -29 922 -29 c 0,23,24
 887 -29 887 -29 868.5 -54.5 c 128,-1,25
 850 -80 850 -80 850 -117 c 0,26,27
 850 -164 850 -164 868 -254.5 c 128,-1,28
 886 -345 886 -345 886 -392 c 0,29,30
 886 -414 886 -414 876 -435.5 c 128,-1,31
 866 -457 866 -457 846 -457 c 0,32,33
 824 -457 824 -457 814 -433.5 c 128,-1,34
 804 -410 804 -410 804 -385 c 0,35,36
 804 -336 804 -336 816 -240 c 128,-1,37
 828 -144 828 -144 828 -95 c 0,38,39
 828 -62 828 -62 798 -41.5 c 128,-1,40
 768 -21 768 -21 734 -21 c 0,41,42
 690 -21 690 -21 690 -130 c 0,43,44
 690 -156 690 -156 700 -209 c 128,-1,45
 710 -262 710 -262 710 -288 c 0,46,47
 710 -312 710 -312 701.5 -338 c 128,-1,48
 693 -364 693 -364 674 -364 c 0,49,50
 644 -364 644 -364 644 -290 c 0,51,52
 644 -259 644 -259 658 -198.5 c 128,-1,53
 672 -138 672 -138 672 -107 c 0,54,55
 672 -73 672 -73 657 -56.5 c 128,-1,56
 642 -40 642 -40 608 -36 c 1,57,58
 480 -17 480 -17 384 17 c 128,-1,59
 288 51 288 51 233.5 91.5 c 128,-1,60
 179 132 179 132 142 181 c 128,-1,61
 105 230 105 230 92 278 c 128,-1,62
 79 326 79 326 71 375 c 128,-1,63
 63 424 63 424 62 463.5 c 128,-1,64
 61 503 61 503 51 536.5 c 128,-1,65
 41 570 41 570 22 587 c 1,66,-1
 31 597 l 1,67,68
 60 570 60 570 83 570 c 0,69,70
 137 570 137 570 204.5 579 c 128,-1,71
 272 588 272 588 353 602.5 c 128,-1,72
 434 617 434 617 474 622 c 0,73,74
 533 628 533 628 569 673 c 1,75,-1
 591 656 l 1,76,77
 559 616 559 616 559 566 c 0,78,79
 559 514 559 514 569.5 468.5 c 128,-1,80
 580 423 580 423 602.5 383.5 c 128,-1,81
 625 344 625 344 665.5 320.5 c 128,-1,82
 706 297 706 297 760 297 c 0,83,84
 869 297 869 297 926 360 c 128,-1,85
 983 423 983 423 983 532 c 2,86,-1
 984 1251 l 2,87,88
 984 1314 984 1314 946 1351 c 1,89,-1
 966 1372 l 1,90,91
 1006 1332 1006 1332 1066 1332 c 2,92,-1
 1414 1332 l 2,93,94
 1475 1332 1475 1332 1514 1372 c 1,95,-1
 1534 1351 l 1,96,97
 1495 1313 1495 1313 1495 1251 c 2,98,-1
 1495 473 l 2,99,100
 1495 146 1495 146 1196 22 c 1,7,-1
EndSplineSet
EndChar

StartChar: K
Encoding: 75 75 47
Width: 1978
GlyphClass: 2
Flags: W
LayerCount: 2
Fore
SplineSet
754 915 m 2,0,-1
 1131 1276 l 2,1,2
 1154 1298 1154 1298 1159.5 1316 c 128,-1,3
 1165 1334 1165 1334 1156 1364 c 1,4,-1
 1191 1377 l 1,5,6
 1202 1351 1202 1351 1220 1341.5 c 128,-1,7
 1238 1332 1238 1332 1270 1332 c 2,8,-1
 1772 1332 l 2,9,10
 1828 1332 1828 1332 1888 1354 c 1,11,-1
 1893 1340 l 1,12,13
 1837 1319 1837 1319 1792 1279 c 2,14,-1
 1386 926 l 1,15,16
 1342 886 1342 886 1287 893 c 1,17,-1
 1283 862 l 1,18,19
 1337 857 1337 857 1371 806 c 1,20,-1
 1889 67 l 2,21,22
 1923 17 1923 17 1975 -11 c 1,23,-1
 1966 -27 l 1,24,25
 1915 0 1915 0 1854 0 c 2,26,-1
 1371 0 l 2,27,28
 1339 0 1339 0 1320 -9.5 c 128,-1,29
 1301 -19 1301 -19 1287 -45 c 1,30,-1
 1255 -28 l 1,31,32
 1269 1 1269 1 1266 20.5 c 128,-1,33
 1263 40 1263 40 1245 68 c 2,34,-1
 959 490 l 1,35,36
 926 541 926 541 933 596 c 1,37,-1
 906 599 l 1,38,39
 899 545 899 545 851 506 c 1,40,-1
 759 427 l 1,41,42
 733 406 733 406 714.5 402 c 128,-1,43
 696 398 696 398 667 409 c 1,44,-1
 651 376 l 1,45,46
 677 363 677 363 686.5 344.5 c 128,-1,47
 696 326 696 326 696 294 c 2,48,-1
 696 81 l 2,49,50
 696 20 696 20 735 -19 c 1,51,-1
 715 -39 l 1,52,53
 676 0 676 0 615 0 c 2,54,-1
 268 0 l 2,55,56
 207 0 207 0 168 -39 c 1,57,-1
 148 -19 l 1,58,59
 187 20 187 20 187 81 c 2,60,-1
 187 1251 l 2,61,62
 187 1312 187 1312 148 1351 c 1,63,-1
 168 1372 l 1,64,65
 208 1332 208 1332 268 1332 c 2,66,-1
 615 1332 l 2,67,68
 675 1332 675 1332 715 1372 c 1,69,-1
 735 1351 l 1,70,71
 696 1312 696 1312 696 1251 c 2,72,-1
 696 940 l 2,73,74
 696 880 696 880 672 825 c 1,75,-1
 687 819 l 1,76,77
 710 873 710 873 754 915 c 2,0,-1
EndSplineSet
EndChar

StartChar: L
Encoding: 76 76 48
Width: 1672
GlyphClass: 2
Flags: W
LayerCount: 2
Fore
SplineSet
1174 -485 m 128,-1,1
 1140 -485 1140 -485 1140 -436 c 0,2,3
 1140 -417 1140 -417 1144 -391.5 c 128,-1,4
 1148 -366 1148 -366 1151.5 -351 c 128,-1,5
 1155 -336 1155 -336 1164 -302 c 128,-1,6
 1173 -268 1173 -268 1174 -263 c 1,7,8
 1176 -273 1176 -273 1184 -304 c 128,-1,9
 1192 -335 1192 -335 1196 -352 c 128,-1,10
 1200 -369 1200 -369 1204 -394 c 128,-1,11
 1208 -419 1208 -419 1208 -438 c 0,12,0
 1208 -485 1208 -485 1174 -485 c 128,-1,1
673 306 m 1,13,14
 724 357 724 357 896 357 c 0,15,16
 969 357 969 357 1133 345 c 128,-1,17
 1297 333 1297 333 1370 333 c 0,18,19
 1541 333 1541 333 1592 384 c 1,20,-1
 1613 364 l 1,21,22
 1573 325 1573 325 1573 264 c 0,23,24
 1573 247 1573 247 1571 203 c 128,-1,25
 1569 159 1569 159 1569 134 c 0,26,27
 1569 25 1569 25 1613 -19 c 1,28,-1
 1592 -39 l 1,29,30
 1554 0 1554 0 1492 0 c 2,31,-1
 1201 0 l 1,32,33
 1202 -14 1202 -14 1202 -37 c 0,34,35
 1202 -93 1202 -93 1174 -93 c 128,-1,36
 1146 -93 1146 -93 1146 -30 c 0,37,38
 1146 -11 1146 -11 1147 0 c 1,39,-1
 252 0 l 2,40,41
 228 0 228 0 210.5 -86.5 c 128,-1,42
 193 -173 193 -173 193 -209 c 0,43,44
 193 -277 193 -277 217 -411.5 c 128,-1,45
 241 -546 241 -546 241 -614 c 0,46,47
 241 -697 241 -697 182 -697 c 0,48,49
 118 -697 118 -697 118 -611 c 0,50,51
 118 -541 118 -541 145 -402.5 c 128,-1,52
 172 -264 172 -264 172 -194 c 2,53,-1
 171 1251 l 2,54,55
 171 1312 171 1312 131 1351 c 1,56,-1
 152 1372 l 1,57,58
 193 1332 193 1332 252 1332 c 2,59,-1
 610 1332 l 2,60,61
 671 1332 671 1332 710 1372 c 1,62,-1
 731 1351 l 1,63,64
 691 1312 691 1312 691 1251 c 2,65,-1
 691 426 l 2,66,67
 691 366 691 366 652 327 c 1,68,-1
 673 306 l 1,13,14
EndSplineSet
EndChar

StartChar: M
Encoding: 77 77 49
Width: 2417
GlyphClass: 2
Flags: W
LayerCount: 2
Fore
SplineSet
1033 -52 m 0,0,1
 1033 -70 1033 -70 1039 -106.5 c 128,-1,2
 1045 -143 1045 -143 1045 -161 c 0,3,4
 1045 -198 1045 -198 1020 -198 c 0,5,6
 991 -198 991 -198 991 -158 c 0,7,8
 991 -127 991 -127 1000 -65 c 128,-1,9
 1009 -3 1009 -3 1009 29 c 0,10,11
 1009 82 1009 82 964.5 209 c 128,-1,12
 920 336 920 336 865 466.5 c 128,-1,13
 810 597 810 597 756 745 c 128,-1,14
 702 893 702 893 687 976 c 1,15,-1
 632 976 l 1,16,17
 674 920 674 920 674 856 c 2,18,-1
 674 -132 l 2,19,20
 674 -154 674 -154 684 -214 c 128,-1,21
 694 -274 694 -274 694 -300 c 0,22,23
 694 -353 694 -353 657 -353 c 0,24,25
 622 -353 622 -353 622 -302 c 0,26,27
 622 -278 622 -278 633 -219 c 128,-1,28
 644 -160 644 -160 644 -138 c 0,29,30
 644 -100 644 -100 629 -83 c 128,-1,31
 614 -66 614 -66 556 -56 c 128,-1,32
 498 -46 498 -46 374 -46 c 0,33,34
 212 -46 212 -46 212 -48 c 0,35,36
 212 -56 212 -56 214.5 -114 c 128,-1,37
 217 -172 217 -172 217 -180 c 0,38,39
 217 -203 217 -203 194 -203 c 128,-1,40
 171 -203 171 -203 171 -182 c 0,41,42
 171 -173 171 -173 174 -111.5 c 128,-1,43
 177 -50 177 -50 177 -43 c 2,44,-1
 177 1186 l 2,45,46
 177 1304 177 1304 105 1383 c 1,47,-1
 126 1404 l 1,48,49
 208 1332 208 1332 323 1332 c 2,50,-1
 834 1332 l 2,51,52
 965 1332 965 1332 1022 1408 c 1,53,-1
 1048 1389 l 1,54,55
 997 1315 997 1315 997 1238 c 0,56,57
 997 1190 997 1190 1029 1114.5 c 128,-1,58
 1061 1039 1061 1039 1099 971 c 128,-1,59
 1137 903 1137 903 1169.5 818.5 c 128,-1,60
 1202 734 1202 734 1202 670 c 1,61,-1
 1216 670 l 1,62,63
 1216 735 1216 735 1248 819.5 c 128,-1,64
 1280 904 1280 904 1318 971 c 128,-1,65
 1356 1038 1356 1038 1387.5 1113 c 128,-1,66
 1419 1188 1419 1188 1419 1237 c 0,67,68
 1419 1316 1419 1316 1369 1389 c 1,69,-1
 1395 1408 l 1,70,71
 1452 1332 1452 1332 1583 1332 c 2,72,-1
 2095 1332 l 2,73,74
 2211 1332 2211 1332 2292 1404 c 1,75,-1
 2312 1383 l 1,76,77
 2241 1303 2241 1303 2241 1186 c 2,78,-1
 2241 81 l 2,79,80
 2241 35 2241 35 2239 -19 c 1,81,-1
 2219 -39 l 1,82,83
 2199 0 2199 0 2160 0 c 2,84,-1
 1823 0 l 2,85,86
 1801 0 1801 0 1783 -27 c 128,-1,87
 1765 -54 1765 -54 1765 -77 c 0,88,89
 1765 -98 1765 -98 1773.5 -139 c 128,-1,90
 1782 -180 1782 -180 1782 -201 c 0,91,92
 1782 -237 1782 -237 1755 -237 c 0,93,94
 1730 -237 1730 -237 1730 -194 c 0,95,96
 1730 -176 1730 -176 1737 -139 c 128,-1,97
 1744 -102 1744 -102 1744 -83 c 2,98,-1
 1742 81 l 1,99,-1
 1742 856 l 2,100,101
 1742 918 1742 918 1786 977 c 1,102,-1
 1731 977 l 1,103,104
 1715 898 1715 898 1660.5 750 c 128,-1,105
 1606 602 1606 602 1551 469 c 128,-1,106
 1496 336 1496 336 1452 208 c 128,-1,107
 1408 80 1408 80 1408 29 c 2,108,-1
 1410 -191 l 2,109,110
 1410 -227 1410 -227 1426.5 -298.5 c 128,-1,111
 1443 -370 1443 -370 1443 -407 c 0,112,113
 1443 -464 1443 -464 1400 -464 c 0,114,115
 1355 -464 1355 -464 1355 -406 c 0,116,117
 1355 -368 1355 -368 1373 -293.5 c 128,-1,118
 1391 -219 1391 -219 1391 -181 c 0,119,120
 1391 -61 1391 -61 1331.5 -2.5 c 128,-1,121
 1272 56 1272 56 1191 56 c 0,122,123
 1127 56 1127 56 1080 25 c 128,-1,124
 1033 -6 1033 -6 1033 -52 c 0,0,1
EndSplineSet
EndChar

StartChar: N
Encoding: 78 78 50
Width: 2009
GlyphClass: 2
Flags: W
LayerCount: 2
Fore
SplineSet
1741 0 m 2,0,-1
 1346 0 l 2,1,2
 1262 0 1262 0 1262 -153 c 0,3,4
 1262 -216 1262 -216 1285.5 -335.5 c 128,-1,5
 1309 -455 1309 -455 1309 -516 c 0,6,7
 1309 -603 1309 -603 1245 -603 c 0,8,9
 1179 -603 1179 -603 1179 -515 c 0,10,11
 1179 -459 1179 -459 1204.5 -352 c 128,-1,12
 1230 -245 1230 -245 1231 -191 c 2,13,-1
 1233 -58 l 1,14,15
 1236 35 1236 35 1214 63 c 2,16,-1
 735 670 l 2,17,18
 716 695 716 695 693 774 c 1,19,-1
 632 772 l 1,20,21
 684 718 684 718 684 652 c 2,22,-1
 684 81 l 2,23,24
 684 -3 684 -3 693.5 -172 c 128,-1,25
 703 -341 703 -341 703 -425 c 0,26,27
 703 -441 703 -441 693.5 -452.5 c 128,-1,28
 684 -464 684 -464 668 -464 c 0,29,30
 651 -464 651 -464 640 -450.5 c 128,-1,31
 629 -437 629 -437 629 -420 c 0,32,33
 629 -356 629 -356 635 -228 c 128,-1,34
 641 -100 641 -100 641 -36 c 0,35,36
 641 -24 641 -24 632 -14 c 128,-1,37
 623 -4 623 -4 611 -4 c 0,38,39
 598 -4 598 -4 591.5 -14 c 128,-1,40
 585 -24 585 -24 585 -37 c 0,41,42
 585 -84 585 -84 598.5 -175 c 128,-1,43
 612 -266 612 -266 612 -313 c 0,44,45
 612 -335 612 -335 603 -355.5 c 128,-1,46
 594 -376 594 -376 575 -376 c 0,47,48
 554 -376 554 -376 545.5 -355 c 128,-1,49
 537 -334 537 -334 537 -310 c 0,50,51
 537 -264 537 -264 549 -174 c 128,-1,52
 561 -84 561 -84 561 -39 c 0,53,54
 561 -7 561 -7 525 13.5 c 128,-1,55
 489 34 489 34 451.5 40.5 c 128,-1,56
 414 47 414 47 381 47 c 0,57,58
 355 47 355 47 328.5 43 c 128,-1,59
 302 39 302 39 272 30 c 128,-1,60
 242 21 242 21 223.5 1.5 c 128,-1,61
 205 -18 205 -18 205 -45 c 0,62,63
 205 -95 205 -95 228 -191 c 128,-1,64
 251 -287 251 -287 251 -337 c 0,65,66
 251 -366 251 -366 236.5 -389.5 c 128,-1,67
 222 -413 222 -413 194 -413 c 128,-1,68
 166 -413 166 -413 151 -389.5 c 128,-1,69
 136 -366 136 -366 136 -337 c 0,70,71
 136 -286 136 -286 160.5 -188 c 128,-1,72
 185 -90 185 -90 185 -40 c 2,73,-1
 184 1186 l 2,74,75
 184 1304 184 1304 112 1383 c 1,76,-1
 133 1404 l 1,77,78
 214 1332 214 1332 330 1332 c 2,79,-1
 629 1332 l 2,80,81
 693 1332 693 1332 737.5 1347.5 c 128,-1,82
 782 1363 782 1363 809 1409 c 1,83,-1
 842 1393 l 1,84,85
 816 1331 816 1331 816 1276 c 0,86,87
 816 1251 816 1251 861 1189.5 c 128,-1,88
 906 1128 906 1128 973.5 1050.5 c 128,-1,89
 1041 973 1041 973 1111 892.5 c 128,-1,90
 1181 812 1181 812 1239.5 732 c 128,-1,91
 1298 652 1298 652 1316 602 c 1,92,-1
 1376 602 l 1,93,94
 1327 674 1327 674 1327 805 c 0,95,96
 1327 866 1327 866 1342 987.5 c 128,-1,97
 1357 1109 1357 1109 1357 1170 c 0,98,99
 1357 1334 1357 1334 1253 1383 c 1,100,-1
 1274 1404 l 1,101,102
 1355 1332 1355 1332 1471 1332 c 2,103,-1
 1676 1332 l 2,104,105
 1792 1332 1792 1332 1873 1404 c 1,106,-1
 1893 1383 l 1,107,108
 1822 1303 1822 1303 1822 1186 c 2,109,-1
 1820 -35 l 2,110,111
 1820 -78 1820 -78 1840 -163.5 c 128,-1,112
 1860 -249 1860 -249 1860 -292 c 0,113,114
 1860 -356 1860 -356 1811 -356 c 128,-1,115
 1762 -356 1762 -356 1762 -292 c 0,116,117
 1762 -250 1762 -250 1781 -168.5 c 128,-1,118
 1800 -87 1800 -87 1800 -45 c 0,119,120
 1800 -26 1800 -26 1780 -13 c 128,-1,121
 1760 0 1760 0 1741 0 c 2,0,-1
EndSplineSet
EndChar

StartChar: O
Encoding: 79 79 51
Width: 1986
GlyphClass: 2
Flags: W
LayerCount: 2
Fore
SplineSet
633 676 m 0,0,1
 633 310 633 310 981 310 c 128,-1,2
 1329 310 1329 310 1329 676 c 0,3,4
 1329 844 1329 844 1239 933 c 128,-1,5
 1149 1022 1149 1022 981 1022 c 128,-1,6
 813 1022 813 1022 723 933 c 128,-1,7
 633 844 633 844 633 676 c 0,0,1
552 12 m 1,8,9
 315 87 315 87 195.5 257 c 128,-1,10
 76 427 76 427 76 677 c 0,11,12
 76 790 76 790 102 885.5 c 128,-1,13
 128 981 128 981 173.5 1052 c 128,-1,14
 219 1123 219 1123 285.5 1178.5 c 128,-1,15
 352 1234 352 1234 429 1270.5 c 128,-1,16
 506 1307 506 1307 598 1331 c 128,-1,17
 690 1355 690 1355 784 1365 c 128,-1,18
 878 1375 878 1375 981 1375 c 0,19,20
 1128 1375 1128 1375 1254.5 1355 c 128,-1,21
 1381 1335 1381 1335 1499.5 1284.5 c 128,-1,22
 1618 1234 1618 1234 1701.5 1156.5 c 128,-1,23
 1785 1079 1785 1079 1835 956.5 c 128,-1,24
 1885 834 1885 834 1885 677 c 0,25,26
 1885 357 1885 357 1705 181.5 c 128,-1,27
 1525 6 1525 6 1199 -34 c 1,28,29
 1195 -41 1195 -41 1195 -56 c 0,30,31
 1195 -66 1195 -66 1197.5 -85.5 c 128,-1,32
 1200 -105 1200 -105 1200 -111 c 0,33,34
 1200 -128 1200 -128 1193 -145 c 128,-1,35
 1186 -162 1186 -162 1171 -162 c 0,36,37
 1144 -162 1144 -162 1144 -113 c 0,38,39
 1144 -101 1144 -101 1145.5 -81.5 c 128,-1,40
 1147 -62 1147 -62 1147 -57 c 0,41,42
 1147 -42 1147 -42 1133.5 -34.5 c 128,-1,43
 1120 -27 1120 -27 1104 -27 c 1,44,45
 1100 -36 1100 -36 1100 -61 c 0,46,47
 1100 -78 1100 -78 1102.5 -113 c 128,-1,48
 1105 -148 1105 -148 1105 -158 c 0,49,50
 1105 -188 1105 -188 1094 -216 c 128,-1,51
 1083 -244 1083 -244 1057 -244 c 0,52,53
 1011 -244 1011 -244 1011 -162 c 0,54,55
 1011 -141 1011 -141 1014.5 -107 c 128,-1,56
 1018 -73 1018 -73 1018 -66 c 0,57,58
 1018 -41 1018 -41 994 -27.5 c 128,-1,59
 970 -14 970 -14 943 -14 c 0,60,61
 914 -14 914 -14 892 -29 c 128,-1,62
 870 -44 870 -44 870 -72 c 2,63,-1
 870 -302 l 2,64,65
 870 -352 870 -352 891 -449 c 128,-1,66
 912 -546 912 -546 912 -596 c 0,67,68
 912 -629 912 -629 894 -656 c 128,-1,69
 876 -683 876 -683 845 -683 c 0,70,71
 813 -683 813 -683 797 -655 c 128,-1,72
 781 -627 781 -627 781 -592 c 0,73,74
 781 -537 781 -537 804 -426 c 128,-1,75
 827 -315 827 -315 827 -254 c 0,76,77
 827 -7 827 -7 735 -7 c 0,78,79
 611 -7 611 -7 611 3 c 2,80,-1
 611 1 l 2,81,82
 611 -68 611 -68 641.5 -201.5 c 128,-1,83
 672 -335 672 -335 672 -403 c 0,84,85
 672 -451 672 -451 651 -488.5 c 128,-1,86
 630 -526 630 -526 586 -526 c 0,87,88
 543 -526 543 -526 518.5 -490 c 128,-1,89
 494 -454 494 -454 494 -410 c 0,90,91
 494 -339 494 -339 523 -199.5 c 128,-1,92
 552 -60 552 -60 552 12 c 1,8,9
EndSplineSet
EndChar

StartChar: P
Encoding: 80 80 52
Width: 1901
GlyphClass: 2
Flags: W
LayerCount: 2
Fore
SplineSet
696 921 m 2,0,-1
 696 862 l 2,1,2
 696 803 696 803 656 763 c 1,3,-1
 677 742 l 1,4,5
 716 781 716 781 777 781 c 2,6,-1
 1101 781 l 2,7,8
 1132 781 1132 781 1150 782 c 128,-1,9
 1168 783 1168 783 1192 786 c 128,-1,10
 1216 789 1216 789 1229 796.5 c 128,-1,11
 1242 804 1242 804 1255.5 816 c 128,-1,12
 1269 828 1269 828 1274.5 848 c 128,-1,13
 1280 868 1280 868 1280 895 c 0,14,15
 1280 920 1280 920 1271.5 939.5 c 128,-1,16
 1263 959 1263 959 1247 970 c 128,-1,17
 1231 981 1231 981 1215 988 c 128,-1,18
 1199 995 1199 995 1175.5 998 c 128,-1,19
 1152 1001 1152 1001 1138.5 1001.5 c 128,-1,20
 1125 1002 1125 1002 1105 1002 c 2,21,-1
 777 1002 l 2,22,23
 715 1002 715 1002 677 1040 c 1,24,-1
 656 1021 l 1,25,26
 696 981 696 981 696 921 c 2,0,-1
1328 480 m 2,27,-1
 777 480 l 2,28,29
 715 480 715 480 677 518 c 1,30,-1
 656 499 l 1,31,32
 696 459 696 459 696 399 c 2,33,-1
 696 81 l 2,34,35
 696 4 696 4 694 -108 c 1,36,-1
 649 -112 l 1,37,38
 636 0 636 0 615 0 c 2,39,-1
 462 0 l 1,40,41
 461 -6 461 -6 460 -14 c 0,42,43
 456 -38 456 -38 456 -68 c 0,44,45
 456 -102 456 -102 469 -186.5 c 128,-1,46
 482 -271 482 -271 482 -305 c 0,47,48
 482 -366 482 -366 439 -366 c 0,49,50
 393 -366 393 -366 393 -304 c 0,51,52
 393 -268 393 -268 411.5 -178.5 c 128,-1,53
 430 -89 430 -89 430 -52 c 0,54,55
 430 -36 430 -36 430 0 c 1,56,-1
 257 0 l 2,57,58
 253 0 253 0 247 -13.5 c 128,-1,59
 241 -27 241 -27 235.5 -62 c 128,-1,60
 230 -97 230 -97 230 -144 c 0,61,62
 230 -186 230 -186 249 -293 c 128,-1,63
 268 -400 268 -400 268 -443 c 0,64,65
 268 -535 268 -535 203 -535 c 0,66,67
 134 -535 134 -535 134 -441 c 0,68,69
 134 -396 134 -396 156 -282 c 128,-1,70
 178 -168 178 -168 178 -122 c 0,71,72
 178 -95 178 -95 177 -29 c 128,-1,73
 176 37 176 37 176 81 c 2,74,-1
 176 1255 l 2,75,76
 176 1316 176 1316 138 1354 c 1,77,-1
 158 1374 l 1,78,79
 196 1336 196 1336 257 1336 c 2,80,-1
 1120 1336 l 2,81,82
 1182 1336 1182 1336 1222.5 1335 c 128,-1,83
 1263 1334 1263 1334 1325.5 1330 c 128,-1,84
 1388 1326 1388 1326 1431 1319 c 128,-1,85
 1474 1312 1474 1312 1529 1297.5 c 128,-1,86
 1584 1283 1584 1283 1621 1263 c 128,-1,87
 1658 1243 1658 1243 1697 1212 c 128,-1,88
 1736 1181 1736 1181 1759 1142 c 128,-1,89
 1782 1103 1782 1103 1797 1049 c 128,-1,90
 1812 995 1812 995 1812 931 c 0,91,92
 1812 829 1812 829 1787.5 750.5 c 128,-1,93
 1763 672 1763 672 1709 609.5 c 128,-1,94
 1655 547 1655 547 1559 513.5 c 128,-1,95
 1463 480 1463 480 1328 480 c 2,27,-1
EndSplineSet
EndChar

StartChar: Q
Encoding: 81 81 53
Width: 2032
GlyphClass: 2
Flags: W
LayerCount: 2
Fore
SplineSet
636 706 m 0,0,1
 636 342 636 342 989 342 c 0,2,3
 1341 342 1341 342 1341 706 c 0,4,5
 1341 880 1341 880 1246.5 966.5 c 128,-1,6
 1152 1053 1152 1053 989 1053 c 128,-1,7
 826 1053 826 1053 731 966.5 c 128,-1,8
 636 880 636 880 636 706 c 0,0,1
83 701 m 0,9,10
 83 850 83 850 127.5 968.5 c 128,-1,11
 172 1087 172 1087 251 1167 c 128,-1,12
 330 1247 330 1247 444 1300 c 128,-1,13
 558 1353 558 1353 692.5 1376.5 c 128,-1,14
 827 1400 827 1400 987 1400 c 128,-1,15
 1147 1400 1147 1400 1281.5 1376.5 c 128,-1,16
 1416 1353 1416 1353 1530.5 1300 c 128,-1,17
 1645 1247 1645 1247 1724 1167 c 128,-1,18
 1803 1087 1803 1087 1847.5 968.5 c 128,-1,19
 1892 850 1892 850 1892 701 c 0,20,21
 1892 426 1892 426 1748 270 c 0,22,23
 1705 224 1705 224 1652 219 c 1,24,-1
 1655 193 l 1,25,26
 1711 199 1711 199 1760 166 c 2,27,-1
 1887 80 l 1,28,29
 1940 46 1940 46 1994 50 c 1,30,-1
 1996 25 l 1,31,32
 1938 21 1938 21 1894 -19 c 1,33,-1
 1710 -177 l 1,34,35
 1664 -218 1664 -218 1668 -270 c 1,36,-1
 1636 -272 l 1,37,38
 1631 -219 1631 -219 1581 -187 c 2,39,-1
 1327 -22 l 2,40,41
 1299 -4 1299 -4 1289 13 c 128,-1,42
 1279 30 1279 30 1285 58 c 1,43,-1
 1248 67 l 1,44,45
 1242 39 1242 39 1225.5 27.5 c 128,-1,46
 1209 16 1209 16 1177 12 c 0,47,48
 1073 -4 1073 -4 987 -4 c 0,49,50
 897 -4 897 -4 816 3 c 128,-1,51
 735 10 735 10 641.5 30 c 128,-1,52
 548 50 548 50 470.5 82 c 128,-1,53
 393 114 393 114 319 169 c 128,-1,54
 245 224 245 224 194.5 295.5 c 128,-1,55
 144 367 144 367 113.5 471 c 128,-1,56
 83 575 83 575 83 701 c 0,9,10
EndSplineSet
EndChar

StartChar: R
Encoding: 82 82 54
Width: 2066
GlyphClass: 2
Flags: W
LayerCount: 2
Fore
SplineSet
696 921 m 2,0,-1
 696 854 l 2,1,2
 696 794 696 794 656 754 c 1,3,-1
 677 734 l 1,4,5
 720 778 720 778 855 778 c 0,6,7
 895 778 895 778 981.5 773.5 c 128,-1,8
 1068 769 1068 769 1108 769 c 0,9,10
 1209 769 1209 769 1264.5 795.5 c 128,-1,11
 1320 822 1320 822 1320 893 c 0,12,13
 1320 938 1320 938 1289 963.5 c 128,-1,14
 1258 989 1258 989 1214 996.5 c 128,-1,15
 1170 1004 1170 1004 1102 1004 c 0,16,17
 1064 1004 1064 1004 984 1000.5 c 128,-1,18
 904 997 904 997 866 997 c 0,19,20
 721 997 721 997 677 1040 c 1,21,-1
 656 1021 l 1,22,23
 696 982 696 982 696 921 c 2,0,-1
1790 -121 m 0,24,25
 1790 5 1790 5 1678 78 c 0,26,27
 1585 138 1585 138 1470 130 c 0,28,29
 1359 123 1359 123 1314 54 c 1,30,31
 1291 21 1291 21 1291 -24 c 128,-1,32
 1291 -69 1291 -69 1288.5 -158 c 128,-1,33
 1286 -247 1286 -247 1286 -292 c 0,34,35
 1286 -347 1286 -347 1303 -455.5 c 128,-1,36
 1320 -564 1320 -564 1320 -619 c 0,37,38
 1320 -716 1320 -716 1264 -716 c 0,39,40
 1210 -716 1210 -716 1210 -622 c 0,41,42
 1210 -560 1210 -560 1228 -444 c 128,-1,43
 1246 -328 1246 -328 1248 -274 c 0,44,45
 1251 -208 1251 -208 1251 -12 c 0,46,47
 1251 40 1251 40 1219 108 c 128,-1,48
 1187 176 1187 176 1118 295 c 128,-1,49
 1049 414 1049 414 1005 505 c 1,50,-1
 975 522 l 1,51,52
 951 478 951 478 890 478 c 0,53,54
 877 478 877 478 849 476.5 c 128,-1,55
 821 475 821 475 806 475 c 0,56,57
 720 475 720 475 677 517 c 1,58,-1
 656 497 l 1,59,60
 659 460 659 460 659 339 c 0,61,62
 659 301 659 301 658.5 217 c 128,-1,63
 658 133 658 133 658 94 c 0,64,65
 658 -16 658 -16 662 -68 c 1,66,67
 662 -88 662 -88 671.5 -141 c 128,-1,68
 681 -194 681 -194 681 -215 c 0,69,70
 681 -256 681 -256 652 -256 c 0,71,72
 625 -256 625 -256 625 -218 c 0,73,74
 625 -201 625 -201 633 -156.5 c 128,-1,75
 641 -112 641 -112 641 -94 c 0,76,77
 641 -49 641 -49 614.5 -22.5 c 128,-1,78
 588 4 588 4 548 4 c 0,79,80
 503 4 503 4 470.5 -33.5 c 128,-1,81
 438 -71 438 -71 438 -145 c 0,82,83
 438 -191 438 -191 460 -293.5 c 128,-1,84
 482 -396 482 -396 482 -441 c 0,85,86
 482 -535 482 -535 413 -535 c 0,87,88
 348 -535 348 -535 348 -443 c 0,89,90
 348 -400 348 -400 367.5 -293 c 128,-1,91
 387 -186 387 -186 387 -144 c 0,92,93
 387 -60 387 -60 358 -19.5 c 128,-1,94
 329 21 329 21 288 21 c 0,95,96
 255 21 255 21 229 -4.5 c 128,-1,97
 203 -30 203 -30 203 -68 c 0,98,99
 203 -102 203 -102 216.5 -186.5 c 128,-1,100
 230 -271 230 -271 230 -305 c 0,101,102
 230 -366 230 -366 186 -366 c 0,103,104
 140 -366 140 -366 140 -304 c 0,105,106
 140 -268 140 -268 159 -178.5 c 128,-1,107
 178 -89 178 -89 178 -52 c 1,108,109
 176 11 176 11 176 1255 c 0,110,111
 176 1317 176 1317 138 1354 c 1,112,-1
 158 1374 l 1,113,114
 197 1336 197 1336 257 1336 c 2,115,-1
 1153 1336 l 2,116,117
 1214 1336 1214 1336 1255 1335 c 128,-1,118
 1296 1334 1296 1334 1358.5 1330 c 128,-1,119
 1421 1326 1421 1326 1464.5 1318.5 c 128,-1,120
 1508 1311 1508 1311 1562.5 1297 c 128,-1,121
 1617 1283 1617 1283 1654.5 1262.5 c 128,-1,122
 1692 1242 1692 1242 1730.5 1211.5 c 128,-1,123
 1769 1181 1769 1181 1792.5 1141.5 c 128,-1,124
 1816 1102 1816 1102 1830.5 1048.5 c 128,-1,125
 1845 995 1845 995 1845 931 c 0,126,127
 1845 853 1845 853 1829.5 789.5 c 128,-1,128
 1814 726 1814 726 1777.5 669.5 c 128,-1,129
 1741 613 1741 613 1671.5 581 c 128,-1,130
 1602 549 1602 549 1504 549 c 1,131,-1
 1496 526 l 1,132,133
 1521 516 1521 516 1545.5 497 c 128,-1,134
 1570 478 1570 478 1580 457 c 0,135,136
 1612 387 1612 387 1624 363 c 128,-1,137
 1636 339 1636 339 1664.5 286.5 c 128,-1,138
 1693 234 1693 234 1722.5 198 c 128,-1,139
 1752 162 1752 162 1789 130 c 0,140,141
 1824 100 1824 100 1891 68 c 128,-1,142
 1958 36 1958 36 1976 25 c 1,143,144
 1986 17 1986 17 1986 11 c 0,145,146
 1986 -89 1986 -89 2013 -246 c 128,-1,147
 2040 -403 2040 -403 2040 -474 c 0,148,149
 2040 -493 2040 -493 2036.5 -513 c 128,-1,150
 2033 -533 2033 -533 2021 -552.5 c 128,-1,151
 2009 -572 2009 -572 1990 -572 c 0,152,153
 1963 -572 1963 -572 1951.5 -539 c 128,-1,154
 1940 -506 1940 -506 1940 -473 c 0,155,156
 1940 -410 1940 -410 1953 -286.5 c 128,-1,157
 1966 -163 1966 -163 1966 -100 c 0,158,159
 1966 25 1966 25 1885 25 c 0,160,161
 1845 25 1845 25 1825.5 11 c 128,-1,162
 1806 -3 1806 -3 1806 -40 c 0,163,164
 1806 -90 1806 -90 1824 -185 c 128,-1,165
 1842 -280 1842 -280 1842 -326 c 0,166,167
 1842 -377 1842 -377 1804 -377 c 0,168,169
 1768 -377 1768 -377 1768 -328 c 0,170,171
 1768 -294 1768 -294 1779 -225 c 128,-1,172
 1790 -156 1790 -156 1790 -121 c 0,24,25
EndSplineSet
EndChar

StartChar: S
Encoding: 83 83 55
Width: 1887
GlyphClass: 2
Flags: W
LayerCount: 2
Fore
SplineSet
1786 482 m 0,0,1
 1786 376 1786 376 1742 291.5 c 128,-1,2
 1698 207 1698 207 1627.5 154 c 128,-1,3
 1557 101 1557 101 1461 66 c 128,-1,4
 1365 31 1365 31 1267.5 17 c 128,-1,5
 1170 3 1170 3 1066 3 c 0,6,7
 1006 3 1006 3 995 4 c 0,8,9
 986 4 986 4 979 1.5 c 128,-1,10
 972 -1 972 -1 966.5 -4 c 128,-1,11
 961 -7 961 -7 957 -13.5 c 128,-1,12
 953 -20 953 -20 950.5 -24.5 c 128,-1,13
 948 -29 948 -29 946 -38 c 128,-1,14
 944 -47 944 -47 943 -51.5 c 128,-1,15
 942 -56 942 -56 941.5 -66 c 128,-1,16
 941 -76 941 -76 941 -79 c 128,-1,17
 941 -82 941 -82 941 -92 c 2,18,-1
 941 -103 l 2,19,20
 941 -130 941 -130 954.5 -182.5 c 128,-1,21
 968 -235 968 -235 968 -261 c 0,22,23
 968 -281 968 -281 959 -297.5 c 128,-1,24
 950 -314 950 -314 931 -314 c 128,-1,25
 912 -314 912 -314 901.5 -298 c 128,-1,26
 891 -282 891 -282 891 -263 c 0,27,28
 891 -234 891 -234 903.5 -176.5 c 128,-1,29
 916 -119 916 -119 916 -89 c 0,30,31
 916 -67 916 -67 915.5 -56.5 c 128,-1,32
 915 -46 915 -46 912.5 -30.5 c 128,-1,33
 910 -15 910 -15 904.5 -8 c 128,-1,34
 899 -1 899 -1 888 4.5 c 128,-1,35
 877 10 877 10 861 10 c 0,36,37
 821 10 821 10 807.5 -19.5 c 128,-1,38
 794 -49 794 -49 794 -98 c 0,39,40
 794 -113 794 -113 797 -161 c 128,-1,41
 800 -209 800 -209 800 -262 c 0,42,43
 800 -328 800 -328 783 -328 c 0,44,45
 762 -328 762 -328 762 -292 c 0,46,47
 762 -275 762 -275 767 -241.5 c 128,-1,48
 772 -208 772 -208 772 -191 c 2,49,-1
 772 -4 l 1,50,51
 696 0 696 0 632 7.5 c 128,-1,52
 568 15 568 15 497.5 29.5 c 128,-1,53
 427 44 427 44 370 69.5 c 128,-1,54
 313 95 313 95 262 130.5 c 128,-1,55
 211 166 211 166 173.5 219 c 128,-1,56
 136 272 136 272 115 338 c 0,57,58
 95 403 95 403 48 436 c 1,59,-1
 63 457 l 1,60,61
 108 427 108 427 165 427 c 0,62,63
 213 427 213 427 295 431 c 128,-1,64
 377 435 377 435 480 440.5 c 128,-1,65
 583 446 583 446 631 448 c 0,66,67
 671 450 671 450 692 460.5 c 128,-1,68
 713 471 713 471 722 499 c 1,69,-1
 767 484 l 1,70,71
 764 476 764 476 764 463 c 0,72,73
 764 430 764 430 814 392 c 0,74,75
 874 346 874 346 1018 346 c 0,76,77
 1036 346 1036 346 1058 348.5 c 128,-1,78
 1080 351 1080 351 1108.5 357.5 c 128,-1,79
 1137 364 1137 364 1155.5 379 c 128,-1,80
 1174 394 1174 394 1174 415 c 0,81,82
 1174 464 1174 464 1113 482 c 0,83,84
 1066 496 1066 496 989.5 507.5 c 128,-1,85
 913 519 913 519 836.5 526 c 128,-1,86
 760 533 760 533 671 546 c 128,-1,87
 582 559 582 559 503 574.5 c 128,-1,88
 424 590 424 590 349.5 620 c 128,-1,89
 275 650 275 650 222 690.5 c 128,-1,90
 169 731 169 731 136.5 794.5 c 128,-1,91
 104 858 104 858 104 939 c 128,-1,92
 104 1020 104 1020 129.5 1087 c 128,-1,93
 155 1154 155 1154 199 1202 c 128,-1,94
 243 1250 243 1250 305.5 1287 c 128,-1,95
 368 1324 368 1324 436.5 1347 c 128,-1,96
 505 1370 505 1370 585.5 1384.5 c 128,-1,97
 666 1399 666 1399 741 1404.5 c 128,-1,98
 816 1410 816 1410 896 1410 c 0,99,100
 977 1410 977 1410 1042.5 1406.5 c 128,-1,101
 1108 1403 1108 1403 1196.5 1393.5 c 128,-1,102
 1285 1384 1285 1384 1356.5 1362.5 c 128,-1,103
 1428 1341 1428 1341 1498.5 1308 c 128,-1,104
 1569 1275 1569 1275 1621.5 1221 c 128,-1,105
 1674 1167 1674 1167 1703 1097 c 1,106,107
 1727 1046 1727 1046 1769 1002 c 1,108,-1
 1756 979 l 1,109,110
 1714 1008 1714 1008 1659 1008 c 2,111,-1
 1646 1008 l 1,112,113
 1566 1005 1566 1005 1417.5 996.5 c 128,-1,114
 1269 988 1269 988 1224 986 c 0,115,116
 1184 984 1184 984 1165.5 974 c 128,-1,117
 1147 964 1147 964 1139 936 c 1,118,-1
 1095 948 l 1,119,120
 1098 957 1098 957 1098 967 c 0,121,122
 1098 1009 1098 1009 1030 1039.5 c 128,-1,123
 962 1070 962 1070 876 1070 c 0,124,125
 708 1070 708 1070 708 1004 c 0,126,127
 708 981 708 981 742.5 963.5 c 128,-1,128
 777 946 777 946 838.5 935 c 128,-1,129
 900 924 900 924 959.5 917.5 c 128,-1,130
 1019 911 1019 911 1093.5 903.5 c 128,-1,131
 1168 896 1168 896 1204 891 c 0,132,133
 1406 861 1406 861 1494 833 c 0,134,135
 1729 759 1729 759 1775 580 c 0,136,137
 1786 535 1786 535 1786 482 c 0,0,1
EndSplineSet
EndChar

StartChar: T
Encoding: 84 84 56
Width: 1667
GlyphClass: 2
Flags: W
LayerCount: 2
Fore
SplineSet
953 -728 m 128,-1,1
 928 -728 928 -728 928 -692 c 0,2,3
 928 -664 928 -664 937 -599 c 128,-1,4
 946 -534 946 -534 954 -502 c 1,5,6
 961 -534 961 -534 969.5 -599 c 128,-1,7
 978 -664 978 -664 978 -693 c 0,8,0
 978 -728 978 -728 953 -728 c 128,-1,1
173 1334 m 2,9,-1
 1486 1334 l 2,10,11
 1547 1334 1547 1334 1586 1373 c 1,12,-1
 1606 1353 l 1,13,14
 1568 1315 1568 1315 1568 1253 c 0,15,16
 1568 1236 1568 1236 1565.5 1192.5 c 128,-1,17
 1563 1149 1563 1149 1563 1125 c 0,18,19
 1563 1017 1563 1017 1606 974 c 1,20,-1
 1586 953 l 1,21,22
 1541 999 1541 999 1440 999 c 0,23,24
 1406 999 1406 999 1330.5 992 c 128,-1,25
 1255 985 1255 985 1219 985 c 0,26,27
 1114 985 1114 985 1068 1031 c 1,28,-1
 1047 1011 l 1,29,30
 1086 973 1086 973 1086 911 c 2,31,-1
 1086 81 l 2,32,33
 1086 -23 1086 -23 1104.5 -229 c 128,-1,34
 1123 -435 1123 -435 1123 -540 c 0,35,36
 1123 -564 1123 -564 1113 -589 c 128,-1,37
 1103 -614 1103 -614 1082 -614 c 0,38,39
 1069 -614 1069 -614 1060.5 -603.5 c 128,-1,40
 1052 -593 1052 -593 1048 -576.5 c 128,-1,41
 1044 -560 1044 -560 1042.5 -547 c 128,-1,42
 1041 -534 1041 -534 1041 -522 c 0,43,44
 1041 -452 1041 -452 1054.5 -313.5 c 128,-1,45
 1068 -175 1068 -175 1068 -105 c 0,46,47
 1068 4 1068 4 1025 4 c 0,48,49
 1004 4 1004 4 992 -21 c 128,-1,50
 980 -46 980 -46 980 -70 c 0,51,52
 980 -105 980 -105 991.5 -174.5 c 128,-1,53
 1003 -244 1003 -244 1003 -279 c 0,54,55
 1003 -304 1003 -304 993.5 -327.5 c 128,-1,56
 984 -351 984 -351 962 -351 c 0,57,58
 941 -351 941 -351 931 -330 c 128,-1,59
 921 -309 921 -309 921 -286 c 0,60,61
 921 -253 921 -253 939 -189.5 c 128,-1,62
 957 -126 957 -126 957 -92 c 0,63,64
 957 -46 957 -46 922.5 -25 c 128,-1,65
 888 -4 888 -4 838 -4 c 0,66,67
 783 -4 783 -4 726.5 -25 c 128,-1,68
 670 -46 670 -46 627 -90.5 c 128,-1,69
 584 -135 584 -135 584 -191 c 0,70,71
 584 -222 584 -222 597.5 -284 c 128,-1,72
 611 -346 611 -346 611 -378 c 0,73,74
 611 -429 611 -429 574 -429 c 0,75,76
 532 -429 532 -429 532 -375 c 0,77,78
 532 -340 532 -340 548 -272 c 128,-1,79
 564 -204 564 -204 564 -170 c 2,80,-1
 564 90 l 1,81,82
 566 638 566 638 566 911 c 0,83,84
 566 974 566 974 604 1011 c 1,85,-1
 584 1031 l 1,86,87
 540 986 540 986 438 986 c 0,88,89
 404 986 404 986 330.5 992.5 c 128,-1,90
 257 999 257 999 223 999 c 0,91,92
 120 999 120 999 74 953 c 1,93,-1
 54 974 l 1,94,95
 92 1012 92 1012 92 1073 c 0,96,97
 92 1088 92 1088 94.5 1132 c 128,-1,98
 97 1176 97 1176 97 1201 c 0,99,100
 97 1311 97 1311 54 1353 c 1,101,-1
 74 1373 l 1,102,103
 114 1334 114 1334 173 1334 c 2,9,-1
EndSplineSet
EndChar

StartChar: U
Encoding: 85 85 57
Width: 1887
GlyphClass: 2
Flags: W
LayerCount: 2
Fore
SplineSet
1140 -602 m 0,0,1
 1108 -602 1108 -602 1108 -553 c 0,2,3
 1108 -531 1108 -531 1114.5 -503 c 128,-1,4
 1121 -475 1121 -475 1129 -456.5 c 128,-1,5
 1137 -438 1137 -438 1141 -438 c 0,6,7
 1143 -438 1143 -438 1151 -456 c 128,-1,8
 1159 -474 1159 -474 1166.5 -503 c 128,-1,9
 1174 -532 1174 -532 1174 -554 c 0,10,11
 1174 -602 1174 -602 1140 -602 c 0,0,1
1150 -37 m 1,12,-1
 1150 -224 l 2,13,14
 1150 -241 1150 -241 1155 -275.5 c 128,-1,15
 1160 -310 1160 -310 1160 -327 c 0,16,17
 1160 -361 1160 -361 1139 -361 c 0,18,19
 1122 -361 1122 -361 1122 -295 c 0,20,21
 1122 -242 1122 -242 1125 -194.5 c 128,-1,22
 1128 -147 1128 -147 1128 -132 c 0,23,24
 1128 -101 1128 -101 1124 -80 c 128,-1,25
 1120 -59 1120 -59 1104.5 -41.5 c 128,-1,26
 1089 -24 1089 -24 1061 -24 c 0,27,28
 1009 -24 1009 -24 1009 -109 c 0,29,30
 1009 -126 1009 -126 1011.5 -156.5 c 128,-1,31
 1014 -187 1014 -187 1014 -196 c 0,32,33
 1014 -226 1014 -226 1026.5 -283.5 c 128,-1,34
 1039 -341 1039 -341 1039 -370 c 0,35,36
 1039 -389 1039 -389 1029 -405 c 128,-1,37
 1019 -421 1019 -421 1000 -421 c 128,-1,38
 981 -421 981 -421 971.5 -404.5 c 128,-1,39
 962 -388 962 -388 962 -368 c 0,40,41
 962 -342 962 -342 975.5 -289.5 c 128,-1,42
 989 -237 989 -237 989 -210 c 0,43,44
 989 -207 989 -207 989 -201 c 0,45,46
 989 -176 989 -176 988 -160 c 128,-1,47
 987 -144 987 -144 983 -119.5 c 128,-1,48
 979 -95 979 -95 966.5 -82.5 c 128,-1,49
 954 -70 954 -70 935 -70 c 0,50,51
 922 -70 922 -70 911 -74.5 c 128,-1,52
 900 -79 900 -79 892.5 -88.5 c 128,-1,53
 885 -98 885 -98 879 -107 c 128,-1,54
 873 -116 873 -116 870 -132 c 128,-1,55
 867 -148 867 -148 864.5 -159 c 128,-1,56
 862 -170 862 -170 861.5 -188.5 c 128,-1,57
 861 -207 861 -207 861 -215.5 c 128,-1,58
 861 -224 861 -224 861 -241.5 c 128,-1,59
 861 -259 861 -259 861 -262 c 0,60,61
 861 -299 861 -299 879 -370 c 128,-1,62
 897 -441 897 -441 897 -476 c 0,63,64
 897 -504 897 -504 885 -526.5 c 128,-1,65
 873 -549 873 -549 847 -549 c 0,66,67
 822 -549 822 -549 807.5 -528 c 128,-1,68
 793 -507 793 -507 793 -481 c 0,69,70
 793 -441 793 -441 809.5 -362 c 128,-1,71
 826 -283 826 -283 826 -242 c 2,72,-1
 826 -43 l 1,73,74
 739 -39 739 -39 668 -30.5 c 128,-1,75
 597 -22 597 -22 525.5 -4.5 c 128,-1,76
 454 13 454 13 399.5 39.5 c 128,-1,77
 345 66 345 66 296.5 107 c 128,-1,78
 248 148 248 148 216 202.5 c 128,-1,79
 184 257 184 257 165.5 331 c 128,-1,80
 147 405 147 405 145 496 c 0,81,82
 143 589 143 589 143 773 c 0,83,84
 143 850 143 850 144 1004 c 128,-1,85
 145 1158 145 1158 145 1235 c 0,86,87
 145 1294 145 1294 106 1334 c 1,88,-1
 127 1354 l 1,89,90
 164 1316 164 1316 226 1316 c 2,91,-1
 580 1316 l 2,92,93
 641 1316 641 1316 679 1354 c 1,94,-1
 700 1334 l 1,95,96
 662 1295 662 1295 662 1235 c 2,97,-1
 664 721 l 2,98,99
 664 676 664 676 664.5 650 c 128,-1,100
 665 624 665 624 667.5 583 c 128,-1,101
 670 542 670 542 675 517 c 128,-1,102
 680 492 680 492 689.5 458.5 c 128,-1,103
 699 425 699 425 712.5 405 c 128,-1,104
 726 385 726 385 747 362.5 c 128,-1,105
 768 340 768 340 795 328 c 128,-1,106
 822 316 822 316 858.5 308 c 128,-1,107
 895 300 895 300 939 300 c 0,108,109
 979 300 979 300 1012.5 305.5 c 128,-1,110
 1046 311 1046 311 1071.5 323.5 c 128,-1,111
 1097 336 1097 336 1117.5 350.5 c 128,-1,112
 1138 365 1138 365 1152.5 387.5 c 128,-1,113
 1167 410 1167 410 1178 430.5 c 128,-1,114
 1189 451 1189 451 1195.5 482 c 128,-1,115
 1202 513 1202 513 1206 536.5 c 128,-1,116
 1210 560 1210 560 1212 596.5 c 128,-1,117
 1214 633 1214 633 1214.5 657.5 c 128,-1,118
 1215 682 1215 682 1215 721 c 2,119,-1
 1217 1235 l 2,120,121
 1217 1296 1217 1296 1180 1334 c 1,122,-1
 1199 1354 l 1,123,124
 1237 1316 1237 1316 1299 1316 c 2,125,-1
 1653 1316 l 2,126,127
 1716 1316 1716 1316 1753 1354 c 1,128,-1
 1773 1334 l 1,129,130
 1732 1292 1732 1292 1732 1130 c 0,131,132
 1732 1013 1732 1013 1736.5 853 c 128,-1,133
 1741 693 1741 693 1741 619 c 0,134,135
 1741 537 1741 537 1736 474.5 c 128,-1,136
 1731 412 1731 412 1716 344.5 c 128,-1,137
 1701 277 1701 277 1675 228 c 128,-1,138
 1649 179 1649 179 1604.5 131 c 128,-1,139
 1560 83 1560 83 1498.5 51 c 128,-1,140
 1437 19 1437 19 1349 -4 c 128,-1,141
 1261 -27 1261 -27 1150 -37 c 1,12,-1
EndSplineSet
EndChar

StartChar: V
Encoding: 86 86 58
Width: 1760
GlyphClass: 2
Flags: W
LayerCount: 2
Fore
SplineSet
623 32 m 2,0,1
 607 32 607 32 607 -42 c 0,2,3
 607 -79 607 -79 614.5 -152.5 c 128,-1,4
 622 -226 622 -226 622 -262 c 0,5,6
 622 -276 622 -276 614 -285.5 c 128,-1,7
 606 -295 606 -295 592 -295 c 0,8,9
 577 -295 577 -295 568 -284.5 c 128,-1,10
 559 -274 559 -274 559 -259 c 0,11,12
 559 -216 559 -216 573 -131.5 c 128,-1,13
 587 -47 587 -47 587 -4 c 0,14,15
 587 80 587 80 554 155 c 2,16,-1
 58 1296 l 1,17,18
 36 1350 36 1350 -13 1383 c 1,19,-1
 0 1402 l 1,20,21
 47 1371 47 1371 108 1371 c 2,22,-1
 457 1371 l 2,23,24
 518 1371 518 1371 545 1413 c 1,25,-1
 574 1395 l 1,26,27
 557 1373 557 1373 557 1345 c 0,28,29
 557 1332 557 1332 584.5 1260 c 128,-1,30
 612 1188 612 1188 657 1079.5 c 128,-1,31
 702 971 702 971 741.5 878 c 128,-1,32
 781 785 781 785 825 683 c 128,-1,33
 869 581 869 581 874 569 c 1,34,35
 879 581 879 581 923 683 c 128,-1,36
 967 785 967 785 1006.5 878 c 128,-1,37
 1046 971 1046 971 1091 1079.5 c 128,-1,38
 1136 1188 1136 1188 1163.5 1260 c 128,-1,39
 1191 1332 1191 1332 1191 1345 c 0,40,41
 1191 1375 1191 1375 1175 1395 c 1,42,-1
 1203 1413 l 1,43,44
 1230 1371 1230 1371 1291 1371 c 2,45,-1
 1641 1371 l 2,46,47
 1703 1371 1703 1371 1750 1402 c 1,48,-1
 1762 1383 l 1,49,50
 1713 1350 1713 1350 1691 1296 c 2,51,-1
 1188 106 l 2,52,53
 1175 76 1175 76 1175 -76 c 0,54,55
 1175 -152 1175 -152 1198.5 -291.5 c 128,-1,56
 1222 -431 1222 -431 1222 -499 c 0,57,58
 1222 -596 1222 -596 1152 -596 c 0,59,60
 1083 -596 1083 -596 1083 -500 c 0,61,62
 1083 -435 1083 -435 1108 -307.5 c 128,-1,63
 1133 -180 1133 -180 1133 -113 c 0,64,65
 1133 32 1133 32 1107 32 c 2,66,-1
 623 32 l 2,0,1
EndSplineSet
EndChar

StartChar: W
Encoding: 87 87 59
Width: 2587
GlyphClass: 2
Flags: W
LayerCount: 2
Fore
SplineSet
1761 607 m 1,0,-1
 1774 607 l 1,1,2
 1774 683 1774 683 1804.5 788.5 c 128,-1,3
 1835 894 1835 894 1872 981.5 c 128,-1,4
 1909 1069 1909 1069 1939.5 1164.5 c 128,-1,5
 1970 1260 1970 1260 1970 1318 c 0,6,7
 1970 1351 1970 1351 1951 1376 c 1,8,-1
 1977 1396 l 1,9,10
 2007 1354 2007 1354 2069 1354 c 2,11,-1
 2436 1354 l 2,12,13
 2495 1354 2495 1354 2543 1387 c 1,14,-1
 2556 1367 l 1,15,16
 2512 1337 2512 1337 2491 1276 c 0,17,18
 2484 1255 2484 1255 2430 1105 c 128,-1,19
 2376 955 2376 955 2322 801.5 c 128,-1,20
 2268 648 2268 648 2209.5 478 c 128,-1,21
 2151 308 2151 308 2114 190.5 c 128,-1,22
 2077 73 2077 73 2077 51 c 0,23,24
 2077 21 2077 21 2096 -4 c 1,25,-1
 2069 -24 l 1,26,27
 2039 19 2039 19 1978 19 c 2,28,-1
 1607 20 l 2,29,30
 1545 20 1545 20 1516 -22 c 1,31,-1
 1489 -4 l 1,32,33
 1507 20 1507 20 1507 51 c 0,34,35
 1507 105 1507 105 1473 197.5 c 128,-1,36
 1439 290 1439 290 1398.5 375 c 128,-1,37
 1358 460 1358 460 1324 561.5 c 128,-1,38
 1290 663 1290 663 1290 733 c 1,39,-1
 1278 733 l 1,40,41
 1278 662 1278 662 1244 560.5 c 128,-1,42
 1210 459 1210 459 1169 373.5 c 128,-1,43
 1128 288 1128 288 1094 196 c 128,-1,44
 1060 104 1060 104 1060 51 c 0,45,46
 1060 19 1060 19 1079 -4 c 1,47,-1
 1052 -22 l 1,48,49
 1023 20 1023 20 961 20 c 2,50,-1
 591 19 l 2,51,52
 532 19 532 19 532 -16 c 0,53,54
 532 -57 532 -57 540.5 -138.5 c 128,-1,55
 549 -220 549 -220 549 -261 c 0,56,57
 549 -286 549 -286 537 -307 c 128,-1,58
 525 -328 525 -328 502 -328 c 0,59,60
 481 -328 481 -328 471.5 -306.5 c 128,-1,61
 462 -285 462 -285 462 -261 c 0,62,63
 462 -210 462 -210 476 -110.5 c 128,-1,64
 490 -11 490 -11 490 40 c 0,65,66
 490 73 490 73 484 95 c 1,67,-1
 78 1276 l 2,68,69
 56 1337 56 1337 12 1367 c 1,70,-1
 26 1387 l 1,71,72
 74 1354 74 1354 133 1354 c 2,73,-1
 500 1354 l 2,74,75
 562 1354 562 1354 592 1396 c 1,76,-1
 618 1376 l 1,77,78
 597 1349 597 1349 597 1318 c 0,79,80
 597 1261 597 1261 628 1165.5 c 128,-1,81
 659 1070 659 1070 695.5 982.5 c 128,-1,82
 732 895 732 895 763 789 c 128,-1,83
 794 683 794 683 794 607 c 1,84,-1
 807 607 l 1,85,86
 807 678 807 678 844 785 c 128,-1,87
 881 892 881 892 925.5 983.5 c 128,-1,88
 970 1075 970 1075 1007 1172 c 128,-1,89
 1044 1269 1044 1269 1044 1324 c 0,90,91
 1044 1351 1044 1351 1026 1377 c 1,92,-1
 1052 1397 l 1,93,94
 1082 1354 1082 1354 1143 1354 c 2,95,-1
 1426 1354 l 2,96,97
 1486 1354 1486 1354 1516 1397 c 1,98,-1
 1543 1377 l 1,99,100
 1524 1352 1524 1352 1524 1324 c 0,101,102
 1524 1272 1524 1272 1560.5 1175.5 c 128,-1,103
 1597 1079 1597 1079 1641 988 c 128,-1,104
 1685 897 1685 897 1722.5 788.5 c 128,-1,105
 1760 680 1760 680 1761 607 c 1,0,-1
EndSplineSet
EndChar

StartChar: X
Encoding: 88 88 60
Width: 1832
GlyphClass: 2
Flags: W
LayerCount: 2
Fore
SplineSet
865 306 m 2,0,-1
 702 80 l 2,1,2
 679 47 679 47 679 24 c 0,3,4
 679 9 679 9 690 -13 c 1,5,-1
 657 -30 l 1,6,7
 643 -4 643 -4 624 5 c 128,-1,8
 605 14 605 14 573 14 c 2,9,-1
 101 14 l 2,10,11
 41 14 41 14 -13 -11 c 1,12,-1
 -21 4 l 1,13,14
 36 32 36 32 72 77 c 2,15,-1
 555 660 l 2,16,17
 594 706 594 706 648 706 c 1,18,-1
 648 737 l 1,19,20
 595 737 595 737 558 786 c 2,21,-1
 166 1288 l 2,22,23
 129 1336 129 1336 76 1362 c 1,24,-1
 84 1378 l 1,25,26
 136 1352 136 1352 197 1352 c 2,27,-1
 643 1350 l 2,28,29
 704 1350 704 1350 726 1395 c 1,30,-1
 758 1379 l 1,31,32
 748 1356 748 1356 748 1342 c 0,33,34
 747 1318 747 1318 773 1285 c 2,35,-1
 889 1135 l 2,36,37
 925 1089 925 1089 925 1030 c 1,38,-1
 950 1030 l 1,39,40
 950 1088 950 1088 987 1135 c 2,41,-1
 1103 1285 l 2,42,43
 1127 1317 1127 1317 1127 1342 c 0,44,45
 1127 1358 1127 1358 1118 1379 c 1,46,-1
 1150 1395 l 1,47,48
 1172 1350 1172 1350 1233 1350 c 2,49,-1
 1668 1352 l 2,50,51
 1728 1352 1728 1352 1782 1377 c 1,52,-1
 1789 1362 l 1,53,54
 1736 1336 1736 1336 1698 1289 c 2,55,-1
 1287 785 l 2,56,57
 1249 738 1249 738 1195 738 c 1,58,-1
 1195 706 l 1,59,60
 1249 706 1249 706 1286 659 c 2,61,-1
 1745 77 l 2,62,63
 1780 32 1780 32 1836 4 c 1,64,-1
 1828 -12 l 1,65,66
 1776 14 1776 14 1715 14 c 2,67,-1
 1253 14 l 2,68,69
 1209 14 1209 14 1184 -15 c 128,-1,70
 1159 -44 1159 -44 1159 -127 c 0,71,72
 1159 -195 1159 -195 1180 -380 c 128,-1,73
 1201 -565 1201 -565 1201 -640 c 0,74,75
 1201 -688 1201 -688 1177.5 -715 c 128,-1,76
 1154 -742 1154 -742 1122 -742 c 0,77,78
 1093 -742 1093 -742 1071.5 -718.5 c 128,-1,79
 1050 -695 1050 -695 1050 -652 c 0,80,81
 1050 -578 1050 -578 1084.5 -381 c 128,-1,82
 1119 -184 1119 -184 1119 -110 c 2,83,-1
 1120 80 l 1,84,-1
 961 306 l 1,85,86
 925 359 925 359 925 412 c 1,87,-1
 900 412 l 1,88,89
 900 355 900 355 865 306 c 2,0,-1
EndSplineSet
EndChar

StartChar: Y
Encoding: 89 89 61
Width: 1780
GlyphClass: 2
Flags: W
LayerCount: 2
Fore
SplineSet
689 10 m 0,0,1
 681 10 681 10 675 6.5 c 128,-1,2
 669 3 669 3 664.5 -4 c 128,-1,3
 660 -11 660 -11 657 -18 c 128,-1,4
 654 -25 654 -25 652 -37 c 128,-1,5
 650 -49 650 -49 649 -56.5 c 128,-1,6
 648 -64 648 -64 647.5 -77 c 128,-1,7
 647 -90 647 -90 647 -96 c 128,-1,8
 647 -102 647 -102 647 -113 c 128,-1,9
 647 -124 647 -124 647 -125 c 0,10,11
 647 -168 647 -168 666.5 -253 c 128,-1,12
 686 -338 686 -338 686 -382 c 0,13,14
 686 -450 686 -450 635 -450 c 0,15,16
 585 -450 585 -450 585 -382 c 0,17,18
 585 -336 585 -336 606 -248 c 128,-1,19
 627 -160 627 -160 627 -114 c 2,20,-1
 625 294 l 2,21,22
 625 325 625 325 633.5 342 c 128,-1,23
 642 359 642 359 669 367 c 1,24,-1
 659 405 l 1,25,26
 645 401 645 401 636 401 c 0,27,28
 624 401 624 401 613 408.5 c 128,-1,29
 602 416 602 416 597 423 c 128,-1,30
 592 430 592 430 583 444 c 2,31,-1
 76 1270 l 2,32,33
 46 1319 46 1319 -6 1350 c 1,34,-1
 3 1367 l 1,35,36
 53 1339 53 1339 116 1339 c 2,37,-1
 519 1341 l 2,38,39
 579 1341 579 1341 604 1384 c 1,40,-1
 635 1367 l 1,41,42
 622 1343 622 1343 622 1325 c 0,43,44
 622 1286 622 1286 662.5 1217 c 128,-1,45
 703 1148 703 1148 751.5 1083 c 128,-1,46
 800 1018 800 1018 840.5 939 c 128,-1,47
 881 860 881 860 881 802 c 1,48,-1
 902 802 l 1,49,-1
 902 810 l 2,50,51
 902 860 902 860 942.5 938 c 128,-1,52
 983 1016 983 1016 1032 1084 c 128,-1,53
 1081 1152 1081 1152 1121.5 1221.5 c 128,-1,54
 1162 1291 1162 1291 1162 1325 c 0,55,56
 1162 1341 1162 1341 1148 1367 c 1,57,-1
 1179 1384 l 1,58,59
 1204 1341 1204 1341 1265 1341 c 2,60,-1
 1644 1339 l 2,61,62
 1706 1339 1706 1339 1756 1367 c 1,63,-1
 1765 1350 l 1,64,65
 1711 1318 1711 1318 1682 1270 c 2,66,-1
 1170 444 l 2,67,68
 1156 421 1156 421 1145 411 c 128,-1,69
 1134 401 1134 401 1117 401 c 0,70,71
 1106 401 1106 401 1094 405 c 1,72,-1
 1082 368 l 1,73,74
 1130 353 1130 353 1130 268 c 0,75,76
 1130 248 1130 248 1127 201 c 128,-1,77
 1124 154 1124 154 1124 129 c 0,78,79
 1124 33 1124 33 1166 -9 c 1,80,-1
 1145 -29 l 1,81,82
 1106 10 1106 10 1046 10 c 2,83,-1
 812 10 l 2,84,85
 748 10 748 10 748 -171 c 0,86,87
 748 -203 748 -203 755.5 -264.5 c 128,-1,88
 763 -326 763 -326 763 -357 c 0,89,90
 763 -392 763 -392 742 -392 c 0,91,92
 720 -392 720 -392 720 -354 c 0,93,94
 720 -321 720 -321 725.5 -256.5 c 128,-1,95
 731 -192 731 -192 731 -158 c 0,96,97
 731 10 731 10 689 10 c 0,0,1
EndSplineSet
EndChar

StartChar: Z
Encoding: 90 90 62
Width: 1881
GlyphClass: 2
Flags: W
LayerCount: 2
Fore
SplineSet
1624 0 m 2,0,-1
 210 0 l 2,1,2
 149 0 149 0 110 -39 c 1,3,-1
 89 -19 l 1,4,5
 129 21 129 21 129 81 c 2,6,-1
 129 211 l 2,7,8
 129 243 129 243 119.5 261.5 c 128,-1,9
 110 280 110 280 84 292 c 1,10,-1
 99 326 l 1,11,12
 127 314 127 314 146 318.5 c 128,-1,13
 165 323 165 323 190 344 c 2,14,-1
 890 946 l 2,15,16
 938 986 938 986 992 1006 c 1,17,-1
 987 1020 l 1,18,19
 930 999 930 999 870 999 c 2,20,-1
 277 999 l 2,21,22
 218 999 218 999 178 959 c 1,23,-1
 158 980 l 1,24,25
 196 1018 196 1018 196 1080 c 2,26,-1
 196 1251 l 2,27,28
 196 1313 196 1313 158 1351 c 1,29,-1
 178 1372 l 1,30,31
 218 1332 218 1332 277 1332 c 2,32,-1
 1654 1332 l 2,33,34
 1714 1332 1714 1332 1754 1372 c 1,35,-1
 1774 1351 l 1,36,37
 1735 1312 1735 1312 1735 1251 c 2,38,-1
 1735 1096 l 2,39,40
 1735 1064 1735 1064 1744.5 1045.5 c 128,-1,41
 1754 1027 1754 1027 1780 1014 c 1,42,-1
 1765 981 l 1,43,44
 1736 992 1736 992 1717.5 988 c 128,-1,45
 1699 984 1699 984 1673 963 c 2,46,-1
 996 395 l 1,47,48
 950 358 950 358 894 337 c 1,49,-1
 899 323 l 1,50,51
 956 344 956 344 1015 344 c 2,52,-1
 1624 344 l 2,53,54
 1686 344 1686 344 1724 382 c 1,55,-1
 1744 362 l 1,56,57
 1706 324 1706 324 1706 263 c 2,58,-1
 1706 81 l 2,59,60
 1706 19 1706 19 1744 -19 c 1,61,-1
 1724 -39 l 1,62,63
 1685 0 1685 0 1624 0 c 2,0,-1
EndSplineSet
EndChar

StartChar: bracketleft
Encoding: 91 91 63
Width: 1128
GlyphClass: 2
Flags: W
LayerCount: 2
Fore
SplineSet
181 -174 m 2,0,-1
 181 1418 l 2,1,2
 181 1528 181 1528 138 1570 c 1,3,-1
 158 1590 l 1,4,5
 197 1552 197 1552 257 1552 c 2,6,-1
 974 1552 l 2,7,8
 1036 1552 1036 1552 1074 1590 c 1,9,-1
 1094 1570 l 1,10,11
 1055 1531 1055 1531 1055 1471 c 0,12,13
 1055 1454 1055 1454 1052.5 1410 c 128,-1,14
 1050 1366 1050 1366 1050 1342 c 0,15,16
 1050 1235 1050 1235 1094 1191 c 1,17,-1
 1074 1170 l 1,18,19
 1029 1216 1029 1216 927 1216 c 0,20,21
 912 1216 912 1216 882 1209 c 128,-1,22
 852 1202 852 1202 836 1202 c 0,23,24
 731 1202 731 1202 685 1248 c 1,25,-1
 665 1228 l 1,26,27
 704 1190 704 1190 704 1129 c 2,28,-1
 704 116 l 2,29,30
 704 54 704 54 665 16 c 1,31,-1
 685 -4 l 1,32,33
 731 42 731 42 836 42 c 0,34,35
 852 42 852 42 882 35.5 c 128,-1,36
 912 29 912 29 927 29 c 0,37,38
 1030 29 1030 29 1074 74 c 1,39,-1
 1094 53 l 1,40,41
 1050 9 1050 9 1050 -98 c 0,42,43
 1050 -122 1050 -122 1052.5 -165.5 c 128,-1,44
 1055 -209 1055 -209 1055 -226 c 0,45,46
 1055 -287 1055 -287 1094 -326 c 1,47,-1
 1074 -346 l 1,48,49
 1035 -307 1035 -307 974 -307 c 2,50,-1
 257 -307 l 2,51,52
 198 -307 198 -307 158 -346 c 1,53,-1
 138 -326 l 1,54,55
 181 -284 181 -284 181 -174 c 2,0,-1
EndSplineSet
EndChar

StartChar: backslash
Encoding: 92 92 64
Width: 801
GlyphClass: 2
Flags: W
LayerCount: 2
Fore
SplineSet
792 -1 m 1,0,-1
 436 -1 l 1,1,2
 433 58 433 58 405 170 c 1,3,-1
 106 1166 l 1,4,5
 69 1275 69 1275 35 1332 c 1,6,-1
 391 1332 l 1,7,8
 392 1293 392 1293 420 1166 c 1,9,-1
 719 170 l 1,10,11
 757 57 757 57 792 -1 c 1,0,-1
EndSplineSet
EndChar

StartChar: bracketright
Encoding: 93 93 65
Width: 1131
GlyphClass: 2
Flags: W
LayerCount: 2
Fore
SplineSet
952 1418 m 2,0,-1
 952 -174 l 2,1,2
 952 -284 952 -284 995 -326 c 1,3,-1
 975 -346 l 1,4,5
 935 -307 935 -307 875 -307 c 2,6,-1
 159 -307 l 2,7,8
 98 -307 98 -307 59 -346 c 1,9,-1
 39 -326 l 1,10,11
 78 -287 78 -287 78 -226 c 0,12,13
 78 -209 78 -209 80.5 -165.5 c 128,-1,14
 83 -122 83 -122 83 -98 c 0,15,16
 83 9 83 9 39 53 c 1,17,-1
 59 74 l 1,18,19
 103 29 103 29 206 29 c 0,20,21
 221 29 221 29 251 35.5 c 128,-1,22
 281 42 281 42 297 42 c 0,23,24
 402 42 402 42 448 -4 c 1,25,-1
 469 16 l 1,26,27
 429 55 429 55 429 116 c 2,28,-1
 429 1129 l 2,29,30
 429 1189 429 1189 469 1228 c 1,31,-1
 448 1248 l 1,32,33
 402 1202 402 1202 297 1202 c 0,34,35
 281 1202 281 1202 251 1209 c 128,-1,36
 221 1216 221 1216 206 1216 c 0,37,38
 104 1216 104 1216 59 1170 c 1,39,-1
 39 1191 l 1,40,41
 83 1235 83 1235 83 1342 c 0,42,43
 83 1366 83 1366 80.5 1410 c 128,-1,44
 78 1454 78 1454 78 1471 c 0,45,46
 78 1531 78 1531 39 1570 c 1,47,-1
 59 1590 l 1,48,49
 97 1552 97 1552 159 1552 c 2,50,-1
 875 1552 l 2,51,52
 936 1552 936 1552 975 1590 c 1,53,-1
 995 1570 l 1,54,55
 952 1528 952 1528 952 1418 c 2,0,-1
EndSplineSet
EndChar

StartChar: asciicircum
Encoding: 94 94 66
Width: 1399
GlyphClass: 2
Flags: W
LayerCount: 2
Fore
SplineSet
530 1023 m 2,0,-1
 882 1023 l 2,1,2
 900 1023 900 1023 920 992 c 2,3,-1
 1290 389 l 2,4,5
 1312 352 1312 352 1351 330 c 1,6,-1
 1344 318 l 1,7,8
 1310 338 1310 338 1262 338 c 2,9,-1
 967 337 l 2,10,11
 923 337 923 337 905 305 c 1,12,-1
 883 318 l 1,13,14
 892 341 892 341 892 349 c 0,15,16
 892 378 892 378 862.5 428 c 128,-1,17
 833 478 833 478 798 525.5 c 128,-1,18
 763 573 763 573 733.5 631 c 128,-1,19
 704 689 704 689 704 731 c 1,20,-1
 688 731 l 1,21,-1
 688 725 l 2,22,23
 688 679 688 679 640.5 601 c 128,-1,24
 593 523 593 523 545.5 451.5 c 128,-1,25
 498 380 498 380 498 349 c 0,26,27
 498 338 498 338 508 318 c 1,28,-1
 486 305 l 1,29,30
 468 337 468 337 423 337 c 2,31,-1
 146 338 l 2,32,33
 101 338 101 338 65 318 c 1,34,-1
 57 330 l 1,35,36
 96 352 96 352 118 389 c 2,37,-1
 492 992 l 2,38,39
 500 1004 500 1004 504 1009.5 c 128,-1,40
 508 1015 508 1015 514.5 1019 c 128,-1,41
 521 1023 521 1023 530 1023 c 2,0,-1
EndSplineSet
EndChar

StartChar: underscore
Encoding: 95 95 67
Width: 1034
GlyphClass: 2
Flags: W
LayerCount: 2
Fore
SplineSet
807 -325 m 2,0,-1
 239 -325 l 2,1,2
 162 -325 162 -325 110 -331 c 1,3,-1
 110 0 l 1,4,5
 162 -13 162 -13 281 -13 c 2,6,-1
 765 -13 l 2,7,8
 879 -13 879 -13 931 0 c 1,9,-1
 931 -331 l 1,10,11
 878 -325 878 -325 807 -325 c 2,0,-1
EndSplineSet
EndChar

StartChar: grave
Encoding: 96 96 68
Width: 858
GlyphClass: 2
Flags: W
LayerCount: 2
Fore
SplineSet
147 1207 m 0,0,1
 117 1213 117 1213 93 1215.5 c 128,-1,2
 69 1218 69 1218 61.5 1218 c 128,-1,3
 54 1218 54 1218 54 1220 c 0,4,5
 54 1221 54 1221 60 1228.5 c 128,-1,6
 66 1236 66 1236 77 1255.5 c 128,-1,7
 88 1275 88 1275 98 1300 c 2,8,-1
 173 1492 l 2,9,10
 184 1520 184 1520 189 1543.5 c 128,-1,11
 194 1567 194 1567 195 1575 c 128,-1,12
 196 1583 196 1583 197 1583 c 128,-1,13
 198 1583 198 1583 204.5 1576 c 128,-1,14
 211 1569 211 1569 229 1554.5 c 128,-1,15
 247 1540 247 1540 272 1526 c 2,16,-1
 702 1276 l 2,17,18
 773 1234 773 1234 773 1231 c 128,-1,19
 773 1228 773 1228 764.5 1222 c 128,-1,20
 756 1216 756 1216 746 1206 c 128,-1,21
 736 1196 736 1196 727.5 1169.5 c 128,-1,22
 719 1143 719 1143 719 1104 c 0,23,24
 719 1080 719 1080 724.5 1033.5 c 128,-1,25
 730 987 730 987 730 968 c 0,26,27
 730 952 730 952 721.5 942.5 c 128,-1,28
 713 933 713 933 702 933 c 0,29,30
 692 933 692 933 684.5 941.5 c 128,-1,31
 677 950 677 950 677 965 c 0,32,33
 677 979 677 979 679.5 1015 c 128,-1,34
 682 1051 682 1051 682 1067 c 0,35,36
 682 1079 682 1079 613 1097 c 128,-1,37
 544 1115 544 1115 147 1207 c 0,0,1
EndSplineSet
EndChar

StartChar: a
Encoding: 97 97 69
Width: 1768
GlyphClass: 2
Flags: W
LayerCount: 2
Fore
SplineSet
1462 -334 m 0,0,1
 1462 -350 1462 -350 1453.5 -358.5 c 128,-1,2
 1445 -367 1445 -367 1434 -367 c 128,-1,3
 1423 -367 1423 -367 1415 -357.5 c 128,-1,4
 1407 -348 1407 -348 1407 -331 c 0,5,6
 1407 -262 1407 -262 1433 -158 c 1,7,8
 1462 -278 1462 -278 1462 -334 c 0,0,1
758 429 m 2,9,-1
 949 429 l 2,10,11
 1009 429 1009 429 1057 397 c 1,12,-1
 1070 416 l 1,13,14
 1023 448 1023 448 1002 505 c 1,15,-1
 875 830 l 2,16,17
 853 887 853 887 852 946 c 1,18,-1
 839 946 l 1,19,20
 837 880 837 880 819 830 c 2,21,-1
 704 506 l 2,22,23
 683 448 683 448 637 416 c 1,24,-1
 650 396 l 1,25,26
 697 429 697 429 758 429 c 2,9,-1
1460 -31 m 0,27,28
 1460 -47 1460 -47 1452 -55.5 c 128,-1,29
 1444 -64 1444 -64 1433 -64 c 0,30,31
 1421 -64 1421 -64 1411.5 -54.5 c 128,-1,32
 1402 -45 1402 -45 1402 -29 c 0,33,34
 1402 -10 1402 -10 1404 0 c 1,35,-1
 1283 0 l 2,36,37
 1270 0 1270 0 1263 -1.5 c 128,-1,38
 1256 -3 1256 -3 1244 -14.5 c 128,-1,39
 1232 -26 1232 -26 1226 -48 c 128,-1,40
 1220 -70 1220 -70 1215 -114.5 c 128,-1,41
 1210 -159 1210 -159 1210 -223 c 0,42,43
 1210 -260 1210 -260 1220 -323 c 128,-1,44
 1230 -386 1230 -386 1230 -406 c 0,45,46
 1230 -433 1230 -433 1218.5 -447.5 c 128,-1,47
 1207 -462 1207 -462 1190 -462 c 128,-1,48
 1173 -462 1173 -462 1161 -448 c 128,-1,49
 1149 -434 1149 -434 1149 -410 c 0,50,51
 1149 -384 1149 -384 1161.5 -312 c 128,-1,52
 1174 -240 1174 -240 1174 -204 c 2,53,-1
 1174 77 l 1,54,55
 1164 104 1164 104 1164 122 c 0,56,57
 1164 150 1164 150 1182 176 c 1,58,-1
 1156 195 l 1,59,60
 1126 152 1126 152 1066 152 c 2,61,-1
 655 152 l 2,62,63
 595 152 595 152 565 194 c 1,64,-1
 539 176 l 1,65,66
 558 149 558 149 558 119 c 0,67,68
 558 103 558 103 551 77 c 1,69,-1
 551 76 l 1,70,71
 542 42 542 42 542 33 c 0,72,73
 542 6 542 6 562 -23 c 1,74,-1
 536 -42 l 1,75,76
 506 0 506 0 446 0 c 2,77,-1
 84 0 l 1,78,79
 81 -19 81 -19 81 -64 c 0,80,81
 81 -90 81 -90 82.5 -144 c 128,-1,82
 84 -198 84 -198 84 -223 c 0,83,84
 84 -271 84 -271 69 -295.5 c 128,-1,85
 54 -320 54 -320 33 -320 c 0,86,87
 -9 -320 -9 -320 -9 -230 c 0,88,89
 -9 -158 -9 -158 11 -59.5 c 128,-1,90
 31 39 31 39 46 76 c 2,91,-1
 526 1257 l 2,92,93
 536 1283 536 1283 536 1306 c 0,94,95
 536 1333 536 1333 519 1357 c 1,96,-1
 547 1375 l 1,97,98
 576 1332 576 1332 637 1332 c 2,99,-1
 1097 1332 l 2,100,101
 1157 1332 1157 1332 1186 1375 c 1,102,-1
 1215 1357 l 1,103,104
 1198 1333 1198 1333 1198 1307 c 0,105,106
 1198 1289 1198 1289 1210 1258 c 2,107,-1
 1704 75 l 2,108,109
 1727 19 1727 19 1775 -13 c 1,110,-1
 1763 -32 l 1,111,112
 1714 0 1714 0 1654 0 c 2,113,-1
 1458 0 l 1,114,115
 1460 -22 1460 -22 1460 -31 c 0,27,28
EndSplineSet
EndChar

StartChar: b
Encoding: 98 98 70
Width: 1979
GlyphClass: 2
Flags: W
LayerCount: 2
Fore
SplineSet
327 -844 m 0,0,1
 294 -844 294 -844 294 -795 c 0,2,3
 294 -774 294 -774 297.5 -748.5 c 128,-1,4
 301 -723 301 -723 305 -706 c 128,-1,5
 309 -689 309 -689 317 -659 c 128,-1,6
 325 -629 325 -629 328 -616 c 1,7,8
 331 -631 331 -631 341.5 -671.5 c 128,-1,9
 352 -712 352 -712 357 -740.5 c 128,-1,10
 362 -769 362 -769 362 -797 c 0,11,12
 362 -816 362 -816 353.5 -830 c 128,-1,13
 345 -844 345 -844 327 -844 c 0,0,1
1133 995 m 2,14,-1
 772 994 l 2,15,16
 717 994 717 994 677 1032 c 1,17,-1
 658 1012 l 1,18,19
 697 973 697 973 697 918 c 0,20,21
 697 861 697 861 658 820 c 1,22,-1
 677 801 l 1,23,24
 721 844 721 844 849 844 c 0,25,26
 888 844 888 844 966.5 839 c 128,-1,27
 1045 834 1045 834 1083 834 c 0,28,29
 1115 834 1115 834 1139 836.5 c 128,-1,30
 1163 839 1163 839 1191.5 847.5 c 128,-1,31
 1220 856 1220 856 1236 877 c 128,-1,32
 1252 898 1252 898 1252 929 c 0,33,34
 1252 953 1252 953 1229.5 969 c 128,-1,35
 1207 985 1207 985 1182 990 c 128,-1,36
 1157 995 1157 995 1133 995 c 2,14,-1
691 419 m 0,37,38
 691 356 691 356 652 317 c 1,39,-1
 672 296 l 1,40,41
 712 336 712 336 772 336 c 2,42,-1
 1165 336 l 2,43,44
 1172 336 1172 336 1195 335.5 c 128,-1,45
 1218 335 1218 335 1227.5 335.5 c 128,-1,46
 1237 336 1237 336 1256.5 338 c 128,-1,47
 1276 340 1276 340 1285.5 345.5 c 128,-1,48
 1295 351 1295 351 1306.5 359.5 c 128,-1,49
 1318 368 1318 368 1322.5 383.5 c 128,-1,50
 1327 399 1327 399 1327 419 c 0,51,52
 1327 461 1327 461 1292 482 c 128,-1,53
 1257 503 1257 503 1212 503 c 2,54,-1
 772 500 l 2,55,56
 711 500 711 500 672 539 c 1,57,-1
 652 519 l 1,58,59
 691 480 691 480 691 419 c 0,37,38
144 -402 m 0,60,61
 144 -351 144 -351 160 -249.5 c 128,-1,62
 176 -148 176 -148 176 -97 c 2,63,-1
 177 1251 l 2,64,65
 177 1313 177 1313 138 1351 c 1,66,-1
 158 1372 l 1,67,68
 200 1332 200 1332 258 1332 c 2,69,-1
 1104 1332 l 2,70,71
 1119 1332 1119 1332 1150 1332 c 1,72,73
 1195 1334 1195 1334 1247 1332 c 128,-1,74
 1299 1330 1299 1330 1353.5 1328.5 c 128,-1,75
 1408 1327 1408 1327 1462.5 1318 c 128,-1,76
 1517 1309 1517 1309 1567 1296.5 c 128,-1,77
 1617 1284 1617 1284 1660 1260 c 128,-1,78
 1703 1236 1703 1236 1735 1205.5 c 128,-1,79
 1767 1175 1767 1175 1785.5 1129 c 128,-1,80
 1804 1083 1804 1083 1804 1027 c 0,81,82
 1804 936 1804 936 1757 860.5 c 128,-1,83
 1710 785 1710 785 1625 778 c 1,84,-1
 1627 758 l 1,85,86
 1686 763 1686 763 1737 730.5 c 128,-1,87
 1788 698 1788 698 1819.5 644.5 c 128,-1,88
 1851 591 1851 591 1869 531 c 128,-1,89
 1887 471 1887 471 1887 417 c 0,90,91
 1887 334 1887 334 1858.5 267 c 128,-1,92
 1830 200 1830 200 1779 156 c 128,-1,93
 1728 112 1728 112 1666 80 c 128,-1,94
 1604 48 1604 48 1528 31.5 c 128,-1,95
 1452 15 1452 15 1383 7.5 c 128,-1,96
 1314 0 1314 0 1240 0 c 2,97,-1
 305 0 l 1,98,99
 305 -31 305 -31 316 -92 c 128,-1,100
 327 -153 327 -153 327 -183 c 0,101,102
 327 -244 327 -244 284 -244 c 0,103,104
 242 -244 242 -244 242 -184 c 0,105,106
 242 -156 242 -156 254 -101 c 128,-1,107
 266 -46 266 -46 266 -19 c 0,108,109
 266 38 266 38 242 38 c 0,110,111
 223 38 223 38 214 8.5 c 128,-1,112
 205 -21 205 -21 205 -46 c 0,113,114
 205 -106 205 -106 219.5 -226.5 c 128,-1,115
 234 -347 234 -347 234 -408 c 0,116,117
 234 -466 234 -466 191 -466 c 0,118,119
 144 -466 144 -466 144 -402 c 0,60,61
EndSplineSet
EndChar

StartChar: c
Encoding: 99 99 71
Width: 1951
GlyphClass: 2
Flags: W
LayerCount: 2
Fore
SplineSet
712 -24 m 1,0,1
 407 19 407 19 242.5 196 c 128,-1,2
 78 373 78 373 78 679 c 0,3,4
 78 793 78 793 104.5 888.5 c 128,-1,5
 131 984 131 984 177.5 1054.5 c 128,-1,6
 224 1125 224 1125 291.5 1180.5 c 128,-1,7
 359 1236 359 1236 437 1272 c 128,-1,8
 515 1308 515 1308 608 1331.5 c 128,-1,9
 701 1355 701 1355 795 1365 c 128,-1,10
 889 1375 889 1375 993 1375 c 0,11,12
 1738 1375 1738 1375 1826 947 c 0,13,14
 1838 885 1838 885 1879 852 c 1,15,-1
 1862 830 l 1,16,17
 1814 866 1814 866 1758 861 c 1,18,-1
 1373 837 l 2,19,20
 1306 832 1306 832 1286 788 c 1,21,-1
 1253 804 l 1,22,23
 1263 826 1263 826 1263 842 c 0,24,25
 1263 894 1263 894 1228.5 932.5 c 128,-1,26
 1194 971 1194 971 1141 990 c 128,-1,27
 1088 1009 1088 1009 1037.5 1018 c 128,-1,28
 987 1027 987 1027 941 1027 c 0,29,30
 793 1027 793 1027 710.5 926.5 c 128,-1,31
 628 826 628 826 628 676 c 0,32,33
 628 505 628 505 721.5 403.5 c 128,-1,34
 815 302 815 302 984 302 c 0,35,36
 1038 302 1038 302 1104.5 328.5 c 128,-1,37
 1171 355 1171 355 1222.5 405 c 128,-1,38
 1274 455 1274 455 1274 511 c 0,39,40
 1274 527 1274 527 1263 551 c 1,41,-1
 1296 568 l 1,42,43
 1320 523 1320 523 1383 518 c 0,44,45
 1427 515 1427 515 1512 507.5 c 128,-1,46
 1597 500 1597 500 1666 495.5 c 128,-1,47
 1735 491 1735 491 1795 491 c 0,48,49
 1845 491 1845 491 1887 522 c 1,50,-1
 1903 501 l 1,51,52
 1866 473 1866 473 1849 407 c 1,53,54
 1829 322 1829 322 1776 252.5 c 128,-1,55
 1723 183 1723 183 1656.5 137.5 c 128,-1,56
 1590 92 1590 92 1502.5 57.5 c 128,-1,57
 1415 23 1415 23 1336.5 4 c 128,-1,58
 1258 -15 1258 -15 1171 -27 c 1,59,60
 1171 -119 1171 -119 1195 -300 c 128,-1,61
 1219 -481 1219 -481 1219 -572 c 0,62,63
 1219 -601 1219 -601 1204.5 -625 c 128,-1,64
 1190 -649 1190 -649 1162 -649 c 128,-1,65
 1134 -649 1134 -649 1119 -625 c 128,-1,66
 1104 -601 1104 -601 1104 -572 c 0,67,68
 1104 -496 1104 -496 1120.5 -345 c 128,-1,69
 1137 -194 1137 -194 1137 -119 c 0,70,71
 1137 -92 1137 -92 1132 -74 c 128,-1,72
 1127 -56 1127 -56 1120 -46.5 c 128,-1,73
 1113 -37 1113 -37 1096 -32.5 c 128,-1,74
 1079 -28 1079 -28 1066 -27.5 c 128,-1,75
 1053 -27 1053 -27 1024 -27 c 0,76,77
 1018 -27 1018 -27 1015 -27 c 0,78,79
 997 -27 997 -27 972.5 -29 c 128,-1,80
 948 -31 948 -31 920 -40.5 c 128,-1,81
 892 -50 892 -50 892 -64 c 0,82,83
 892 -110 892 -110 904 -200 c 128,-1,84
 916 -290 916 -290 916 -336 c 0,85,86
 916 -401 916 -401 878 -401 c 0,87,88
 858 -401 858 -401 849 -380.5 c 128,-1,89
 840 -360 840 -360 840 -338 c 0,90,91
 840 -291 840 -291 853.5 -200 c 128,-1,92
 867 -109 867 -109 867 -62 c 0,93,94
 867 -49 867 -49 860.5 -39.5 c 128,-1,95
 854 -30 854 -30 841 -30 c 0,96,97
 832 -30 832 -30 820 -31 c 128,-1,98
 808 -32 808 -32 792.5 -35 c 128,-1,99
 777 -38 777 -38 766 -45 c 128,-1,100
 755 -52 755 -52 755 -61 c 0,101,102
 755 -133 755 -133 760.5 -277.5 c 128,-1,103
 766 -422 766 -422 766 -494 c 0,104,105
 766 -511 766 -511 755 -524.5 c 128,-1,106
 744 -538 744 -538 728 -538 c 128,-1,107
 712 -538 712 -538 702.5 -526.5 c 128,-1,108
 693 -515 693 -515 693 -499 c 0,109,110
 693 -413 693 -413 702 -253 c 128,-1,111
 711 -93 711 -93 712 -24 c 1,0,1
EndSplineSet
EndChar

StartChar: d
Encoding: 100 100 72
Width: 1982
GlyphClass: 2
Flags: W
LayerCount: 2
Fore
SplineSet
1337 698 m 0,0,1
 1337 787 1337 787 1307 847 c 128,-1,2
 1277 907 1277 907 1227 935 c 128,-1,3
 1177 963 1177 963 1116 976.5 c 128,-1,4
 1055 990 1055 990 988.5 991.5 c 128,-1,5
 922 993 922 993 863.5 994 c 128,-1,6
 805 995 805 995 755 1004 c 128,-1,7
 705 1013 705 1013 682 1036 c 1,8,-1
 662 1016 l 1,9,10
 701 978 701 978 701 916 c 0,11,12
 701 469 701 469 703 342 c 1,13,-1
 930 342 l 2,14,15
 1018 342 1018 342 1078 350 c 128,-1,16
 1138 358 1138 358 1190.5 380 c 128,-1,17
 1243 402 1243 402 1273 441.5 c 128,-1,18
 1303 481 1303 481 1320 544.5 c 128,-1,19
 1337 608 1337 608 1337 698 c 0,0,1
685 0 m 2,20,-1
 265 0 l 2,21,22
 206 0 206 0 166 -39 c 1,23,-1
 146 -19 l 1,24,25
 184 19 184 19 184 81 c 2,26,-1
 184 1251 l 2,27,28
 184 1314 184 1314 146 1351 c 1,29,-1
 166 1372 l 1,30,31
 207 1332 207 1332 265 1332 c 2,32,-1
 1092 1332 l 2,33,34
 1225 1332 1225 1332 1338 1312 c 128,-1,35
 1451 1292 1451 1292 1551.5 1244.5 c 128,-1,36
 1652 1197 1652 1197 1722.5 1125 c 128,-1,37
 1793 1053 1793 1053 1833.5 943 c 128,-1,38
 1874 833 1874 833 1874 693 c 0,39,40
 1874 297 1874 297 1660 139 c 0,41,42
 1513 30 1513 30 1219 8 c 0,43,44
 1105 -1 1105 -1 856 0 c 0,45,46
 807 0 807 0 782 0 c 0,47,48
 765 0 765 0 753 -48 c 128,-1,49
 741 -96 741 -96 741 -120 c 0,50,51
 741 -142 741 -142 749.5 -184 c 128,-1,52
 758 -226 758 -226 758 -248 c 0,53,54
 758 -286 758 -286 731 -286 c 0,55,56
 701 -286 701 -286 701 -247 c 0,57,58
 701 -223 701 -223 711 -176 c 128,-1,59
 721 -129 721 -129 721 -105 c 128,-1,60
 721 -81 721 -81 711.5 -40.5 c 128,-1,61
 702 0 702 0 685 0 c 2,20,-1
EndSplineSet
EndChar

StartChar: e
Encoding: 101 101 73
Width: 1789
GlyphClass: 2
Flags: W
LayerCount: 2
Fore
SplineSet
762 338 m 2,0,-1
 1578 337 l 2,1,2
 1639 337 1639 337 1677 376 c 1,3,-1
 1697 356 l 1,4,5
 1688 347 1688 347 1681 334 c 128,-1,6
 1674 321 1674 321 1669 309.5 c 128,-1,7
 1664 298 1664 298 1661 280 c 128,-1,8
 1658 262 1658 262 1656.5 250.5 c 128,-1,9
 1655 239 1655 239 1654 217.5 c 128,-1,10
 1653 196 1653 196 1653 187.5 c 128,-1,11
 1653 179 1653 179 1653 156.5 c 128,-1,12
 1653 134 1653 134 1653 130 c 0,13,14
 1653 29 1653 29 1697 -17 c 1,15,-1
 1677 -37 l 1,16,17
 1638 2 1638 2 1578 2 c 2,18,-1
 395 2 l 2,19,20
 347 2 347 2 316 -6.5 c 128,-1,21
 285 -15 285 -15 264.5 -32 c 128,-1,22
 244 -49 244 -49 233.5 -82 c 128,-1,23
 223 -115 223 -115 219.5 -154.5 c 128,-1,24
 216 -194 216 -194 216 -258 c 0,25,26
 216 -333 216 -333 239 -479.5 c 128,-1,27
 262 -626 262 -626 262 -700 c 0,28,29
 262 -807 262 -807 186 -807 c 0,30,31
 104 -807 104 -807 104 -697 c 0,32,33
 104 -622 104 -622 137 -475 c 128,-1,34
 170 -328 170 -328 170 -252 c 0,35,36
 170 -196 170 -196 167.5 -84.5 c 128,-1,37
 165 27 165 27 165 83 c 2,38,-1
 165 1249 l 2,39,40
 165 1311 165 1311 127 1348 c 1,41,-1
 147 1369 l 1,42,43
 188 1330 188 1330 247 1330 c 2,44,-1
 1531 1330 l 2,45,46
 1592 1330 1592 1330 1631 1369 c 1,47,-1
 1651 1348 l 1,48,49
 1642 1339 1642 1339 1635 1326.5 c 128,-1,50
 1628 1314 1628 1314 1623 1302.5 c 128,-1,51
 1618 1291 1618 1291 1615 1273 c 128,-1,52
 1612 1255 1612 1255 1610.5 1244 c 128,-1,53
 1609 1233 1609 1233 1608 1212 c 128,-1,54
 1607 1191 1607 1191 1607 1182.5 c 128,-1,55
 1607 1174 1607 1174 1607 1152 c 128,-1,56
 1607 1130 1607 1130 1607 1126 c 0,57,58
 1607 1019 1607 1019 1651 976 c 1,59,-1
 1631 957 l 1,60,61
 1581 1008 1581 1008 1396 1008 c 0,62,63
 1313 1008 1313 1008 1147.5 996.5 c 128,-1,64
 982 985 982 985 899 985 c 0,65,66
 715 985 715 985 665 1036 c 1,67,-1
 644 1016 l 1,68,69
 683 978 683 978 683 917 c 0,70,71
 683 853 683 853 644 815 c 1,72,-1
 665 796 l 1,73,74
 713 846 713 846 867 846 c 0,75,76
 937 846 937 846 1076.5 834.5 c 128,-1,77
 1216 823 1216 823 1286 823 c 0,78,79
 1441 823 1441 823 1491 873 c 1,80,-1
 1512 853 l 1,81,82
 1503 844 1503 844 1496 831 c 128,-1,83
 1489 818 1489 818 1484 806.5 c 128,-1,84
 1479 795 1479 795 1476 777 c 128,-1,85
 1473 759 1473 759 1471.5 747.5 c 128,-1,86
 1470 736 1470 736 1469 714.5 c 128,-1,87
 1468 693 1468 693 1468 684.5 c 128,-1,88
 1468 676 1468 676 1468 654 c 128,-1,89
 1468 632 1468 632 1468 628 c 0,90,91
 1468 525 1468 525 1512 479 c 1,92,-1
 1491 458 l 1,93,94
 1443 508 1443 508 1288 508 c 0,95,96
 1218 508 1218 508 1078.5 497 c 128,-1,97
 939 486 939 486 869 486 c 0,98,99
 715 486 715 486 665 536 c 1,100,-1
 645 516 l 1,101,102
 660 501 660 501 669 481 c 128,-1,103
 678 461 678 461 681.5 432 c 128,-1,104
 685 403 685 403 686 385.5 c 128,-1,105
 687 368 687 368 686 331.5 c 128,-1,106
 685 295 685 295 685 288 c 0,107,108
 685 268 685 268 676.5 228 c 128,-1,109
 668 188 668 188 668 168 c 0,110,111
 668 132 668 132 695 132 c 0,112,113
 721 132 721 132 721 166 c 0,114,115
 721 186 721 186 713 228 c 128,-1,116
 705 270 705 270 705 290 c 2,117,-1
 705 301 l 1,118,119
 726 338 726 338 762 338 c 2,0,-1
EndSplineSet
EndChar

StartChar: f
Encoding: 102 102 74
Width: 1765
GlyphClass: 2
Flags: W
LayerCount: 2
Fore
SplineSet
716 -120 m 0,0,1
 716 -75 716 -75 684 -37.5 c 128,-1,2
 652 0 652 0 608 0 c 0,3,4
 508 0 508 0 508 -243 c 0,5,6
 508 -300 508 -300 523 -414 c 128,-1,7
 538 -528 538 -528 538 -586 c 0,8,9
 538 -612 538 -612 525.5 -632 c 128,-1,10
 513 -652 513 -652 489 -652 c 0,11,12
 464 -652 464 -652 450.5 -630.5 c 128,-1,13
 437 -609 437 -609 437 -583 c 0,14,15
 437 -529 437 -529 454.5 -423 c 128,-1,16
 472 -317 472 -317 472 -263 c 0,17,18
 472 -221 472 -221 466.5 -178.5 c 128,-1,19
 461 -136 461 -136 446.5 -87.5 c 128,-1,20
 432 -39 432 -39 400.5 -9 c 128,-1,21
 369 21 369 21 324 21 c 0,22,23
 270 21 270 21 230.5 -22 c 128,-1,24
 191 -65 191 -65 191 -119 c 0,25,26
 191 -142 191 -142 205 -184 c 128,-1,27
 219 -226 219 -226 219 -249 c 0,28,29
 219 -293 219 -293 187 -293 c 0,30,31
 154 -293 154 -293 154 -249 c 0,32,33
 154 -222 154 -222 166 -169 c 128,-1,34
 178 -116 178 -116 178 -89 c 2,35,-1
 177 1184 l 2,36,37
 177 1302 177 1302 105 1381 c 1,38,-1
 125 1401 l 1,39,40
 205 1330 205 1330 322 1330 c 2,41,-1
 1476 1330 l 2,42,43
 1593 1330 1593 1330 1673 1401 c 1,44,-1
 1693 1381 l 1,45,46
 1622 1301 1622 1301 1622 1184 c 0,47,48
 1622 1101 1622 1101 1635 1046 c 128,-1,49
 1648 991 1648 991 1693 940 c 1,50,-1
 1673 920 l 1,51,52
 1649 952 1649 952 1614 971.5 c 128,-1,53
 1579 991 1579 991 1541 991 c 2,54,-1
 782 991 l 2,55,56
 726 991 726 991 686 1029 c 1,57,-1
 667 1010 l 1,58,59
 705 970 705 970 705 914 c 0,60,61
 705 856 705 856 667 816 c 1,62,-1
 686 797 l 1,63,64
 719 829 719 829 765.5 838 c 128,-1,65
 812 847 812 847 876 847 c 128,-1,66
 940 847 940 847 1066 836.5 c 128,-1,67
 1192 826 1192 826 1256 826 c 0,68,69
 1349 826 1349 826 1420.5 842 c 128,-1,70
 1492 858 1492 858 1543 907 c 1,71,-1
 1563 887 l 1,72,73
 1488 805 1488 805 1488 640 c 0,74,75
 1488 515 1488 515 1557 443 c 1,76,-1
 1536 423 l 1,77,78
 1445 504 1445 504 1242 504 c 0,79,80
 1180 504 1180 504 1055 493.5 c 128,-1,81
 930 483 930 483 868 483 c 0,82,83
 827 483 827 483 800.5 485 c 128,-1,84
 774 487 774 487 738.5 499 c 128,-1,85
 703 511 703 511 681 533 c 1,86,-1
 662 513 l 1,87,88
 699 475 699 475 699 413 c 0,89,90
 699 379 699 379 695 311 c 128,-1,91
 691 243 691 243 691 209 c 0,92,93
 691 154 691 154 717.5 46.5 c 128,-1,94
 744 -61 744 -61 744 -116 c 0,95,96
 744 -164 744 -164 761 -257 c 128,-1,97
 778 -350 778 -350 778 -398 c 0,98,99
 778 -463 778 -463 730 -463 c 0,100,101
 681 -463 681 -463 681 -399 c 0,102,103
 681 -352 681 -352 698.5 -259.5 c 128,-1,104
 716 -167 716 -167 716 -120 c 0,0,1
EndSplineSet
EndChar

StartChar: g
Encoding: 103 103 75
Width: 1991
GlyphClass: 2
Flags: W
LayerCount: 2
Fore
SplineSet
1132 -44 m 1,0,-1
 1132 -140 l 2,1,2
 1132 -160 1132 -160 1140 -196 c 128,-1,3
 1148 -232 1148 -232 1148 -251 c 0,4,5
 1148 -275 1148 -275 1138 -288 c 128,-1,6
 1128 -301 1128 -301 1115 -301 c 0,7,8
 1103 -301 1103 -301 1093 -289 c 128,-1,9
 1083 -277 1083 -277 1083 -255 c 0,10,11
 1083 -254 1083 -254 1087 -233.5 c 128,-1,12
 1091 -213 1091 -213 1095 -186 c 128,-1,13
 1099 -159 1099 -159 1099 -142 c 0,14,15
 1099 -44 1099 -44 1090 -44 c 0,16,17
 894 -44 894 -44 678 -17 c 0,18,19
 675 -16 675 -16 673 -33.5 c 128,-1,20
 671 -51 671 -51 670 -88 c 128,-1,21
 669 -125 669 -125 669 -175 c 0,22,23
 669 -234 669 -234 687.5 -351 c 128,-1,24
 706 -468 706 -468 706 -527 c 0,25,26
 706 -559 706 -559 692 -583 c 128,-1,27
 678 -607 678 -607 649 -607 c 0,28,29
 622 -607 622 -607 602.5 -586 c 128,-1,30
 583 -565 583 -565 583 -538 c 0,31,32
 583 -472 583 -472 616 -352.5 c 128,-1,33
 649 -233 649 -233 649 -166 c 2,34,-1
 649 -10 l 1,35,36
 360 55 360 55 219 230.5 c 128,-1,37
 78 406 78 406 78 679 c 0,38,39
 78 828 78 828 122.5 947 c 128,-1,40
 167 1066 167 1066 244 1145 c 128,-1,41
 321 1224 321 1224 429.5 1276.5 c 128,-1,42
 538 1329 538 1329 661 1352 c 128,-1,43
 784 1375 784 1375 926 1375 c 0,44,45
 1095 1375 1095 1375 1238 1350 c 128,-1,46
 1381 1325 1381 1325 1479.5 1284.5 c 128,-1,47
 1578 1244 1578 1244 1652.5 1189.5 c 128,-1,48
 1727 1135 1727 1135 1768 1078.5 c 128,-1,49
 1809 1022 1809 1022 1827 962 c 128,-1,50
 1845 902 1845 902 1891 870 c 1,51,-1
 1876 850 l 1,52,53
 1835 880 1835 880 1768 880 c 1,54,-1
 1346 866 l 2,55,56
 1313 864 1313 864 1293.5 854 c 128,-1,57
 1274 844 1274 844 1261 818 c 1,58,-1
 1228 834 l 1,59,60
 1236 851 1236 851 1236 870 c 0,61,62
 1236 895 1236 895 1210 931 c 1,63,64
 1168 986 1168 986 1108.5 1009.5 c 128,-1,65
 1049 1033 1049 1033 934 1033 c 0,66,67
 854 1033 854 1033 793 1005 c 128,-1,68
 732 977 732 977 696.5 927.5 c 128,-1,69
 661 878 661 878 643.5 817.5 c 128,-1,70
 626 757 626 757 626 685 c 0,71,72
 626 503 626 503 730.5 397.5 c 128,-1,73
 835 292 835 292 1019 292 c 0,74,75
 1173 292 1173 292 1261 314 c 0,76,77
 1277 318 1277 318 1284 318 c 0,78,79
 1307 318 1307 318 1338 294 c 1,80,-1
 1350 310 l 1,81,82
 1327 328 1327 328 1319.5 343 c 128,-1,83
 1312 358 1312 358 1312 380 c 2,84,-1
 1312 388 l 2,85,86
 1312 428 1312 428 1348 464 c 1,87,-1
 1334 477 l 1,88,89
 1298 441 1298 441 1259 441 c 2,90,-1
 1162 441 l 2,91,92
 1101 441 1101 441 1062 402 c 1,93,-1
 1041 423 l 1,94,95
 1081 463 1081 463 1081 522 c 2,96,-1
 1081 670 l 2,97,98
 1081 730 1081 730 1041 770 c 1,99,-1
 1062 790 l 1,100,101
 1100 752 1100 752 1162 752 c 2,102,-1
 1776 752 l 2,103,104
 1838 752 1838 752 1876 790 c 1,105,-1
 1895 770 l 1,106,107
 1857 732 1857 732 1857 670 c 2,108,-1
 1857 251 l 2,109,110
 1857 220 1857 220 1865.5 201.5 c 128,-1,111
 1874 183 1874 183 1900 169 c 1,112,-1
 1884 140 l 1,113,114
 1866 149 1866 149 1845 149 c 0,115,116
 1821 149 1821 149 1792 130 c 0,117,118
 1560 -25 1560 -25 1132 -44 c 1,0,-1
EndSplineSet
EndChar

StartChar: h
Encoding: 104 104 76
Width: 1960
GlyphClass: 2
Flags: W
LayerCount: 2
Fore
SplineSet
1699 0 m 2,0,-1
 1346 0 l 2,1,2
 1285 0 1285 0 1246 -39 c 1,3,-1
 1226 -19 l 1,4,5
 1264 19 1264 19 1264 81 c 2,6,-1
 1262 417 l 2,7,8
 1262 477 1262 477 1300 516 c 1,9,-1
 1280 536 l 1,10,11
 1242 498 1242 498 1180 498 c 2,12,-1
 770 498 l 2,13,14
 709 498 709 498 670 536 c 1,15,-1
 650 516 l 1,16,17
 652 493 652 493 652 274 c 2,18,-1
 652 -177 l 2,19,20
 652 -268 652 -268 675 -435 c 128,-1,21
 698 -602 698 -602 698 -693 c 0,22,23
 698 -740 698 -740 681.5 -765 c 128,-1,24
 665 -790 665 -790 642 -790 c 128,-1,25
 619 -790 619 -790 602.5 -765.5 c 128,-1,26
 586 -741 586 -741 586 -697 c 0,27,28
 586 -690 586 -690 596 -597.5 c 128,-1,29
 606 -505 606 -505 616 -382.5 c 128,-1,30
 626 -260 626 -260 626 -180 c 0,31,32
 626 -111 626 -111 583.5 -59.5 c 128,-1,33
 541 -8 541 -8 481.5 15.5 c 128,-1,34
 422 39 422 39 359 39 c 0,35,36
 286 39 286 39 236.5 5 c 128,-1,37
 187 -29 187 -29 187 -91 c 0,38,39
 187 -150 187 -150 206.5 -267 c 128,-1,40
 226 -384 226 -384 226 -443 c 0,41,42
 226 -474 226 -474 212 -498 c 128,-1,43
 198 -522 198 -522 168 -522 c 0,44,45
 141 -522 141 -522 122 -501.5 c 128,-1,46
 103 -481 103 -481 103 -454 c 0,47,48
 103 -388 103 -388 135.5 -268 c 128,-1,49
 168 -148 168 -148 168 -81 c 2,50,-1
 168 1251 l 2,51,52
 168 1314 168 1314 130 1351 c 1,53,-1
 149 1372 l 1,54,55
 190 1332 190 1332 249 1332 c 2,56,-1
 608 1332 l 2,57,58
 667 1332 667 1332 707 1372 c 1,59,-1
 728 1351 l 1,60,61
 682 1305 682 1305 682 1201 c 0,62,63
 682 1164 682 1164 689.5 1085.5 c 128,-1,64
 697 1007 697 1007 697 971 c 0,65,66
 697 868 697 868 650 821 c 1,67,-1
 670 800 l 1,68,69
 709 839 709 839 770 839 c 2,70,-1
 1184 839 l 2,71,72
 1245 839 1245 839 1283 800 c 1,73,-1
 1304 821 l 1,74,75
 1257 869 1257 869 1257 974 c 0,76,77
 1257 1011 1257 1011 1265 1088.5 c 128,-1,78
 1273 1166 1273 1166 1273 1202 c 0,79,80
 1273 1304 1273 1304 1226 1351 c 1,81,-1
 1246 1372 l 1,82,83
 1287 1332 1287 1332 1346 1332 c 2,84,-1
 1699 1332 l 2,85,86
 1759 1332 1759 1332 1799 1372 c 1,87,-1
 1819 1351 l 1,88,89
 1780 1312 1780 1312 1780 1251 c 2,90,-1
 1780 81 l 2,91,92
 1780 21 1780 21 1819 -19 c 1,93,-1
 1799 -39 l 1,94,95
 1760 0 1760 0 1699 0 c 2,0,-1
EndSplineSet
EndChar

StartChar: i
Encoding: 105 105 77
Width: 882
GlyphClass: 2
Flags: W
LayerCount: 2
Fore
SplineSet
649 -273 m 0,0,1
 649 -235 649 -235 648.5 -211 c 128,-1,2
 648 -187 648 -187 645 -153 c 128,-1,3
 642 -119 642 -119 636 -97.5 c 128,-1,4
 630 -76 630 -76 620 -50 c 128,-1,5
 610 -24 610 -24 594 -8 c 128,-1,6
 578 8 578 8 556 22.5 c 128,-1,7
 534 37 534 37 503 43.5 c 128,-1,8
 472 50 472 50 434 50 c 0,9,10
 334 50 334 50 272.5 -23 c 128,-1,11
 211 -96 211 -96 211 -198 c 0,12,13
 211 -236 211 -236 226 -311.5 c 128,-1,14
 241 -387 241 -387 241 -425 c 0,15,16
 241 -497 241 -497 191 -497 c 0,17,18
 139 -497 139 -497 139 -427 c 0,19,20
 139 -388 139 -388 154.5 -310 c 128,-1,21
 170 -232 170 -232 170 -192 c 0,22,23
 170 -148 170 -148 173.5 -58.5 c 128,-1,24
 177 31 177 31 177 76 c 2,25,-1
 177 1251 l 2,26,27
 177 1313 177 1313 138 1351 c 1,28,-1
 158 1372 l 1,29,30
 200 1332 200 1332 258 1332 c 2,31,-1
 620 1332 l 2,32,33
 680 1332 680 1332 720 1372 c 1,34,-1
 740 1351 l 1,35,36
 701 1312 701 1312 701 1251 c 2,37,-1
 701 81 l 2,38,39
 701 29 701 29 690 -98.5 c 128,-1,40
 679 -226 679 -226 683 -295 c 1,41,-1
 682 -295 l 1,42,43
 719 -461 719 -461 719 -556 c 0,44,45
 719 -635 719 -635 686 -635 c 0,46,47
 669 -635 669 -635 658.5 -626 c 128,-1,48
 648 -617 648 -617 644 -599 c 128,-1,49
 640 -581 640 -581 639 -569.5 c 128,-1,50
 638 -558 638 -558 638 -539 c 0,51,52
 638 -494 638 -494 643.5 -406 c 128,-1,53
 649 -318 649 -318 649 -273 c 0,0,1
EndSplineSet
EndChar

StartChar: j
Encoding: 106 106 78
Width: 1650
GlyphClass: 2
Flags: W
LayerCount: 2
Fore
SplineSet
1192 -814 m 128,-1,1
 1167 -814 1167 -814 1167 -778 c 0,2,3
 1167 -694 1167 -694 1192 -587 c 1,4,5
 1217 -692 1217 -692 1217 -777 c 0,6,0
 1217 -814 1217 -814 1192 -814 c 128,-1,1
1196 22 m 1,7,-1
 1195 22 l 1,8,-1
 1195 -195 l 2,9,10
 1195 -230 1195 -230 1211.5 -298 c 128,-1,11
 1228 -366 1228 -366 1228 -400 c 0,12,13
 1228 -454 1228 -454 1185 -454 c 0,14,15
 1148 -454 1148 -454 1148 -403 c 0,16,17
 1148 -371 1148 -371 1161 -309 c 128,-1,18
 1174 -247 1174 -247 1174 -216 c 0,19,20
 1174 -159 1174 -159 1132 -114.5 c 128,-1,21
 1090 -70 1090 -70 1033.5 -49.5 c 128,-1,22
 977 -29 977 -29 922 -29 c 0,23,24
 887 -29 887 -29 868.5 -54.5 c 128,-1,25
 850 -80 850 -80 850 -117 c 0,26,27
 850 -164 850 -164 868 -254.5 c 128,-1,28
 886 -345 886 -345 886 -392 c 0,29,30
 886 -414 886 -414 876 -435.5 c 128,-1,31
 866 -457 866 -457 846 -457 c 0,32,33
 824 -457 824 -457 814 -433.5 c 128,-1,34
 804 -410 804 -410 804 -385 c 0,35,36
 804 -336 804 -336 816 -240 c 128,-1,37
 828 -144 828 -144 828 -95 c 0,38,39
 828 -62 828 -62 798 -41.5 c 128,-1,40
 768 -21 768 -21 734 -21 c 0,41,42
 690 -21 690 -21 690 -130 c 0,43,44
 690 -156 690 -156 700 -209 c 128,-1,45
 710 -262 710 -262 710 -288 c 0,46,47
 710 -312 710 -312 701.5 -338 c 128,-1,48
 693 -364 693 -364 674 -364 c 0,49,50
 644 -364 644 -364 644 -290 c 0,51,52
 644 -259 644 -259 658 -198.5 c 128,-1,53
 672 -138 672 -138 672 -107 c 0,54,55
 672 -73 672 -73 657 -56.5 c 128,-1,56
 642 -40 642 -40 608 -36 c 1,57,58
 480 -17 480 -17 384 17 c 128,-1,59
 288 51 288 51 233.5 91.5 c 128,-1,60
 179 132 179 132 142 181 c 128,-1,61
 105 230 105 230 92 278 c 128,-1,62
 79 326 79 326 71 375 c 128,-1,63
 63 424 63 424 62 463.5 c 128,-1,64
 61 503 61 503 51 536.5 c 128,-1,65
 41 570 41 570 22 587 c 1,66,-1
 31 597 l 1,67,68
 60 570 60 570 83 570 c 0,69,70
 137 570 137 570 204.5 579 c 128,-1,71
 272 588 272 588 353 602.5 c 128,-1,72
 434 617 434 617 474 622 c 0,73,74
 533 628 533 628 569 673 c 1,75,-1
 591 656 l 1,76,77
 559 616 559 616 559 566 c 0,78,79
 559 514 559 514 569.5 468.5 c 128,-1,80
 580 423 580 423 602.5 383.5 c 128,-1,81
 625 344 625 344 665.5 320.5 c 128,-1,82
 706 297 706 297 760 297 c 0,83,84
 869 297 869 297 926 360 c 128,-1,85
 983 423 983 423 983 532 c 2,86,-1
 984 1251 l 2,87,88
 984 1314 984 1314 946 1351 c 1,89,-1
 966 1372 l 1,90,91
 1006 1332 1006 1332 1066 1332 c 2,92,-1
 1414 1332 l 2,93,94
 1475 1332 1475 1332 1514 1372 c 1,95,-1
 1534 1351 l 1,96,97
 1495 1313 1495 1313 1495 1251 c 2,98,-1
 1495 473 l 2,99,100
 1495 146 1495 146 1196 22 c 1,7,-1
EndSplineSet
EndChar

StartChar: k
Encoding: 107 107 79
Width: 1978
GlyphClass: 2
Flags: W
LayerCount: 2
Fore
SplineSet
754 915 m 2,0,-1
 1131 1276 l 2,1,2
 1154 1298 1154 1298 1159.5 1316 c 128,-1,3
 1165 1334 1165 1334 1156 1364 c 1,4,-1
 1191 1377 l 1,5,6
 1202 1351 1202 1351 1220 1341.5 c 128,-1,7
 1238 1332 1238 1332 1270 1332 c 2,8,-1
 1772 1332 l 2,9,10
 1828 1332 1828 1332 1888 1354 c 1,11,-1
 1893 1340 l 1,12,13
 1837 1319 1837 1319 1792 1279 c 2,14,-1
 1386 926 l 1,15,16
 1342 886 1342 886 1287 893 c 1,17,-1
 1283 862 l 1,18,19
 1337 857 1337 857 1371 806 c 1,20,-1
 1889 67 l 2,21,22
 1923 17 1923 17 1975 -11 c 1,23,-1
 1966 -27 l 1,24,25
 1915 0 1915 0 1854 0 c 2,26,-1
 1371 0 l 2,27,28
 1339 0 1339 0 1320 -9.5 c 128,-1,29
 1301 -19 1301 -19 1287 -45 c 1,30,-1
 1255 -28 l 1,31,32
 1269 1 1269 1 1266 20.5 c 128,-1,33
 1263 40 1263 40 1245 68 c 2,34,-1
 959 490 l 1,35,36
 926 541 926 541 933 596 c 1,37,-1
 906 599 l 1,38,39
 899 545 899 545 851 506 c 1,40,-1
 759 427 l 1,41,42
 733 406 733 406 714.5 402 c 128,-1,43
 696 398 696 398 667 409 c 1,44,-1
 651 376 l 1,45,46
 677 363 677 363 686.5 344.5 c 128,-1,47
 696 326 696 326 696 294 c 2,48,-1
 696 81 l 2,49,50
 696 20 696 20 735 -19 c 1,51,-1
 715 -39 l 1,52,53
 676 0 676 0 615 0 c 2,54,-1
 268 0 l 2,55,56
 207 0 207 0 168 -39 c 1,57,-1
 148 -19 l 1,58,59
 187 20 187 20 187 81 c 2,60,-1
 187 1251 l 2,61,62
 187 1312 187 1312 148 1351 c 1,63,-1
 168 1372 l 1,64,65
 208 1332 208 1332 268 1332 c 2,66,-1
 615 1332 l 2,67,68
 675 1332 675 1332 715 1372 c 1,69,-1
 735 1351 l 1,70,71
 696 1312 696 1312 696 1251 c 2,72,-1
 696 940 l 2,73,74
 696 880 696 880 672 825 c 1,75,-1
 687 819 l 1,76,77
 710 873 710 873 754 915 c 2,0,-1
EndSplineSet
EndChar

StartChar: l
Encoding: 108 108 80
Width: 1672
GlyphClass: 2
Flags: W
LayerCount: 2
Fore
SplineSet
1174 -485 m 128,-1,1
 1140 -485 1140 -485 1140 -436 c 0,2,3
 1140 -417 1140 -417 1144 -391.5 c 128,-1,4
 1148 -366 1148 -366 1151.5 -351 c 128,-1,5
 1155 -336 1155 -336 1164 -302 c 128,-1,6
 1173 -268 1173 -268 1174 -263 c 1,7,8
 1176 -273 1176 -273 1184 -304 c 128,-1,9
 1192 -335 1192 -335 1196 -352 c 128,-1,10
 1200 -369 1200 -369 1204 -394 c 128,-1,11
 1208 -419 1208 -419 1208 -438 c 0,12,0
 1208 -485 1208 -485 1174 -485 c 128,-1,1
673 306 m 1,13,14
 724 357 724 357 896 357 c 0,15,16
 969 357 969 357 1133 345 c 128,-1,17
 1297 333 1297 333 1370 333 c 0,18,19
 1541 333 1541 333 1592 384 c 1,20,-1
 1613 364 l 1,21,22
 1573 325 1573 325 1573 264 c 0,23,24
 1573 247 1573 247 1571 203 c 128,-1,25
 1569 159 1569 159 1569 134 c 0,26,27
 1569 25 1569 25 1613 -19 c 1,28,-1
 1592 -39 l 1,29,30
 1554 0 1554 0 1492 0 c 2,31,-1
 1201 0 l 1,32,33
 1202 -14 1202 -14 1202 -37 c 0,34,35
 1202 -93 1202 -93 1174 -93 c 128,-1,36
 1146 -93 1146 -93 1146 -30 c 0,37,38
 1146 -11 1146 -11 1147 0 c 1,39,-1
 252 0 l 2,40,41
 228 0 228 0 210.5 -86.5 c 128,-1,42
 193 -173 193 -173 193 -209 c 0,43,44
 193 -277 193 -277 217 -411.5 c 128,-1,45
 241 -546 241 -546 241 -614 c 0,46,47
 241 -697 241 -697 182 -697 c 0,48,49
 118 -697 118 -697 118 -611 c 0,50,51
 118 -541 118 -541 145 -402.5 c 128,-1,52
 172 -264 172 -264 172 -194 c 2,53,-1
 171 1251 l 2,54,55
 171 1312 171 1312 131 1351 c 1,56,-1
 152 1372 l 1,57,58
 193 1332 193 1332 252 1332 c 2,59,-1
 610 1332 l 2,60,61
 671 1332 671 1332 710 1372 c 1,62,-1
 731 1351 l 1,63,64
 691 1312 691 1312 691 1251 c 2,65,-1
 691 426 l 2,66,67
 691 366 691 366 652 327 c 1,68,-1
 673 306 l 1,13,14
EndSplineSet
EndChar

StartChar: m
Encoding: 109 109 81
Width: 2407
GlyphClass: 2
Flags: W
LayerCount: 2
Fore
SplineSet
1029 -52 m 0,0,1
 1029 -70 1029 -70 1035 -106.5 c 128,-1,2
 1041 -143 1041 -143 1041 -161 c 0,3,4
 1041 -198 1041 -198 1015 -198 c 0,5,6
 987 -198 987 -198 987 -158 c 0,7,8
 987 -127 987 -127 995.5 -65 c 128,-1,9
 1004 -3 1004 -3 1004 29 c 0,10,11
 1004 96 1004 96 930.5 277.5 c 128,-1,12
 857 459 857 459 771 666 c 128,-1,13
 685 873 685 873 666 977 c 1,14,-1
 660 976 l 1,15,16
 670 919 670 919 670 856 c 2,17,-1
 670 -132 l 2,18,19
 670 -149 670 -149 685.5 -267 c 128,-1,20
 701 -385 701 -385 701 -437 c 0,21,22
 701 -483 701 -483 680.5 -509.5 c 128,-1,23
 660 -536 660 -536 632 -536 c 0,24,25
 606 -536 606 -536 586.5 -511 c 128,-1,26
 567 -486 567 -486 567 -442 c 0,27,28
 567 -399 567 -399 582.5 -289.5 c 128,-1,29
 598 -180 598 -180 598 -138 c 0,30,31
 598 -132 598 -132 598.5 -122.5 c 128,-1,32
 599 -113 599 -113 599 -109 c 0,33,34
 599 -83 599 -83 586.5 -71 c 128,-1,35
 574 -59 574 -59 525 -52.5 c 128,-1,36
 476 -46 476 -46 371 -46 c 0,37,38
 209 -46 209 -46 209 -48 c 0,39,40
 209 -55 209 -55 210.5 -114 c 128,-1,41
 212 -173 212 -173 212 -180 c 0,42,43
 212 -203 212 -203 189 -203 c 0,44,45
 167 -203 167 -203 167 -182 c 0,46,47
 167 -173 167 -173 170 -111.5 c 128,-1,48
 173 -50 173 -50 173 -43 c 2,49,-1
 173 1251 l 2,50,51
 173 1313 173 1313 134 1351 c 1,52,-1
 154 1372 l 1,53,54
 196 1332 196 1332 254 1332 c 2,55,-1
 895 1332 l 2,56,57
 956 1332 956 1332 985 1375 c 1,58,-1
 1011 1356 l 1,59,60
 993 1333 993 1333 993 1302 c 0,61,62
 993 1247 993 1247 1025 1162.5 c 128,-1,63
 1057 1078 1057 1078 1095 1002.5 c 128,-1,64
 1133 927 1133 927 1165.5 833.5 c 128,-1,65
 1198 740 1198 740 1198 670 c 1,66,-1
 1212 670 l 1,67,68
 1212 741 1212 741 1244 834.5 c 128,-1,69
 1276 928 1276 928 1314.5 1003 c 128,-1,70
 1353 1078 1353 1078 1384.5 1162 c 128,-1,71
 1416 1246 1416 1246 1416 1301 c 0,72,73
 1416 1331 1416 1331 1397 1356 c 1,74,-1
 1424 1375 l 1,75,76
 1453 1332 1453 1332 1514 1332 c 2,77,-1
 2155 1332 l 2,78,79
 2215 1332 2215 1332 2255 1372 c 1,80,-1
 2275 1351 l 1,81,82
 2236 1312 2236 1312 2236 1251 c 2,83,-1
 2236 81 l 2,84,85
 2236 8 2236 8 2235 -19 c 1,86,-1
 2215 -39 l 1,87,88
 2195 0 2195 0 2155 0 c 2,89,-1
 1820 0 l 2,90,91
 1770 0 1770 0 1770 -207 c 0,92,93
 1770 -243 1770 -243 1784.5 -312.5 c 128,-1,94
 1799 -382 1799 -382 1799 -417 c 0,95,96
 1799 -448 1799 -448 1786.5 -465 c 128,-1,97
 1774 -482 1774 -482 1756 -482 c 128,-1,98
 1738 -482 1738 -482 1724.5 -464.5 c 128,-1,99
 1711 -447 1711 -447 1711 -418 c 0,100,101
 1711 -385 1711 -385 1723.5 -316.5 c 128,-1,102
 1736 -248 1736 -248 1736 -216 c 2,103,-1
 1739 81 l 1,104,-1
 1739 856 l 2,105,106
 1739 919 1739 919 1749 976 c 1,107,-1
 1742 977 l 1,108,109
 1722 879 1722 879 1636 670 c 128,-1,110
 1550 461 1550 461 1477 277 c 128,-1,111
 1404 93 1404 93 1404 29 c 1,112,-1
 1408 -198 l 2,113,114
 1409 -258 1409 -258 1432 -378.5 c 128,-1,115
 1455 -499 1455 -499 1455 -563 c 0,116,117
 1455 -604 1455 -604 1438 -629.5 c 128,-1,118
 1421 -655 1421 -655 1399 -655 c 0,119,120
 1378 -655 1378 -655 1363.5 -631.5 c 128,-1,121
 1349 -608 1349 -608 1349 -562 c 0,122,123
 1349 -498 1349 -498 1363 -372 c 128,-1,124
 1377 -246 1377 -246 1377 -181 c 0,125,126
 1377 -133 1377 -133 1371 -95.5 c 128,-1,127
 1365 -58 1365 -58 1356.5 -33.5 c 128,-1,128
 1348 -9 1348 -9 1332 8.5 c 128,-1,129
 1316 26 1316 26 1302 35 c 128,-1,130
 1288 44 1288 44 1266 49 c 128,-1,131
 1244 54 1244 54 1228 55 c 128,-1,132
 1212 56 1212 56 1187 56 c 0,133,134
 1123 56 1123 56 1076 25 c 128,-1,135
 1029 -6 1029 -6 1029 -52 c 0,0,1
EndSplineSet
EndChar

StartChar: n
Encoding: 110 110 82
Width: 2009
GlyphClass: 2
Flags: W
LayerCount: 2
Fore
SplineSet
1741 0 m 2,0,-1
 1346 0 l 2,1,2
 1262 0 1262 0 1262 -153 c 0,3,4
 1262 -216 1262 -216 1285.5 -335.5 c 128,-1,5
 1309 -455 1309 -455 1309 -516 c 0,6,7
 1309 -603 1309 -603 1245 -603 c 0,8,9
 1179 -603 1179 -603 1179 -515 c 0,10,11
 1179 -459 1179 -459 1204.5 -352 c 128,-1,12
 1230 -245 1230 -245 1231 -191 c 2,13,-1
 1233 -58 l 1,14,15
 1236 35 1236 35 1214 63 c 2,16,-1
 735 670 l 2,17,18
 716 695 716 695 693 774 c 1,19,-1
 632 772 l 1,20,21
 684 718 684 718 684 652 c 2,22,-1
 684 81 l 2,23,24
 684 -3 684 -3 693.5 -172 c 128,-1,25
 703 -341 703 -341 703 -425 c 0,26,27
 703 -441 703 -441 693.5 -452.5 c 128,-1,28
 684 -464 684 -464 668 -464 c 0,29,30
 651 -464 651 -464 640 -450.5 c 128,-1,31
 629 -437 629 -437 629 -420 c 0,32,33
 629 -356 629 -356 635 -228 c 128,-1,34
 641 -100 641 -100 641 -36 c 0,35,36
 641 -24 641 -24 632 -14 c 128,-1,37
 623 -4 623 -4 611 -4 c 0,38,39
 598 -4 598 -4 591.5 -14 c 128,-1,40
 585 -24 585 -24 585 -37 c 0,41,42
 585 -84 585 -84 598.5 -175 c 128,-1,43
 612 -266 612 -266 612 -313 c 0,44,45
 612 -335 612 -335 603 -355.5 c 128,-1,46
 594 -376 594 -376 575 -376 c 0,47,48
 554 -376 554 -376 545.5 -355 c 128,-1,49
 537 -334 537 -334 537 -310 c 0,50,51
 537 -264 537 -264 549 -174 c 128,-1,52
 561 -84 561 -84 561 -39 c 0,53,54
 561 -7 561 -7 525 13.5 c 128,-1,55
 489 34 489 34 451.5 40.5 c 128,-1,56
 414 47 414 47 381 47 c 0,57,58
 355 47 355 47 328.5 43 c 128,-1,59
 302 39 302 39 272 30 c 128,-1,60
 242 21 242 21 223.5 1.5 c 128,-1,61
 205 -18 205 -18 205 -45 c 0,62,63
 205 -95 205 -95 228 -191 c 128,-1,64
 251 -287 251 -287 251 -337 c 0,65,66
 251 -366 251 -366 236.5 -389.5 c 128,-1,67
 222 -413 222 -413 194 -413 c 128,-1,68
 166 -413 166 -413 151 -389.5 c 128,-1,69
 136 -366 136 -366 136 -337 c 0,70,71
 136 -286 136 -286 160.5 -188 c 128,-1,72
 185 -90 185 -90 185 -40 c 2,73,-1
 184 1186 l 2,74,75
 184 1304 184 1304 112 1383 c 1,76,-1
 133 1404 l 1,77,78
 214 1332 214 1332 330 1332 c 2,79,-1
 629 1332 l 2,80,81
 693 1332 693 1332 737.5 1347.5 c 128,-1,82
 782 1363 782 1363 809 1409 c 1,83,-1
 842 1393 l 1,84,85
 816 1331 816 1331 816 1276 c 0,86,87
 816 1251 816 1251 861 1189.5 c 128,-1,88
 906 1128 906 1128 973.5 1050.5 c 128,-1,89
 1041 973 1041 973 1111 892.5 c 128,-1,90
 1181 812 1181 812 1239.5 732 c 128,-1,91
 1298 652 1298 652 1316 602 c 1,92,-1
 1376 602 l 1,93,94
 1327 674 1327 674 1327 805 c 0,95,96
 1327 866 1327 866 1342 987.5 c 128,-1,97
 1357 1109 1357 1109 1357 1170 c 0,98,99
 1357 1334 1357 1334 1253 1383 c 1,100,-1
 1274 1404 l 1,101,102
 1355 1332 1355 1332 1471 1332 c 2,103,-1
 1676 1332 l 2,104,105
 1792 1332 1792 1332 1873 1404 c 1,106,-1
 1893 1383 l 1,107,108
 1822 1303 1822 1303 1822 1186 c 2,109,-1
 1820 -35 l 2,110,111
 1820 -78 1820 -78 1840 -163.5 c 128,-1,112
 1860 -249 1860 -249 1860 -292 c 0,113,114
 1860 -356 1860 -356 1811 -356 c 128,-1,115
 1762 -356 1762 -356 1762 -292 c 0,116,117
 1762 -250 1762 -250 1781 -168.5 c 128,-1,118
 1800 -87 1800 -87 1800 -45 c 0,119,120
 1800 -26 1800 -26 1780 -13 c 128,-1,121
 1760 0 1760 0 1741 0 c 2,0,-1
EndSplineSet
EndChar

StartChar: o
Encoding: 111 111 83
Width: 1986
GlyphClass: 2
Flags: W
LayerCount: 2
Fore
SplineSet
633 676 m 0,0,1
 633 310 633 310 981 310 c 128,-1,2
 1329 310 1329 310 1329 676 c 0,3,4
 1329 844 1329 844 1239 933 c 128,-1,5
 1149 1022 1149 1022 981 1022 c 128,-1,6
 813 1022 813 1022 723 933 c 128,-1,7
 633 844 633 844 633 676 c 0,0,1
552 12 m 1,8,9
 315 87 315 87 195.5 257 c 128,-1,10
 76 427 76 427 76 677 c 0,11,12
 76 790 76 790 102 885.5 c 128,-1,13
 128 981 128 981 173.5 1052 c 128,-1,14
 219 1123 219 1123 285.5 1178.5 c 128,-1,15
 352 1234 352 1234 429 1270.5 c 128,-1,16
 506 1307 506 1307 598 1331 c 128,-1,17
 690 1355 690 1355 784 1365 c 128,-1,18
 878 1375 878 1375 981 1375 c 0,19,20
 1128 1375 1128 1375 1254.5 1355 c 128,-1,21
 1381 1335 1381 1335 1499.5 1284.5 c 128,-1,22
 1618 1234 1618 1234 1701.5 1156.5 c 128,-1,23
 1785 1079 1785 1079 1835 956.5 c 128,-1,24
 1885 834 1885 834 1885 677 c 0,25,26
 1885 357 1885 357 1705 181.5 c 128,-1,27
 1525 6 1525 6 1199 -34 c 1,28,29
 1195 -41 1195 -41 1195 -56 c 0,30,31
 1195 -66 1195 -66 1197.5 -85.5 c 128,-1,32
 1200 -105 1200 -105 1200 -111 c 0,33,34
 1200 -128 1200 -128 1193 -145 c 128,-1,35
 1186 -162 1186 -162 1171 -162 c 0,36,37
 1144 -162 1144 -162 1144 -113 c 0,38,39
 1144 -101 1144 -101 1145.5 -81.5 c 128,-1,40
 1147 -62 1147 -62 1147 -57 c 0,41,42
 1147 -42 1147 -42 1133.5 -34.5 c 128,-1,43
 1120 -27 1120 -27 1104 -27 c 1,44,45
 1100 -36 1100 -36 1100 -61 c 0,46,47
 1100 -78 1100 -78 1102.5 -113 c 128,-1,48
 1105 -148 1105 -148 1105 -158 c 0,49,50
 1105 -188 1105 -188 1094 -216 c 128,-1,51
 1083 -244 1083 -244 1057 -244 c 0,52,53
 1011 -244 1011 -244 1011 -162 c 0,54,55
 1011 -141 1011 -141 1014.5 -107 c 128,-1,56
 1018 -73 1018 -73 1018 -66 c 0,57,58
 1018 -41 1018 -41 994 -27.5 c 128,-1,59
 970 -14 970 -14 943 -14 c 0,60,61
 914 -14 914 -14 892 -29 c 128,-1,62
 870 -44 870 -44 870 -72 c 2,63,-1
 870 -302 l 2,64,65
 870 -352 870 -352 891 -449 c 128,-1,66
 912 -546 912 -546 912 -596 c 0,67,68
 912 -629 912 -629 894 -656 c 128,-1,69
 876 -683 876 -683 845 -683 c 0,70,71
 813 -683 813 -683 797 -655 c 128,-1,72
 781 -627 781 -627 781 -592 c 0,73,74
 781 -537 781 -537 804 -426 c 128,-1,75
 827 -315 827 -315 827 -254 c 0,76,77
 827 -7 827 -7 735 -7 c 0,78,79
 611 -7 611 -7 611 3 c 2,80,-1
 611 1 l 2,81,82
 611 -68 611 -68 641.5 -201.5 c 128,-1,83
 672 -335 672 -335 672 -403 c 0,84,85
 672 -451 672 -451 651 -488.5 c 128,-1,86
 630 -526 630 -526 586 -526 c 0,87,88
 543 -526 543 -526 518.5 -490 c 128,-1,89
 494 -454 494 -454 494 -410 c 0,90,91
 494 -339 494 -339 523 -199.5 c 128,-1,92
 552 -60 552 -60 552 12 c 1,8,9
EndSplineSet
EndChar

StartChar: p
Encoding: 112 112 84
Width: 1901
GlyphClass: 2
Flags: W
LayerCount: 2
Fore
SplineSet
696 921 m 2,0,-1
 696 862 l 2,1,2
 696 803 696 803 656 763 c 1,3,-1
 677 742 l 1,4,5
 716 781 716 781 777 781 c 2,6,-1
 1101 781 l 2,7,8
 1132 781 1132 781 1150 782 c 128,-1,9
 1168 783 1168 783 1192 786 c 128,-1,10
 1216 789 1216 789 1229 796.5 c 128,-1,11
 1242 804 1242 804 1255.5 816 c 128,-1,12
 1269 828 1269 828 1274.5 848 c 128,-1,13
 1280 868 1280 868 1280 895 c 0,14,15
 1280 920 1280 920 1271.5 939.5 c 128,-1,16
 1263 959 1263 959 1247 970 c 128,-1,17
 1231 981 1231 981 1215 988 c 128,-1,18
 1199 995 1199 995 1175.5 998 c 128,-1,19
 1152 1001 1152 1001 1138.5 1001.5 c 128,-1,20
 1125 1002 1125 1002 1105 1002 c 2,21,-1
 777 1002 l 2,22,23
 715 1002 715 1002 677 1040 c 1,24,-1
 656 1021 l 1,25,26
 696 981 696 981 696 921 c 2,0,-1
1328 480 m 2,27,-1
 777 480 l 2,28,29
 715 480 715 480 677 518 c 1,30,-1
 656 499 l 1,31,32
 696 459 696 459 696 399 c 2,33,-1
 696 81 l 2,34,35
 696 4 696 4 694 -108 c 1,36,-1
 649 -112 l 1,37,38
 636 0 636 0 615 0 c 2,39,-1
 462 0 l 1,40,41
 461 -6 461 -6 460 -14 c 0,42,43
 456 -38 456 -38 456 -68 c 0,44,45
 456 -102 456 -102 469 -186.5 c 128,-1,46
 482 -271 482 -271 482 -305 c 0,47,48
 482 -366 482 -366 439 -366 c 0,49,50
 393 -366 393 -366 393 -304 c 0,51,52
 393 -268 393 -268 411.5 -178.5 c 128,-1,53
 430 -89 430 -89 430 -52 c 0,54,55
 430 -36 430 -36 430 0 c 1,56,-1
 257 0 l 2,57,58
 253 0 253 0 247 -13.5 c 128,-1,59
 241 -27 241 -27 235.5 -62 c 128,-1,60
 230 -97 230 -97 230 -144 c 0,61,62
 230 -186 230 -186 249 -293 c 128,-1,63
 268 -400 268 -400 268 -443 c 0,64,65
 268 -535 268 -535 203 -535 c 0,66,67
 134 -535 134 -535 134 -441 c 0,68,69
 134 -396 134 -396 156 -282 c 128,-1,70
 178 -168 178 -168 178 -122 c 0,71,72
 178 -95 178 -95 177 -29 c 128,-1,73
 176 37 176 37 176 81 c 2,74,-1
 176 1255 l 2,75,76
 176 1316 176 1316 138 1354 c 1,77,-1
 158 1374 l 1,78,79
 196 1336 196 1336 257 1336 c 2,80,-1
 1120 1336 l 2,81,82
 1182 1336 1182 1336 1222.5 1335 c 128,-1,83
 1263 1334 1263 1334 1325.5 1330 c 128,-1,84
 1388 1326 1388 1326 1431 1319 c 128,-1,85
 1474 1312 1474 1312 1529 1297.5 c 128,-1,86
 1584 1283 1584 1283 1621 1263 c 128,-1,87
 1658 1243 1658 1243 1697 1212 c 128,-1,88
 1736 1181 1736 1181 1759 1142 c 128,-1,89
 1782 1103 1782 1103 1797 1049 c 128,-1,90
 1812 995 1812 995 1812 931 c 0,91,92
 1812 829 1812 829 1787.5 750.5 c 128,-1,93
 1763 672 1763 672 1709 609.5 c 128,-1,94
 1655 547 1655 547 1559 513.5 c 128,-1,95
 1463 480 1463 480 1328 480 c 2,27,-1
EndSplineSet
EndChar

StartChar: q
Encoding: 113 113 85
Width: 2019
GlyphClass: 2
Flags: W
LayerCount: 2
Fore
SplineSet
1687 -881 m 0,0,1
 1669 -881 1669 -881 1661 -866 c 128,-1,2
 1653 -851 1653 -851 1653 -832 c 0,3,4
 1653 -811 1653 -811 1656.5 -785.5 c 128,-1,5
 1660 -760 1660 -760 1664 -743 c 128,-1,6
 1668 -726 1668 -726 1676 -695.5 c 128,-1,7
 1684 -665 1684 -665 1687 -652 c 1,8,9
 1690 -666 1690 -666 1700.5 -707.5 c 128,-1,10
 1711 -749 1711 -749 1716 -777.5 c 128,-1,11
 1721 -806 1721 -806 1721 -834 c 0,12,13
 1721 -881 1721 -881 1687 -881 c 0,0,1
1470 -121 m 2,14,-1
 1324 -22 l 2,15,16
 1301 -6 1301 -6 1290.5 7 c 128,-1,17
 1280 20 1280 20 1280 40 c 0,18,19
 1280 51 1280 51 1282 58 c 1,20,-1
 1245 67 l 1,21,22
 1239 39 1239 39 1222.5 27.5 c 128,-1,23
 1206 16 1206 16 1173 12 c 1,24,25
 1069 -4 1069 -4 985 -4 c 0,26,27
 895 -4 895 -4 814 3 c 128,-1,28
 733 10 733 10 639 30 c 128,-1,29
 545 50 545 50 467.5 82 c 128,-1,30
 390 114 390 114 316 169 c 128,-1,31
 242 224 242 224 191 295.5 c 128,-1,32
 140 367 140 367 109.5 471 c 128,-1,33
 79 575 79 575 79 701 c 0,34,35
 79 850 79 850 123.5 968.5 c 128,-1,36
 168 1087 168 1087 247.5 1167 c 128,-1,37
 327 1247 327 1247 441.5 1300 c 128,-1,38
 556 1353 556 1353 690.5 1376.5 c 128,-1,39
 825 1400 825 1400 985 1400 c 128,-1,40
 1145 1400 1145 1400 1279.5 1376.5 c 128,-1,41
 1414 1353 1414 1353 1528 1300 c 128,-1,42
 1642 1247 1642 1247 1721 1167 c 128,-1,43
 1800 1087 1800 1087 1844 968.5 c 128,-1,44
 1888 850 1888 850 1888 701 c 0,45,46
 1888 425 1888 425 1745 270 c 0,47,48
 1702 224 1702 224 1650 219 c 1,49,-1
 1651 193 l 1,50,51
 1657 194 1657 194 1671 194 c 0,52,53
 1716 194 1716 194 1757 166 c 2,54,-1
 1885 80 l 2,55,56
 1929 50 1929 50 1980 49 c 0,57,58
 1982 49 1982 49 1985.5 49.5 c 128,-1,59
 1989 50 1989 50 1991 50 c 1,60,-1
 1993 25 l 1,61,62
 1937 21 1937 21 1891 -19 c 2,63,-1
 1706 -177 l 1,64,65
 1706 -208 1706 -208 1718 -269 c 128,-1,66
 1730 -330 1730 -330 1730 -360 c 0,67,68
 1730 -421 1730 -421 1687 -421 c 0,69,70
 1643 -421 1643 -421 1643 -361 c 0,71,72
 1643 -333 1643 -333 1655.5 -278 c 128,-1,73
 1668 -223 1668 -223 1668 -196 c 0,74,75
 1668 -140 1668 -140 1643 -140 c 0,76,77
 1624 -140 1624 -140 1615.5 -168.5 c 128,-1,78
 1607 -197 1607 -197 1607 -223 c 0,79,80
 1607 -283 1607 -283 1621 -403.5 c 128,-1,81
 1635 -524 1635 -524 1635 -585 c 0,82,83
 1635 -644 1635 -644 1593 -644 c 0,84,85
 1545 -644 1545 -644 1545 -580 c 0,86,87
 1545 -552 1545 -552 1552.5 -473 c 128,-1,88
 1560 -394 1560 -394 1560 -350 c 0,89,90
 1560 -183 1560 -183 1470 -121 c 2,14,-1
633 706 m 0,91,92
 633 342 633 342 986 342 c 0,93,94
 1337 342 1337 342 1337 706 c 0,95,96
 1337 880 1337 880 1243 966.5 c 128,-1,97
 1149 1053 1149 1053 986 1053 c 128,-1,98
 823 1053 823 1053 728 966.5 c 128,-1,99
 633 880 633 880 633 706 c 0,91,92
EndSplineSet
EndChar

StartChar: r
Encoding: 114 114 86
Width: 2066
GlyphClass: 2
Flags: W
LayerCount: 2
Fore
SplineSet
696 921 m 2,0,-1
 696 854 l 2,1,2
 696 794 696 794 656 754 c 1,3,-1
 677 734 l 1,4,5
 720 778 720 778 855 778 c 0,6,7
 895 778 895 778 981.5 773.5 c 128,-1,8
 1068 769 1068 769 1108 769 c 0,9,10
 1209 769 1209 769 1264.5 795.5 c 128,-1,11
 1320 822 1320 822 1320 893 c 0,12,13
 1320 938 1320 938 1289 963.5 c 128,-1,14
 1258 989 1258 989 1214 996.5 c 128,-1,15
 1170 1004 1170 1004 1102 1004 c 0,16,17
 1064 1004 1064 1004 984 1000.5 c 128,-1,18
 904 997 904 997 866 997 c 0,19,20
 721 997 721 997 677 1040 c 1,21,-1
 656 1021 l 1,22,23
 696 982 696 982 696 921 c 2,0,-1
1790 -121 m 0,24,25
 1790 5 1790 5 1678 78 c 0,26,27
 1585 138 1585 138 1470 130 c 0,28,29
 1359 123 1359 123 1314 54 c 1,30,31
 1291 21 1291 21 1291 -24 c 128,-1,32
 1291 -69 1291 -69 1288.5 -158 c 128,-1,33
 1286 -247 1286 -247 1286 -292 c 0,34,35
 1286 -347 1286 -347 1303 -455.5 c 128,-1,36
 1320 -564 1320 -564 1320 -619 c 0,37,38
 1320 -716 1320 -716 1264 -716 c 0,39,40
 1210 -716 1210 -716 1210 -622 c 0,41,42
 1210 -560 1210 -560 1228 -444 c 128,-1,43
 1246 -328 1246 -328 1248 -274 c 0,44,45
 1251 -208 1251 -208 1251 -12 c 0,46,47
 1251 40 1251 40 1219 108 c 128,-1,48
 1187 176 1187 176 1118 295 c 128,-1,49
 1049 414 1049 414 1005 505 c 1,50,-1
 975 522 l 1,51,52
 951 478 951 478 890 478 c 0,53,54
 877 478 877 478 849 476.5 c 128,-1,55
 821 475 821 475 806 475 c 0,56,57
 720 475 720 475 677 517 c 1,58,-1
 656 497 l 1,59,60
 659 460 659 460 659 339 c 0,61,62
 659 301 659 301 658.5 217 c 128,-1,63
 658 133 658 133 658 94 c 0,64,65
 658 -16 658 -16 662 -68 c 1,66,67
 662 -88 662 -88 671.5 -141 c 128,-1,68
 681 -194 681 -194 681 -215 c 0,69,70
 681 -256 681 -256 652 -256 c 0,71,72
 625 -256 625 -256 625 -218 c 0,73,74
 625 -201 625 -201 633 -156.5 c 128,-1,75
 641 -112 641 -112 641 -94 c 0,76,77
 641 -49 641 -49 614.5 -22.5 c 128,-1,78
 588 4 588 4 548 4 c 0,79,80
 503 4 503 4 470.5 -33.5 c 128,-1,81
 438 -71 438 -71 438 -145 c 0,82,83
 438 -191 438 -191 460 -293.5 c 128,-1,84
 482 -396 482 -396 482 -441 c 0,85,86
 482 -535 482 -535 413 -535 c 0,87,88
 348 -535 348 -535 348 -443 c 0,89,90
 348 -400 348 -400 367.5 -293 c 128,-1,91
 387 -186 387 -186 387 -144 c 0,92,93
 387 -60 387 -60 358 -19.5 c 128,-1,94
 329 21 329 21 288 21 c 0,95,96
 255 21 255 21 229 -4.5 c 128,-1,97
 203 -30 203 -30 203 -68 c 0,98,99
 203 -102 203 -102 216.5 -186.5 c 128,-1,100
 230 -271 230 -271 230 -305 c 0,101,102
 230 -366 230 -366 186 -366 c 0,103,104
 140 -366 140 -366 140 -304 c 0,105,106
 140 -268 140 -268 159 -178.5 c 128,-1,107
 178 -89 178 -89 178 -52 c 1,108,109
 176 11 176 11 176 1255 c 0,110,111
 176 1317 176 1317 138 1354 c 1,112,-1
 158 1374 l 1,113,114
 197 1336 197 1336 257 1336 c 2,115,-1
 1153 1336 l 2,116,117
 1214 1336 1214 1336 1255 1335 c 128,-1,118
 1296 1334 1296 1334 1358.5 1330 c 128,-1,119
 1421 1326 1421 1326 1464.5 1318.5 c 128,-1,120
 1508 1311 1508 1311 1562.5 1297 c 128,-1,121
 1617 1283 1617 1283 1654.5 1262.5 c 128,-1,122
 1692 1242 1692 1242 1730.5 1211.5 c 128,-1,123
 1769 1181 1769 1181 1792.5 1141.5 c 128,-1,124
 1816 1102 1816 1102 1830.5 1048.5 c 128,-1,125
 1845 995 1845 995 1845 931 c 0,126,127
 1845 853 1845 853 1829.5 789.5 c 128,-1,128
 1814 726 1814 726 1777.5 669.5 c 128,-1,129
 1741 613 1741 613 1671.5 581 c 128,-1,130
 1602 549 1602 549 1504 549 c 1,131,-1
 1496 526 l 1,132,133
 1521 516 1521 516 1545.5 497 c 128,-1,134
 1570 478 1570 478 1580 457 c 0,135,136
 1612 387 1612 387 1624 363 c 128,-1,137
 1636 339 1636 339 1664.5 286.5 c 128,-1,138
 1693 234 1693 234 1722.5 198 c 128,-1,139
 1752 162 1752 162 1789 130 c 0,140,141
 1824 100 1824 100 1891 68 c 128,-1,142
 1958 36 1958 36 1976 25 c 1,143,144
 1986 17 1986 17 1986 11 c 0,145,146
 1986 -89 1986 -89 2013 -246 c 128,-1,147
 2040 -403 2040 -403 2040 -474 c 0,148,149
 2040 -493 2040 -493 2036.5 -513 c 128,-1,150
 2033 -533 2033 -533 2021 -552.5 c 128,-1,151
 2009 -572 2009 -572 1990 -572 c 0,152,153
 1963 -572 1963 -572 1951.5 -539 c 128,-1,154
 1940 -506 1940 -506 1940 -473 c 0,155,156
 1940 -410 1940 -410 1953 -286.5 c 128,-1,157
 1966 -163 1966 -163 1966 -100 c 0,158,159
 1966 25 1966 25 1885 25 c 0,160,161
 1845 25 1845 25 1825.5 11 c 128,-1,162
 1806 -3 1806 -3 1806 -40 c 0,163,164
 1806 -90 1806 -90 1824 -185 c 128,-1,165
 1842 -280 1842 -280 1842 -326 c 0,166,167
 1842 -377 1842 -377 1804 -377 c 0,168,169
 1768 -377 1768 -377 1768 -328 c 0,170,171
 1768 -294 1768 -294 1779 -225 c 128,-1,172
 1790 -156 1790 -156 1790 -121 c 0,24,25
EndSplineSet
EndChar

StartChar: s
Encoding: 115 115 87
Width: 1887
GlyphClass: 2
Flags: W
LayerCount: 2
Fore
SplineSet
1786 482 m 0,0,1
 1786 376 1786 376 1742 291.5 c 128,-1,2
 1698 207 1698 207 1627.5 154 c 128,-1,3
 1557 101 1557 101 1461 66 c 128,-1,4
 1365 31 1365 31 1267.5 17 c 128,-1,5
 1170 3 1170 3 1066 3 c 0,6,7
 1006 3 1006 3 995 4 c 0,8,9
 986 4 986 4 979 1.5 c 128,-1,10
 972 -1 972 -1 966.5 -4 c 128,-1,11
 961 -7 961 -7 957 -13.5 c 128,-1,12
 953 -20 953 -20 950.5 -24.5 c 128,-1,13
 948 -29 948 -29 946 -38 c 128,-1,14
 944 -47 944 -47 943 -51.5 c 128,-1,15
 942 -56 942 -56 941.5 -66 c 128,-1,16
 941 -76 941 -76 941 -79 c 128,-1,17
 941 -82 941 -82 941 -92 c 2,18,-1
 941 -103 l 2,19,20
 941 -130 941 -130 954.5 -182.5 c 128,-1,21
 968 -235 968 -235 968 -261 c 0,22,23
 968 -281 968 -281 959 -297.5 c 128,-1,24
 950 -314 950 -314 931 -314 c 128,-1,25
 912 -314 912 -314 901.5 -298 c 128,-1,26
 891 -282 891 -282 891 -263 c 0,27,28
 891 -234 891 -234 903.5 -176.5 c 128,-1,29
 916 -119 916 -119 916 -89 c 0,30,31
 916 -67 916 -67 915.5 -56.5 c 128,-1,32
 915 -46 915 -46 912.5 -30.5 c 128,-1,33
 910 -15 910 -15 904.5 -8 c 128,-1,34
 899 -1 899 -1 888 4.5 c 128,-1,35
 877 10 877 10 861 10 c 0,36,37
 821 10 821 10 807.5 -19.5 c 128,-1,38
 794 -49 794 -49 794 -98 c 0,39,40
 794 -113 794 -113 797 -161 c 128,-1,41
 800 -209 800 -209 800 -262 c 0,42,43
 800 -328 800 -328 783 -328 c 0,44,45
 762 -328 762 -328 762 -292 c 0,46,47
 762 -275 762 -275 767 -241.5 c 128,-1,48
 772 -208 772 -208 772 -191 c 2,49,-1
 772 -4 l 1,50,51
 696 0 696 0 632 7.5 c 128,-1,52
 568 15 568 15 497.5 29.5 c 128,-1,53
 427 44 427 44 370 69.5 c 128,-1,54
 313 95 313 95 262 130.5 c 128,-1,55
 211 166 211 166 173.5 219 c 128,-1,56
 136 272 136 272 115 338 c 0,57,58
 95 403 95 403 48 436 c 1,59,-1
 63 457 l 1,60,61
 108 427 108 427 165 427 c 0,62,63
 213 427 213 427 295 431 c 128,-1,64
 377 435 377 435 480 440.5 c 128,-1,65
 583 446 583 446 631 448 c 0,66,67
 671 450 671 450 692 460.5 c 128,-1,68
 713 471 713 471 722 499 c 1,69,-1
 767 484 l 1,70,71
 764 476 764 476 764 463 c 0,72,73
 764 430 764 430 814 392 c 0,74,75
 874 346 874 346 1018 346 c 0,76,77
 1036 346 1036 346 1058 348.5 c 128,-1,78
 1080 351 1080 351 1108.5 357.5 c 128,-1,79
 1137 364 1137 364 1155.5 379 c 128,-1,80
 1174 394 1174 394 1174 415 c 0,81,82
 1174 464 1174 464 1113 482 c 0,83,84
 1066 496 1066 496 989.5 507.5 c 128,-1,85
 913 519 913 519 836.5 526 c 128,-1,86
 760 533 760 533 671 546 c 128,-1,87
 582 559 582 559 503 574.5 c 128,-1,88
 424 590 424 590 349.5 620 c 128,-1,89
 275 650 275 650 222 690.5 c 128,-1,90
 169 731 169 731 136.5 794.5 c 128,-1,91
 104 858 104 858 104 939 c 128,-1,92
 104 1020 104 1020 129.5 1087 c 128,-1,93
 155 1154 155 1154 199 1202 c 128,-1,94
 243 1250 243 1250 305.5 1287 c 128,-1,95
 368 1324 368 1324 436.5 1347 c 128,-1,96
 505 1370 505 1370 585.5 1384.5 c 128,-1,97
 666 1399 666 1399 741 1404.5 c 128,-1,98
 816 1410 816 1410 896 1410 c 0,99,100
 977 1410 977 1410 1042.5 1406.5 c 128,-1,101
 1108 1403 1108 1403 1196.5 1393.5 c 128,-1,102
 1285 1384 1285 1384 1356.5 1362.5 c 128,-1,103
 1428 1341 1428 1341 1498.5 1308 c 128,-1,104
 1569 1275 1569 1275 1621.5 1221 c 128,-1,105
 1674 1167 1674 1167 1703 1097 c 1,106,107
 1727 1046 1727 1046 1769 1002 c 1,108,-1
 1756 979 l 1,109,110
 1714 1008 1714 1008 1659 1008 c 2,111,-1
 1646 1008 l 1,112,113
 1566 1005 1566 1005 1417.5 996.5 c 128,-1,114
 1269 988 1269 988 1224 986 c 0,115,116
 1184 984 1184 984 1165.5 974 c 128,-1,117
 1147 964 1147 964 1139 936 c 1,118,-1
 1095 948 l 1,119,120
 1098 957 1098 957 1098 967 c 0,121,122
 1098 1009 1098 1009 1030 1039.5 c 128,-1,123
 962 1070 962 1070 876 1070 c 0,124,125
 708 1070 708 1070 708 1004 c 0,126,127
 708 981 708 981 742.5 963.5 c 128,-1,128
 777 946 777 946 838.5 935 c 128,-1,129
 900 924 900 924 959.5 917.5 c 128,-1,130
 1019 911 1019 911 1093.5 903.5 c 128,-1,131
 1168 896 1168 896 1204 891 c 0,132,133
 1406 861 1406 861 1494 833 c 0,134,135
 1729 759 1729 759 1775 580 c 0,136,137
 1786 535 1786 535 1786 482 c 0,0,1
EndSplineSet
EndChar

StartChar: t
Encoding: 116 116 88
Width: 1667
GlyphClass: 2
Flags: W
LayerCount: 2
Fore
SplineSet
953 -728 m 128,-1,1
 928 -728 928 -728 928 -692 c 0,2,3
 928 -664 928 -664 937 -599 c 128,-1,4
 946 -534 946 -534 954 -502 c 1,5,6
 961 -534 961 -534 969.5 -599 c 128,-1,7
 978 -664 978 -664 978 -693 c 0,8,0
 978 -728 978 -728 953 -728 c 128,-1,1
173 1334 m 2,9,-1
 1486 1334 l 2,10,11
 1547 1334 1547 1334 1586 1373 c 1,12,-1
 1606 1353 l 1,13,14
 1568 1315 1568 1315 1568 1253 c 0,15,16
 1568 1236 1568 1236 1565.5 1192.5 c 128,-1,17
 1563 1149 1563 1149 1563 1125 c 0,18,19
 1563 1017 1563 1017 1606 974 c 1,20,-1
 1586 953 l 1,21,22
 1541 999 1541 999 1440 999 c 0,23,24
 1406 999 1406 999 1330.5 992 c 128,-1,25
 1255 985 1255 985 1219 985 c 0,26,27
 1114 985 1114 985 1068 1031 c 1,28,-1
 1047 1011 l 1,29,30
 1086 973 1086 973 1086 911 c 2,31,-1
 1086 81 l 2,32,33
 1086 -23 1086 -23 1104.5 -229 c 128,-1,34
 1123 -435 1123 -435 1123 -540 c 0,35,36
 1123 -564 1123 -564 1113 -589 c 128,-1,37
 1103 -614 1103 -614 1082 -614 c 0,38,39
 1069 -614 1069 -614 1060.5 -603.5 c 128,-1,40
 1052 -593 1052 -593 1048 -576.5 c 128,-1,41
 1044 -560 1044 -560 1042.5 -547 c 128,-1,42
 1041 -534 1041 -534 1041 -522 c 0,43,44
 1041 -452 1041 -452 1054.5 -313.5 c 128,-1,45
 1068 -175 1068 -175 1068 -105 c 0,46,47
 1068 4 1068 4 1025 4 c 0,48,49
 1004 4 1004 4 992 -21 c 128,-1,50
 980 -46 980 -46 980 -70 c 0,51,52
 980 -105 980 -105 991.5 -174.5 c 128,-1,53
 1003 -244 1003 -244 1003 -279 c 0,54,55
 1003 -304 1003 -304 993.5 -327.5 c 128,-1,56
 984 -351 984 -351 962 -351 c 0,57,58
 941 -351 941 -351 931 -330 c 128,-1,59
 921 -309 921 -309 921 -286 c 0,60,61
 921 -253 921 -253 939 -189.5 c 128,-1,62
 957 -126 957 -126 957 -92 c 0,63,64
 957 -46 957 -46 922.5 -25 c 128,-1,65
 888 -4 888 -4 838 -4 c 0,66,67
 783 -4 783 -4 726.5 -25 c 128,-1,68
 670 -46 670 -46 627 -90.5 c 128,-1,69
 584 -135 584 -135 584 -191 c 0,70,71
 584 -222 584 -222 597.5 -284 c 128,-1,72
 611 -346 611 -346 611 -378 c 0,73,74
 611 -429 611 -429 574 -429 c 0,75,76
 532 -429 532 -429 532 -375 c 0,77,78
 532 -340 532 -340 548 -272 c 128,-1,79
 564 -204 564 -204 564 -170 c 2,80,-1
 564 90 l 1,81,82
 566 638 566 638 566 911 c 0,83,84
 566 974 566 974 604 1011 c 1,85,-1
 584 1031 l 1,86,87
 540 986 540 986 438 986 c 0,88,89
 404 986 404 986 330.5 992.5 c 128,-1,90
 257 999 257 999 223 999 c 0,91,92
 120 999 120 999 74 953 c 1,93,-1
 54 974 l 1,94,95
 92 1012 92 1012 92 1073 c 0,96,97
 92 1088 92 1088 94.5 1132 c 128,-1,98
 97 1176 97 1176 97 1201 c 0,99,100
 97 1311 97 1311 54 1353 c 1,101,-1
 74 1373 l 1,102,103
 114 1334 114 1334 173 1334 c 2,9,-1
EndSplineSet
EndChar

StartChar: u
Encoding: 117 117 89
Width: 1887
GlyphClass: 2
Flags: W
LayerCount: 2
Fore
SplineSet
1140 -602 m 0,0,1
 1108 -602 1108 -602 1108 -553 c 0,2,3
 1108 -531 1108 -531 1114.5 -503 c 128,-1,4
 1121 -475 1121 -475 1129 -456.5 c 128,-1,5
 1137 -438 1137 -438 1141 -438 c 0,6,7
 1143 -438 1143 -438 1151 -456 c 128,-1,8
 1159 -474 1159 -474 1166.5 -503 c 128,-1,9
 1174 -532 1174 -532 1174 -554 c 0,10,11
 1174 -602 1174 -602 1140 -602 c 0,0,1
1150 -37 m 1,12,-1
 1150 -224 l 2,13,14
 1150 -241 1150 -241 1155 -275.5 c 128,-1,15
 1160 -310 1160 -310 1160 -327 c 0,16,17
 1160 -361 1160 -361 1139 -361 c 0,18,19
 1122 -361 1122 -361 1122 -295 c 0,20,21
 1122 -242 1122 -242 1125 -194.5 c 128,-1,22
 1128 -147 1128 -147 1128 -132 c 0,23,24
 1128 -101 1128 -101 1124 -80 c 128,-1,25
 1120 -59 1120 -59 1104.5 -41.5 c 128,-1,26
 1089 -24 1089 -24 1061 -24 c 0,27,28
 1009 -24 1009 -24 1009 -109 c 0,29,30
 1009 -126 1009 -126 1011.5 -156.5 c 128,-1,31
 1014 -187 1014 -187 1014 -196 c 0,32,33
 1014 -226 1014 -226 1026.5 -283.5 c 128,-1,34
 1039 -341 1039 -341 1039 -370 c 0,35,36
 1039 -389 1039 -389 1029 -405 c 128,-1,37
 1019 -421 1019 -421 1000 -421 c 128,-1,38
 981 -421 981 -421 971.5 -404.5 c 128,-1,39
 962 -388 962 -388 962 -368 c 0,40,41
 962 -342 962 -342 975.5 -289.5 c 128,-1,42
 989 -237 989 -237 989 -210 c 0,43,44
 989 -207 989 -207 989 -201 c 0,45,46
 989 -176 989 -176 988 -160 c 128,-1,47
 987 -144 987 -144 983 -119.5 c 128,-1,48
 979 -95 979 -95 966.5 -82.5 c 128,-1,49
 954 -70 954 -70 935 -70 c 0,50,51
 922 -70 922 -70 911 -74.5 c 128,-1,52
 900 -79 900 -79 892.5 -88.5 c 128,-1,53
 885 -98 885 -98 879 -107 c 128,-1,54
 873 -116 873 -116 870 -132 c 128,-1,55
 867 -148 867 -148 864.5 -159 c 128,-1,56
 862 -170 862 -170 861.5 -188.5 c 128,-1,57
 861 -207 861 -207 861 -215.5 c 128,-1,58
 861 -224 861 -224 861 -241.5 c 128,-1,59
 861 -259 861 -259 861 -262 c 0,60,61
 861 -299 861 -299 879 -370 c 128,-1,62
 897 -441 897 -441 897 -476 c 0,63,64
 897 -504 897 -504 885 -526.5 c 128,-1,65
 873 -549 873 -549 847 -549 c 0,66,67
 822 -549 822 -549 807.5 -528 c 128,-1,68
 793 -507 793 -507 793 -481 c 0,69,70
 793 -441 793 -441 809.5 -362 c 128,-1,71
 826 -283 826 -283 826 -242 c 2,72,-1
 826 -43 l 1,73,74
 739 -39 739 -39 668 -30.5 c 128,-1,75
 597 -22 597 -22 525.5 -4.5 c 128,-1,76
 454 13 454 13 399.5 39.5 c 128,-1,77
 345 66 345 66 296.5 107 c 128,-1,78
 248 148 248 148 216 202.5 c 128,-1,79
 184 257 184 257 165.5 331 c 128,-1,80
 147 405 147 405 145 496 c 0,81,82
 143 589 143 589 143 773 c 0,83,84
 143 850 143 850 144 1004 c 128,-1,85
 145 1158 145 1158 145 1235 c 0,86,87
 145 1294 145 1294 106 1334 c 1,88,-1
 127 1354 l 1,89,90
 164 1316 164 1316 226 1316 c 2,91,-1
 580 1316 l 2,92,93
 641 1316 641 1316 679 1354 c 1,94,-1
 700 1334 l 1,95,96
 662 1295 662 1295 662 1235 c 2,97,-1
 664 721 l 2,98,99
 664 676 664 676 664.5 650 c 128,-1,100
 665 624 665 624 667.5 583 c 128,-1,101
 670 542 670 542 675 517 c 128,-1,102
 680 492 680 492 689.5 458.5 c 128,-1,103
 699 425 699 425 712.5 405 c 128,-1,104
 726 385 726 385 747 362.5 c 128,-1,105
 768 340 768 340 795 328 c 128,-1,106
 822 316 822 316 858.5 308 c 128,-1,107
 895 300 895 300 939 300 c 0,108,109
 979 300 979 300 1012.5 305.5 c 128,-1,110
 1046 311 1046 311 1071.5 323.5 c 128,-1,111
 1097 336 1097 336 1117.5 350.5 c 128,-1,112
 1138 365 1138 365 1152.5 387.5 c 128,-1,113
 1167 410 1167 410 1178 430.5 c 128,-1,114
 1189 451 1189 451 1195.5 482 c 128,-1,115
 1202 513 1202 513 1206 536.5 c 128,-1,116
 1210 560 1210 560 1212 596.5 c 128,-1,117
 1214 633 1214 633 1214.5 657.5 c 128,-1,118
 1215 682 1215 682 1215 721 c 2,119,-1
 1217 1235 l 2,120,121
 1217 1296 1217 1296 1180 1334 c 1,122,-1
 1199 1354 l 1,123,124
 1237 1316 1237 1316 1299 1316 c 2,125,-1
 1653 1316 l 2,126,127
 1716 1316 1716 1316 1753 1354 c 1,128,-1
 1773 1334 l 1,129,130
 1732 1292 1732 1292 1732 1130 c 0,131,132
 1732 1013 1732 1013 1736.5 853 c 128,-1,133
 1741 693 1741 693 1741 619 c 0,134,135
 1741 537 1741 537 1736 474.5 c 128,-1,136
 1731 412 1731 412 1716 344.5 c 128,-1,137
 1701 277 1701 277 1675 228 c 128,-1,138
 1649 179 1649 179 1604.5 131 c 128,-1,139
 1560 83 1560 83 1498.5 51 c 128,-1,140
 1437 19 1437 19 1349 -4 c 128,-1,141
 1261 -27 1261 -27 1150 -37 c 1,12,-1
EndSplineSet
EndChar

StartChar: v
Encoding: 118 118 90
Width: 1760
GlyphClass: 2
Flags: W
LayerCount: 2
Fore
SplineSet
623 32 m 2,0,1
 607 32 607 32 607 -42 c 0,2,3
 607 -79 607 -79 614.5 -152.5 c 128,-1,4
 622 -226 622 -226 622 -262 c 0,5,6
 622 -276 622 -276 614 -285.5 c 128,-1,7
 606 -295 606 -295 592 -295 c 0,8,9
 577 -295 577 -295 568 -284.5 c 128,-1,10
 559 -274 559 -274 559 -259 c 0,11,12
 559 -216 559 -216 573 -131.5 c 128,-1,13
 587 -47 587 -47 587 -4 c 0,14,15
 587 80 587 80 554 155 c 2,16,-1
 58 1296 l 1,17,18
 36 1350 36 1350 -13 1383 c 1,19,-1
 0 1402 l 1,20,21
 47 1371 47 1371 108 1371 c 2,22,-1
 457 1371 l 2,23,24
 518 1371 518 1371 545 1413 c 1,25,-1
 574 1395 l 1,26,27
 557 1373 557 1373 557 1345 c 0,28,29
 557 1332 557 1332 584.5 1260 c 128,-1,30
 612 1188 612 1188 657 1079.5 c 128,-1,31
 702 971 702 971 741.5 878 c 128,-1,32
 781 785 781 785 825 683 c 128,-1,33
 869 581 869 581 874 569 c 1,34,35
 879 581 879 581 923 683 c 128,-1,36
 967 785 967 785 1006.5 878 c 128,-1,37
 1046 971 1046 971 1091 1079.5 c 128,-1,38
 1136 1188 1136 1188 1163.5 1260 c 128,-1,39
 1191 1332 1191 1332 1191 1345 c 0,40,41
 1191 1375 1191 1375 1175 1395 c 1,42,-1
 1203 1413 l 1,43,44
 1230 1371 1230 1371 1291 1371 c 2,45,-1
 1641 1371 l 2,46,47
 1703 1371 1703 1371 1750 1402 c 1,48,-1
 1762 1383 l 1,49,50
 1713 1350 1713 1350 1691 1296 c 2,51,-1
 1188 106 l 2,52,53
 1175 76 1175 76 1175 -76 c 0,54,55
 1175 -152 1175 -152 1198.5 -291.5 c 128,-1,56
 1222 -431 1222 -431 1222 -499 c 0,57,58
 1222 -596 1222 -596 1152 -596 c 0,59,60
 1083 -596 1083 -596 1083 -500 c 0,61,62
 1083 -435 1083 -435 1108 -307.5 c 128,-1,63
 1133 -180 1133 -180 1133 -113 c 0,64,65
 1133 32 1133 32 1107 32 c 2,66,-1
 623 32 l 2,0,1
EndSplineSet
EndChar

